0
SECTION
2
HEADER
9
$INSUNITS
70
4
9
$ACADVER
1
AC1014
9
$HANDSEED
5
FFFF
0
ENDSEC
0
SECTION
2
TABLES
0
TABLE
2
VPORT
5
8
100
AcDbSymbolTable
0
ENDTAB
0
TABLE
2
LTYPE
5
5
100
AcDbSymbolTable
0
LTYPE
5
14
100
AcDbSymbolTableRecord
100
AcDbLinetypeTableRecord
2
BYBLOCK
70
0
0
LTYPE
5
15
100
AcDbSymbolTableRecord
100
AcDbLinetypeTableRecord
2
BYLAYER
70
0
0
LTYPE
5
16
100
AcDbSymbolTableRecord
100
AcDbLinetypeTableRecord
2
DASHED
70
0
3
Dashed __ __ __ __ __ __ __ __ __ __ __ __ __ _
72
65
73
2
40
0.75
49
0.5
74
0
49
-0.25
74
0
0
ENDTAB
0
TABLE
2
LAYER
5
2
100
AcDbSymbolTable
70
2
0
LAYER
5
50
100
AcDbSymbolTableRecord
100
AcDbLayerTableRecord
2
0
70
0
62
7
6
CONTINUOUS
0
ENDTAB
0
TABLE
2
STYLE
5
3
100
AcDbSymbolTable
70
1
0
STYLE
5
11
100
AcDbSymbolTableRecord
100
AcDbTextStyleTableRecord
2
STANDARD
70
0
0
ENDTAB
0
TABLE
2
VIEW
5
6
100
AcDbSymbolTable
70
0
0
ENDTAB
0
TABLE
2
UCS
5
7
100
AcDbSymbolTable
70
0
0
ENDTAB
0
TABLE
2
APPID
5
9
100
AcDbSymbolTable
70
2
0
APPID
5
12
100
AcDbSymbolTableRecord
100
AcDbRegAppTableRecord
2
ACAD
70
0
0
ENDTAB
0
TABLE
2
DIMSTYLE
5
A
100
AcDbSymbolTable
70
1
0
ENDTAB
0
TABLE
2
BLOCK_RECORD
5
1
100
AcDbSymbolTable
70
1
0
BLOCK_RECORD
5
1F
100
AcDbSymbolTableRecord
100
AcDbBlockTableRecord
2
*MODEL_SPACE
0
BLOCK_RECORD
5
1B
100
AcDbSymbolTableRecord
100
AcDbBlockTableRecord
2
*PAPER_SPACE
0
ENDTAB
0
ENDSEC
0
SECTION
2
BLOCKS
0
BLOCK
5
20
100
AcDbEntity
100
AcDbBlockBegin
2
*MODEL_SPACE
0
ENDBLK
5
21
100
AcDbEntity
100
AcDbBlockEnd
0
BLOCK
5
1C
100
AcDbEntity
100
AcDbBlockBegin
2
*PAPER_SPACE
0
ENDBLK
5
1D
100
AcDbEntity
100
AcDbBlockEnd
0
ENDSEC
0
SECTION
2
ENTITIES
0
LWPOLYLINE
5
100
100
AcDbEntity
8
0
100
AcDbPolyline
90
10
70
1
43
0.0
10
-60.216912205712063
20
3.3999999999999986
10
-59.216912205712077
20
2.3999999999999986
10
-57.516427124746258
20
2.3999999999999977
10
-57.516427124746258
20
13.799999999999999
10
-57.516912205712067
20
13.799999999999999
10
-57.516912205712067
20
14.800000000000001
10
-60.900000000000077
20
14.800000000000001
10
-61.900000000000077
20
13.799999999999999
10
-61.900000000000077
20
12.800000000000002
10
-60.216912205712063
20
12.800000000000002
0
LINE
5
101
100
AcDbEntity
8
0
100
AcDbLine
10
-57.516427124746258
20
2.3999999999999977
30
0
11
-57.516912205712067
21
14.800000000000001
31
0
0
LINE
5
102
100
AcDbEntity
8
0
100
AcDbLine
10
-57.516912205712067
20
14.800000000000001
30
0
11
-60.900000000000077
21
14.800000000000001
31
0
0
LINE
5
103
100
AcDbEntity
8
0
100
AcDbLine
10
-60.900000000000077
20
14.800000000000001
30
0
11
-61.900000000000077
21
13.799999999999999
31
0
0
LINE
5
104
100
AcDbEntity
8
0
100
AcDbLine
10
-61.900000000000077
20
13.799999999999999
30
0
11
-61.900000000000077
21
12.800000000000002
31
0
0
LINE
5
105
100
AcDbEntity
8
0
100
AcDbLine
10
-61.900000000000077
20
12.800000000000002
30
0
11
-60.216912205712063
21
12.800000000000002
31
0
0
LINE
5
106
100
AcDbEntity
8
0
100
AcDbLine
10
-60.216912205712063
20
12.800000000000002
30
0
11
-60.216912205712063
21
3.3999999999999986
31
0
0
LINE
5
107
100
AcDbEntity
8
0
100
AcDbLine
10
-60.216912205712063
20
3.3999999999999986
30
0
11
-59.216912205712077
21
2.3999999999999986
31
0
0
LINE
5
108
100
AcDbEntity
8
0
100
AcDbLine
10
-59.216912205712077
20
2.3999999999999986
30
0
11
-57.516427124746258
21
2.3999999999999977
31
0
0
ENDSEC
0
SECTION
2
OBJECTS
0
DICTIONARY
5
C
100
AcDbDictionary
3
ACAD_GROUP
350
D
3
ACAD_MLINESTYLE
350
17
0
DICTIONARY
5
D
100
AcDbDictionary
0
DICTIONARY
5
1A
330
C
100
AcDbDictionary
0
DICTIONARY
5
17
100
AcDbDictionary
0
ENDSEC
0
EOF
