ISO-10303-21;
HEADER;
/* Generated by software containing ST-Developer
 * from STEP Tools, Inc. (www.steptools.com) 
 */

FILE_DESCRIPTION(
/* description */ (''),
/* implementation_level */ '2;1');

FILE_NAME(
/* name */ 'RGB_LED_1010.step',
/* time_stamp */ '2026-07-24T11:17:58+10:00',
/* author */ (''),
/* organization */ (''),
/* preprocessor_version */ 'ST-DEVELOPER v20.1',
/* originating_system */ 'Autodesk Translation Framework v15.8.0.0',
/* authorisation */ '');

FILE_SCHEMA (('AUTOMOTIVE_DESIGN { 1 0 10303 214 3 1 1 }'));
ENDSEC;

DATA;
#10=MECHANICAL_DESIGN_GEOMETRIC_PRESENTATION_REPRESENTATION('',(#13,#14),
#668);
#11=SHAPE_REPRESENTATION_RELATIONSHIP('SRR','None',#675,#12);
#12=ADVANCED_BREP_SHAPE_REPRESENTATION('',(#15,#16),#667);
#13=STYLED_ITEM('',(#685),#15);
#14=STYLED_ITEM('',(#686),#16);
#15=MANIFOLD_SOLID_BREP('Body1',#411);
#16=MANIFOLD_SOLID_BREP('Body2',#412);
#17=FACE_BOUND('',#44,.T.);
#18=FACE_OUTER_BOUND('',#43,.T.);
#19=FACE_OUTER_BOUND('',#45,.T.);
#20=FACE_OUTER_BOUND('',#46,.T.);
#21=FACE_OUTER_BOUND('',#47,.T.);
#22=FACE_OUTER_BOUND('',#48,.T.);
#23=FACE_OUTER_BOUND('',#49,.T.);
#24=FACE_OUTER_BOUND('',#50,.T.);
#25=FACE_OUTER_BOUND('',#51,.T.);
#26=FACE_OUTER_BOUND('',#52,.T.);
#27=FACE_OUTER_BOUND('',#53,.T.);
#28=FACE_OUTER_BOUND('',#54,.T.);
#29=FACE_OUTER_BOUND('',#55,.T.);
#30=FACE_OUTER_BOUND('',#56,.T.);
#31=FACE_OUTER_BOUND('',#57,.T.);
#32=FACE_OUTER_BOUND('',#58,.T.);
#33=FACE_OUTER_BOUND('',#59,.T.);
#34=FACE_OUTER_BOUND('',#60,.T.);
#35=FACE_OUTER_BOUND('',#61,.T.);
#36=FACE_OUTER_BOUND('',#62,.T.);
#37=FACE_OUTER_BOUND('',#63,.T.);
#38=FACE_OUTER_BOUND('',#64,.T.);
#39=FACE_OUTER_BOUND('',#65,.T.);
#40=FACE_OUTER_BOUND('',#66,.T.);
#41=FACE_OUTER_BOUND('',#67,.T.);
#42=FACE_OUTER_BOUND('',#68,.T.);
#43=EDGE_LOOP('',(#257,#258,#259,#260));
#44=EDGE_LOOP('',(#261,#262,#263,#264));
#45=EDGE_LOOP('',(#265,#266,#267,#268));
#46=EDGE_LOOP('',(#269,#270,#271,#272));
#47=EDGE_LOOP('',(#273,#274,#275,#276));
#48=EDGE_LOOP('',(#277,#278,#279,#280));
#49=EDGE_LOOP('',(#281,#282,#283,#284));
#50=EDGE_LOOP('',(#285,#286,#287,#288));
#51=EDGE_LOOP('',(#289,#290,#291,#292));
#52=EDGE_LOOP('',(#293,#294,#295,#296));
#53=EDGE_LOOP('',(#297,#298,#299,#300));
#54=EDGE_LOOP('',(#301,#302,#303,#304));
#55=EDGE_LOOP('',(#305,#306,#307,#308));
#56=EDGE_LOOP('',(#309,#310,#311,#312));
#57=EDGE_LOOP('',(#313,#314,#315,#316));
#58=EDGE_LOOP('',(#317,#318,#319,#320));
#59=EDGE_LOOP('',(#321,#322,#323,#324));
#60=EDGE_LOOP('',(#325,#326,#327,#328));
#61=EDGE_LOOP('',(#329,#330,#331,#332));
#62=EDGE_LOOP('',(#333,#334,#335,#336));
#63=EDGE_LOOP('',(#337,#338,#339,#340));
#64=EDGE_LOOP('',(#341,#342,#343,#344));
#65=EDGE_LOOP('',(#345,#346,#347,#348));
#66=EDGE_LOOP('',(#349,#350,#351,#352));
#67=EDGE_LOOP('',(#353,#354,#355,#356));
#68=EDGE_LOOP('',(#357,#358,#359,#360));
#69=LINE('',#559,#121);
#70=LINE('',#561,#122);
#71=LINE('',#563,#123);
#72=LINE('',#564,#124);
#73=LINE('',#567,#125);
#74=LINE('',#569,#126);
#75=LINE('',#571,#127);
#76=LINE('',#572,#128);
#77=LINE('',#575,#129);
#78=LINE('',#577,#130);
#79=LINE('',#578,#131);
#80=LINE('',#581,#132);
#81=LINE('',#582,#133);
#82=LINE('',#585,#134);
#83=LINE('',#587,#135);
#84=LINE('',#588,#136);
#85=LINE('',#591,#137);
#86=LINE('',#592,#138);
#87=LINE('',#596,#139);
#88=LINE('',#597,#140);
#89=LINE('',#599,#141);
#90=LINE('',#600,#142);
#91=LINE('',#603,#143);
#92=LINE('',#604,#144);
#93=LINE('',#605,#145);
#94=LINE('',#608,#146);
#95=LINE('',#609,#147);
#96=LINE('',#611,#148);
#97=LINE('',#613,#149);
#98=LINE('',#619,#150);
#99=LINE('',#620,#151);
#100=LINE('',#621,#152);
#101=LINE('',#624,#153);
#102=LINE('',#625,#154);
#103=LINE('',#628,#155);
#104=LINE('',#630,#156);
#105=LINE('',#631,#157);
#106=LINE('',#633,#158);
#107=LINE('',#634,#159);
#108=LINE('',#636,#160);
#109=LINE('',#642,#161);
#110=LINE('',#644,#162);
#111=LINE('',#646,#163);
#112=LINE('',#647,#164);
#113=LINE('',#650,#165);
#114=LINE('',#652,#166);
#115=LINE('',#653,#167);
#116=LINE('',#656,#168);
#117=LINE('',#657,#169);
#118=LINE('',#660,#170);
#119=LINE('',#661,#171);
#120=LINE('',#663,#172);
#121=VECTOR('',#455,10.);
#122=VECTOR('',#456,10.);
#123=VECTOR('',#457,10.);
#124=VECTOR('',#458,10.);
#125=VECTOR('',#459,10.);
#126=VECTOR('',#460,10.);
#127=VECTOR('',#461,10.);
#128=VECTOR('',#462,10.);
#129=VECTOR('',#465,10.);
#130=VECTOR('',#466,10.);
#131=VECTOR('',#467,10.);
#132=VECTOR('',#470,10.);
#133=VECTOR('',#471,10.);
#134=VECTOR('',#474,10.);
#135=VECTOR('',#475,10.);
#136=VECTOR('',#476,10.);
#137=VECTOR('',#479,10.);
#138=VECTOR('',#480,10.);
#139=VECTOR('',#483,10.);
#140=VECTOR('',#484,10.);
#141=VECTOR('',#485,10.);
#142=VECTOR('',#486,10.);
#143=VECTOR('',#489,10.);
#144=VECTOR('',#490,10.);
#145=VECTOR('',#491,10.);
#146=VECTOR('',#494,10.);
#147=VECTOR('',#495,10.);
#148=VECTOR('',#498,10.);
#149=VECTOR('',#501,10.);
#150=VECTOR('',#508,10.);
#151=VECTOR('',#509,10.);
#152=VECTOR('',#510,10.);
#153=VECTOR('',#513,10.);
#154=VECTOR('',#514,10.);
#155=VECTOR('',#517,10.);
#156=VECTOR('',#518,10.);
#157=VECTOR('',#519,10.);
#158=VECTOR('',#522,10.);
#159=VECTOR('',#523,10.);
#160=VECTOR('',#526,10.);
#161=VECTOR('',#533,10.);
#162=VECTOR('',#534,10.);
#163=VECTOR('',#535,10.);
#164=VECTOR('',#536,10.);
#165=VECTOR('',#539,10.);
#166=VECTOR('',#540,10.);
#167=VECTOR('',#541,10.);
#168=VECTOR('',#544,10.);
#169=VECTOR('',#545,10.);
#170=VECTOR('',#548,10.);
#171=VECTOR('',#549,10.);
#172=VECTOR('',#552,10.);
#173=VERTEX_POINT('',#557);
#174=VERTEX_POINT('',#558);
#175=VERTEX_POINT('',#560);
#176=VERTEX_POINT('',#562);
#177=VERTEX_POINT('',#565);
#178=VERTEX_POINT('',#566);
#179=VERTEX_POINT('',#568);
#180=VERTEX_POINT('',#570);
#181=VERTEX_POINT('',#574);
#182=VERTEX_POINT('',#576);
#183=VERTEX_POINT('',#580);
#184=VERTEX_POINT('',#584);
#185=VERTEX_POINT('',#586);
#186=VERTEX_POINT('',#590);
#187=VERTEX_POINT('',#594);
#188=VERTEX_POINT('',#595);
#189=VERTEX_POINT('',#598);
#190=VERTEX_POINT('',#602);
#191=VERTEX_POINT('',#607);
#192=VERTEX_POINT('',#617);
#193=VERTEX_POINT('',#618);
#194=VERTEX_POINT('',#623);
#195=VERTEX_POINT('',#627);
#196=VERTEX_POINT('',#629);
#197=VERTEX_POINT('',#640);
#198=VERTEX_POINT('',#641);
#199=VERTEX_POINT('',#643);
#200=VERTEX_POINT('',#645);
#201=VERTEX_POINT('',#649);
#202=VERTEX_POINT('',#651);
#203=VERTEX_POINT('',#655);
#204=VERTEX_POINT('',#659);
#205=EDGE_CURVE('',#173,#174,#69,.T.);
#206=EDGE_CURVE('',#175,#173,#70,.T.);
#207=EDGE_CURVE('',#176,#175,#71,.T.);
#208=EDGE_CURVE('',#174,#176,#72,.T.);
#209=EDGE_CURVE('',#177,#178,#73,.T.);
#210=EDGE_CURVE('',#179,#177,#74,.T.);
#211=EDGE_CURVE('',#180,#179,#75,.T.);
#212=EDGE_CURVE('',#178,#180,#76,.T.);
#213=EDGE_CURVE('',#177,#181,#77,.T.);
#214=EDGE_CURVE('',#181,#182,#78,.T.);
#215=EDGE_CURVE('',#179,#182,#79,.F.);
#216=EDGE_CURVE('',#178,#183,#80,.F.);
#217=EDGE_CURVE('',#183,#181,#81,.T.);
#218=EDGE_CURVE('',#173,#184,#82,.T.);
#219=EDGE_CURVE('',#185,#184,#83,.T.);
#220=EDGE_CURVE('',#175,#185,#84,.T.);
#221=EDGE_CURVE('',#174,#186,#85,.T.);
#222=EDGE_CURVE('',#184,#186,#86,.T.);
#223=EDGE_CURVE('',#187,#188,#87,.T.);
#224=EDGE_CURVE('',#187,#183,#88,.F.);
#225=EDGE_CURVE('',#189,#183,#89,.T.);
#226=EDGE_CURVE('',#188,#189,#90,.T.);
#227=EDGE_CURVE('',#188,#190,#91,.T.);
#228=EDGE_CURVE('',#182,#189,#92,.T.);
#229=EDGE_CURVE('',#190,#182,#93,.T.);
#230=EDGE_CURVE('',#190,#191,#94,.T.);
#231=EDGE_CURVE('',#191,#181,#95,.T.);
#232=EDGE_CURVE('',#191,#187,#96,.T.);
#233=EDGE_CURVE('',#180,#189,#97,.F.);
#234=EDGE_CURVE('',#192,#193,#98,.T.);
#235=EDGE_CURVE('',#193,#184,#99,.T.);
#236=EDGE_CURVE('',#192,#186,#100,.T.);
#237=EDGE_CURVE('',#193,#194,#101,.T.);
#238=EDGE_CURVE('',#194,#185,#102,.T.);
#239=EDGE_CURVE('',#194,#195,#103,.T.);
#240=EDGE_CURVE('',#195,#196,#104,.T.);
#241=EDGE_CURVE('',#196,#185,#105,.T.);
#242=EDGE_CURVE('',#186,#196,#106,.T.);
#243=EDGE_CURVE('',#195,#192,#107,.T.);
#244=EDGE_CURVE('',#176,#196,#108,.T.);
#245=EDGE_CURVE('',#197,#198,#109,.T.);
#246=EDGE_CURVE('',#198,#199,#110,.T.);
#247=EDGE_CURVE('',#199,#200,#111,.T.);
#248=EDGE_CURVE('',#200,#197,#112,.T.);
#249=EDGE_CURVE('',#201,#198,#113,.T.);
#250=EDGE_CURVE('',#202,#201,#114,.T.);
#251=EDGE_CURVE('',#199,#202,#115,.T.);
#252=EDGE_CURVE('',#203,#202,#116,.T.);
#253=EDGE_CURVE('',#200,#203,#117,.T.);
#254=EDGE_CURVE('',#204,#203,#118,.T.);
#255=EDGE_CURVE('',#197,#204,#119,.T.);
#256=EDGE_CURVE('',#201,#204,#120,.T.);
#257=ORIENTED_EDGE('',*,*,#205,.F.);
#258=ORIENTED_EDGE('',*,*,#206,.F.);
#259=ORIENTED_EDGE('',*,*,#207,.F.);
#260=ORIENTED_EDGE('',*,*,#208,.F.);
#261=ORIENTED_EDGE('',*,*,#209,.F.);
#262=ORIENTED_EDGE('',*,*,#210,.F.);
#263=ORIENTED_EDGE('',*,*,#211,.F.);
#264=ORIENTED_EDGE('',*,*,#212,.F.);
#265=ORIENTED_EDGE('',*,*,#210,.T.);
#266=ORIENTED_EDGE('',*,*,#213,.T.);
#267=ORIENTED_EDGE('',*,*,#214,.T.);
#268=ORIENTED_EDGE('',*,*,#215,.F.);
#269=ORIENTED_EDGE('',*,*,#209,.T.);
#270=ORIENTED_EDGE('',*,*,#216,.T.);
#271=ORIENTED_EDGE('',*,*,#217,.T.);
#272=ORIENTED_EDGE('',*,*,#213,.F.);
#273=ORIENTED_EDGE('',*,*,#206,.T.);
#274=ORIENTED_EDGE('',*,*,#218,.T.);
#275=ORIENTED_EDGE('',*,*,#219,.F.);
#276=ORIENTED_EDGE('',*,*,#220,.F.);
#277=ORIENTED_EDGE('',*,*,#205,.T.);
#278=ORIENTED_EDGE('',*,*,#221,.T.);
#279=ORIENTED_EDGE('',*,*,#222,.F.);
#280=ORIENTED_EDGE('',*,*,#218,.F.);
#281=ORIENTED_EDGE('',*,*,#223,.F.);
#282=ORIENTED_EDGE('',*,*,#224,.T.);
#283=ORIENTED_EDGE('',*,*,#225,.F.);
#284=ORIENTED_EDGE('',*,*,#226,.F.);
#285=ORIENTED_EDGE('',*,*,#227,.F.);
#286=ORIENTED_EDGE('',*,*,#226,.T.);
#287=ORIENTED_EDGE('',*,*,#228,.F.);
#288=ORIENTED_EDGE('',*,*,#229,.F.);
#289=ORIENTED_EDGE('',*,*,#230,.F.);
#290=ORIENTED_EDGE('',*,*,#229,.T.);
#291=ORIENTED_EDGE('',*,*,#214,.F.);
#292=ORIENTED_EDGE('',*,*,#231,.F.);
#293=ORIENTED_EDGE('',*,*,#217,.F.);
#294=ORIENTED_EDGE('',*,*,#224,.F.);
#295=ORIENTED_EDGE('',*,*,#232,.F.);
#296=ORIENTED_EDGE('',*,*,#231,.T.);
#297=ORIENTED_EDGE('',*,*,#212,.T.);
#298=ORIENTED_EDGE('',*,*,#233,.T.);
#299=ORIENTED_EDGE('',*,*,#225,.T.);
#300=ORIENTED_EDGE('',*,*,#216,.F.);
#301=ORIENTED_EDGE('',*,*,#223,.T.);
#302=ORIENTED_EDGE('',*,*,#227,.T.);
#303=ORIENTED_EDGE('',*,*,#230,.T.);
#304=ORIENTED_EDGE('',*,*,#232,.T.);
#305=ORIENTED_EDGE('',*,*,#211,.T.);
#306=ORIENTED_EDGE('',*,*,#215,.T.);
#307=ORIENTED_EDGE('',*,*,#228,.T.);
#308=ORIENTED_EDGE('',*,*,#233,.F.);
#309=ORIENTED_EDGE('',*,*,#234,.T.);
#310=ORIENTED_EDGE('',*,*,#235,.T.);
#311=ORIENTED_EDGE('',*,*,#222,.T.);
#312=ORIENTED_EDGE('',*,*,#236,.F.);
#313=ORIENTED_EDGE('',*,*,#237,.T.);
#314=ORIENTED_EDGE('',*,*,#238,.T.);
#315=ORIENTED_EDGE('',*,*,#219,.T.);
#316=ORIENTED_EDGE('',*,*,#235,.F.);
#317=ORIENTED_EDGE('',*,*,#239,.T.);
#318=ORIENTED_EDGE('',*,*,#240,.T.);
#319=ORIENTED_EDGE('',*,*,#241,.T.);
#320=ORIENTED_EDGE('',*,*,#238,.F.);
#321=ORIENTED_EDGE('',*,*,#242,.T.);
#322=ORIENTED_EDGE('',*,*,#240,.F.);
#323=ORIENTED_EDGE('',*,*,#243,.T.);
#324=ORIENTED_EDGE('',*,*,#236,.T.);
#325=ORIENTED_EDGE('',*,*,#208,.T.);
#326=ORIENTED_EDGE('',*,*,#244,.T.);
#327=ORIENTED_EDGE('',*,*,#242,.F.);
#328=ORIENTED_EDGE('',*,*,#221,.F.);
#329=ORIENTED_EDGE('',*,*,#234,.F.);
#330=ORIENTED_EDGE('',*,*,#243,.F.);
#331=ORIENTED_EDGE('',*,*,#239,.F.);
#332=ORIENTED_EDGE('',*,*,#237,.F.);
#333=ORIENTED_EDGE('',*,*,#207,.T.);
#334=ORIENTED_EDGE('',*,*,#220,.T.);
#335=ORIENTED_EDGE('',*,*,#241,.F.);
#336=ORIENTED_EDGE('',*,*,#244,.F.);
#337=ORIENTED_EDGE('',*,*,#245,.T.);
#338=ORIENTED_EDGE('',*,*,#246,.T.);
#339=ORIENTED_EDGE('',*,*,#247,.T.);
#340=ORIENTED_EDGE('',*,*,#248,.T.);
#341=ORIENTED_EDGE('',*,*,#249,.F.);
#342=ORIENTED_EDGE('',*,*,#250,.F.);
#343=ORIENTED_EDGE('',*,*,#251,.F.);
#344=ORIENTED_EDGE('',*,*,#246,.F.);
#345=ORIENTED_EDGE('',*,*,#251,.T.);
#346=ORIENTED_EDGE('',*,*,#252,.F.);
#347=ORIENTED_EDGE('',*,*,#253,.F.);
#348=ORIENTED_EDGE('',*,*,#247,.F.);
#349=ORIENTED_EDGE('',*,*,#253,.T.);
#350=ORIENTED_EDGE('',*,*,#254,.F.);
#351=ORIENTED_EDGE('',*,*,#255,.F.);
#352=ORIENTED_EDGE('',*,*,#248,.F.);
#353=ORIENTED_EDGE('',*,*,#255,.T.);
#354=ORIENTED_EDGE('',*,*,#256,.F.);
#355=ORIENTED_EDGE('',*,*,#249,.T.);
#356=ORIENTED_EDGE('',*,*,#245,.F.);
#357=ORIENTED_EDGE('',*,*,#256,.T.);
#358=ORIENTED_EDGE('',*,*,#254,.T.);
#359=ORIENTED_EDGE('',*,*,#252,.T.);
#360=ORIENTED_EDGE('',*,*,#250,.T.);
#361=PLANE('',#426);
#362=PLANE('',#427);
#363=PLANE('',#428);
#364=PLANE('',#429);
#365=PLANE('',#430);
#366=PLANE('',#431);
#367=PLANE('',#432);
#368=PLANE('',#433);
#369=PLANE('',#434);
#370=PLANE('',#435);
#371=PLANE('',#436);
#372=PLANE('',#437);
#373=PLANE('',#438);
#374=PLANE('',#439);
#375=PLANE('',#440);
#376=PLANE('',#441);
#377=PLANE('',#442);
#378=PLANE('',#443);
#379=PLANE('',#444);
#380=PLANE('',#445);
#381=PLANE('',#446);
#382=PLANE('',#447);
#383=PLANE('',#448);
#384=PLANE('',#449);
#385=PLANE('',#450);
#386=ADVANCED_FACE('',(#18,#17),#361,.F.);
#387=ADVANCED_FACE('',(#19),#362,.F.);
#388=ADVANCED_FACE('',(#20),#363,.F.);
#389=ADVANCED_FACE('',(#21),#364,.T.);
#390=ADVANCED_FACE('',(#22),#365,.T.);
#391=ADVANCED_FACE('',(#23),#366,.F.);
#392=ADVANCED_FACE('',(#24),#367,.F.);
#393=ADVANCED_FACE('',(#25),#368,.F.);
#394=ADVANCED_FACE('',(#26),#369,.F.);
#395=ADVANCED_FACE('',(#27),#370,.F.);
#396=ADVANCED_FACE('',(#28),#371,.F.);
#397=ADVANCED_FACE('',(#29),#372,.F.);
#398=ADVANCED_FACE('',(#30),#373,.T.);
#399=ADVANCED_FACE('',(#31),#374,.T.);
#400=ADVANCED_FACE('',(#32),#375,.T.);
#401=ADVANCED_FACE('',(#33),#376,.T.);
#402=ADVANCED_FACE('',(#34),#377,.T.);
#403=ADVANCED_FACE('',(#35),#378,.T.);
#404=ADVANCED_FACE('',(#36),#379,.T.);
#405=ADVANCED_FACE('',(#37),#380,.T.);
#406=ADVANCED_FACE('',(#38),#381,.T.);
#407=ADVANCED_FACE('',(#39),#382,.T.);
#408=ADVANCED_FACE('',(#40),#383,.T.);
#409=ADVANCED_FACE('',(#41),#384,.T.);
#410=ADVANCED_FACE('',(#42),#385,.T.);
#411=CLOSED_SHELL('',(#386,#387,#388,#389,#390,#391,#392,#393,#394,#395,
#396,#397,#398,#399,#400,#401,#402,#403,#404));
#412=CLOSED_SHELL('',(#405,#406,#407,#408,#409,#410));
#413=DERIVED_UNIT_ELEMENT(#415,1.);
#414=DERIVED_UNIT_ELEMENT(#670,-3.);
#415=(
MASS_UNIT()
NAMED_UNIT(*)
SI_UNIT(.KILO.,.GRAM.)
);
#416=DERIVED_UNIT((#413,#414));
#417=MEASURE_REPRESENTATION_ITEM('density measure',
POSITIVE_RATIO_MEASURE(7850.),#416);
#418=PROPERTY_DEFINITION_REPRESENTATION(#423,#420);
#419=PROPERTY_DEFINITION_REPRESENTATION(#424,#421);
#420=REPRESENTATION('material name',(#422),#667);
#421=REPRESENTATION('density',(#417),#667);
#422=DESCRIPTIVE_REPRESENTATION_ITEM('Steel','Steel');
#423=PROPERTY_DEFINITION('material property','material name',#677);
#424=PROPERTY_DEFINITION('material property','density of part',#677);
#425=AXIS2_PLACEMENT_3D('',#555,#451,#452);
#426=AXIS2_PLACEMENT_3D('',#556,#453,#454);
#427=AXIS2_PLACEMENT_3D('',#573,#463,#464);
#428=AXIS2_PLACEMENT_3D('',#579,#468,#469);
#429=AXIS2_PLACEMENT_3D('',#583,#472,#473);
#430=AXIS2_PLACEMENT_3D('',#589,#477,#478);
#431=AXIS2_PLACEMENT_3D('',#593,#481,#482);
#432=AXIS2_PLACEMENT_3D('',#601,#487,#488);
#433=AXIS2_PLACEMENT_3D('',#606,#492,#493);
#434=AXIS2_PLACEMENT_3D('',#610,#496,#497);
#435=AXIS2_PLACEMENT_3D('',#612,#499,#500);
#436=AXIS2_PLACEMENT_3D('',#614,#502,#503);
#437=AXIS2_PLACEMENT_3D('',#615,#504,#505);
#438=AXIS2_PLACEMENT_3D('',#616,#506,#507);
#439=AXIS2_PLACEMENT_3D('',#622,#511,#512);
#440=AXIS2_PLACEMENT_3D('',#626,#515,#516);
#441=AXIS2_PLACEMENT_3D('',#632,#520,#521);
#442=AXIS2_PLACEMENT_3D('',#635,#524,#525);
#443=AXIS2_PLACEMENT_3D('',#637,#527,#528);
#444=AXIS2_PLACEMENT_3D('',#638,#529,#530);
#445=AXIS2_PLACEMENT_3D('',#639,#531,#532);
#446=AXIS2_PLACEMENT_3D('',#648,#537,#538);
#447=AXIS2_PLACEMENT_3D('',#654,#542,#543);
#448=AXIS2_PLACEMENT_3D('',#658,#546,#547);
#449=AXIS2_PLACEMENT_3D('',#662,#550,#551);
#450=AXIS2_PLACEMENT_3D('',#664,#553,#554);
#451=DIRECTION('axis',(0.,0.,1.));
#452=DIRECTION('refdir',(1.,0.,0.));
#453=DIRECTION('center_axis',(0.,1.,0.));
#454=DIRECTION('ref_axis',(0.,0.,1.));
#455=DIRECTION('',(-1.,0.,0.));
#456=DIRECTION('',(0.,0.,-1.));
#457=DIRECTION('',(1.,0.,0.));
#458=DIRECTION('',(0.,0.,1.));
#459=DIRECTION('',(0.,0.,-1.));
#460=DIRECTION('',(-1.,0.,0.));
#461=DIRECTION('',(0.,0.,1.));
#462=DIRECTION('',(1.,0.,0.));
#463=DIRECTION('center_axis',(0.,0.,1.));
#464=DIRECTION('ref_axis',(1.,0.,0.));
#465=DIRECTION('',(0.,1.,0.));
#466=DIRECTION('',(1.,0.,0.));
#467=DIRECTION('',(0.,-1.,0.));
#468=DIRECTION('center_axis',(-1.,0.,0.));
#469=DIRECTION('ref_axis',(0.,0.,1.));
#470=DIRECTION('',(0.,-1.,0.));
#471=DIRECTION('',(0.,0.,1.));
#472=DIRECTION('center_axis',(1.,0.,0.));
#473=DIRECTION('ref_axis',(0.,0.,-1.));
#474=DIRECTION('',(0.,1.,0.));
#475=DIRECTION('',(0.,0.,-1.));
#476=DIRECTION('',(0.,1.,0.));
#477=DIRECTION('center_axis',(0.,0.,-1.));
#478=DIRECTION('ref_axis',(-1.,0.,0.));
#479=DIRECTION('',(0.,1.,0.));
#480=DIRECTION('',(-1.,0.,0.));
#481=DIRECTION('center_axis',(0.,0.707106781186548,-0.707106781186548));
#482=DIRECTION('ref_axis',(-1.,0.,0.));
#483=DIRECTION('',(1.,0.,0.));
#484=DIRECTION('',(0.577350269189626,0.577350269189626,0.577350269189626));
#485=DIRECTION('',(-1.,0.,0.));
#486=DIRECTION('',(0.577350269189626,-0.577350269189626,-0.577350269189626));
#487=DIRECTION('center_axis',(0.707106781186548,0.707106781186548,0.));
#488=DIRECTION('ref_axis',(0.,0.,-1.));
#489=DIRECTION('',(0.,0.,1.));
#490=DIRECTION('',(0.,0.,-1.));
#491=DIRECTION('',(0.577350269189626,-0.577350269189626,0.577350269189626));
#492=DIRECTION('center_axis',(0.,0.707106781186548,0.707106781186548));
#493=DIRECTION('ref_axis',(1.,0.,0.));
#494=DIRECTION('',(-1.,0.,0.));
#495=DIRECTION('',(-0.577350269189626,-0.577350269189626,0.577350269189626));
#496=DIRECTION('center_axis',(-0.707106781186548,0.707106781186548,0.));
#497=DIRECTION('ref_axis',(0.,0.,1.));
#498=DIRECTION('',(0.,0.,-1.));
#499=DIRECTION('center_axis',(0.,0.,-1.));
#500=DIRECTION('ref_axis',(-1.,0.,0.));
#501=DIRECTION('',(0.,-1.,0.));
#502=DIRECTION('center_axis',(0.,1.,0.));
#503=DIRECTION('ref_axis',(0.,0.,1.));
#504=DIRECTION('center_axis',(1.,0.,0.));
#505=DIRECTION('ref_axis',(0.,0.,-1.));
#506=DIRECTION('center_axis',(0.,0.707106781186548,-0.707106781186548));
#507=DIRECTION('ref_axis',(-1.,0.,0.));
#508=DIRECTION('',(1.,0.,0.));
#509=DIRECTION('',(0.577350269189627,-0.577350269189627,-0.577350269189624));
#510=DIRECTION('',(-0.577350269189626,-0.577350269189626,-0.577350269189626));
#511=DIRECTION('center_axis',(0.707106781186548,0.707106781186548,0.));
#512=DIRECTION('ref_axis',(0.,0.,-1.));
#513=DIRECTION('',(0.,0.,1.));
#514=DIRECTION('',(0.577350269189626,-0.577350269189626,0.577350269189626));
#515=DIRECTION('center_axis',(0.,0.707106781186548,0.707106781186548));
#516=DIRECTION('ref_axis',(1.,0.,0.));
#517=DIRECTION('',(-1.,0.,0.));
#518=DIRECTION('',(-0.577350269189627,-0.577350269189627,0.577350269189624));
#519=DIRECTION('',(1.,0.,0.));
#520=DIRECTION('center_axis',(-0.707106781186548,0.707106781186548,0.));
#521=DIRECTION('ref_axis',(0.,0.,1.));
#522=DIRECTION('',(0.,0.,1.));
#523=DIRECTION('',(0.,0.,-1.));
#524=DIRECTION('center_axis',(-1.,0.,0.));
#525=DIRECTION('ref_axis',(0.,0.,1.));
#526=DIRECTION('',(0.,1.,0.));
#527=DIRECTION('center_axis',(0.,1.,0.));
#528=DIRECTION('ref_axis',(0.,0.,1.));
#529=DIRECTION('center_axis',(0.,0.,1.));
#530=DIRECTION('ref_axis',(1.,0.,0.));
#531=DIRECTION('center_axis',(0.,1.,0.));
#532=DIRECTION('ref_axis',(0.,0.,1.));
#533=DIRECTION('',(-1.,0.,0.));
#534=DIRECTION('',(0.,0.,1.));
#535=DIRECTION('',(1.,0.,0.));
#536=DIRECTION('',(0.,0.,-1.));
#537=DIRECTION('center_axis',(-1.,0.,0.));
#538=DIRECTION('ref_axis',(0.,0.,-1.));
#539=DIRECTION('',(0.,1.,0.));
#540=DIRECTION('',(0.,0.,-1.));
#541=DIRECTION('',(0.,-1.,0.));
#542=DIRECTION('center_axis',(0.,0.,1.));
#543=DIRECTION('ref_axis',(-1.,0.,0.));
#544=DIRECTION('',(-1.,0.,0.));
#545=DIRECTION('',(0.,-1.,0.));
#546=DIRECTION('center_axis',(1.,0.,0.));
#547=DIRECTION('ref_axis',(0.,0.,1.));
#548=DIRECTION('',(0.,0.,1.));
#549=DIRECTION('',(0.,-1.,0.));
#550=DIRECTION('center_axis',(0.,0.,-1.));
#551=DIRECTION('ref_axis',(1.,0.,0.));
#552=DIRECTION('',(1.,0.,0.));
#553=DIRECTION('center_axis',(0.,-1.,0.));
#554=DIRECTION('ref_axis',(0.,0.,-1.));
#555=CARTESIAN_POINT('',(0.,0.,0.));
#556=CARTESIAN_POINT('Origin',(0.25,0.28,0.25));
#557=CARTESIAN_POINT('',(0.5,0.28,-0.5));
#558=CARTESIAN_POINT('',(-0.5,0.28,-0.5));
#559=CARTESIAN_POINT('',(0.625,0.28,-0.5));
#560=CARTESIAN_POINT('',(0.5,0.28,0.5));
#561=CARTESIAN_POINT('',(0.5,0.28,0.625));
#562=CARTESIAN_POINT('',(-0.5,0.28,0.5));
#563=CARTESIAN_POINT('',(-0.125,0.28,0.5));
#564=CARTESIAN_POINT('',(-0.5,0.28,-0.125));
#565=CARTESIAN_POINT('',(-0.45,0.28,0.45));
#566=CARTESIAN_POINT('',(-0.45,0.28,-0.45));
#567=CARTESIAN_POINT('',(-0.45,0.28,-0.125));
#568=CARTESIAN_POINT('',(0.45,0.28,0.45));
#569=CARTESIAN_POINT('',(-0.125,0.28,0.45));
#570=CARTESIAN_POINT('',(0.45,0.28,-0.45));
#571=CARTESIAN_POINT('',(0.45,0.28,0.625));
#572=CARTESIAN_POINT('',(0.625,0.28,-0.45));
#573=CARTESIAN_POINT('Origin',(-0.5,0.,0.45));
#574=CARTESIAN_POINT('',(-0.45,0.599289321881345,0.45));
#575=CARTESIAN_POINT('',(-0.45,0.,0.45));
#576=CARTESIAN_POINT('',(0.45,0.599289321881345,0.45));
#577=CARTESIAN_POINT('',(-0.3125,0.599289321881345,0.45));
#578=CARTESIAN_POINT('',(0.45,0.,0.45));
#579=CARTESIAN_POINT('Origin',(-0.45,0.,-0.5));
#580=CARTESIAN_POINT('',(-0.45,0.599289321881345,-0.45));
#581=CARTESIAN_POINT('',(-0.45,0.,-0.45));
#582=CARTESIAN_POINT('',(-0.45,0.599289321881345,-0.3125));
#583=CARTESIAN_POINT('Origin',(0.5,0.,1.));
#584=CARTESIAN_POINT('',(0.5,0.77,-0.5));
#585=CARTESIAN_POINT('',(0.5,0.,-0.5));
#586=CARTESIAN_POINT('',(0.5,0.77,0.5));
#587=CARTESIAN_POINT('',(0.5,0.77,0.625));
#588=CARTESIAN_POINT('',(0.5,0.,0.5));
#589=CARTESIAN_POINT('Origin',(1.,0.,-0.5));
#590=CARTESIAN_POINT('',(-0.5,0.77,-0.5));
#591=CARTESIAN_POINT('',(-0.5,0.,-0.5));
#592=CARTESIAN_POINT('',(0.625,0.77,-0.5));
#593=CARTESIAN_POINT('Origin',(0.625,0.599644660940673,-0.449644660940673));
#594=CARTESIAN_POINT('',(-0.449289321881345,0.6,-0.449289321881345));
#595=CARTESIAN_POINT('',(0.449289321881345,0.6,-0.449289321881346));
#596=CARTESIAN_POINT('',(0.4375,0.6,-0.449289321881345));
#597=CARTESIAN_POINT('',(-0.216429773960448,0.832859547920897,-0.216429773960449));
#598=CARTESIAN_POINT('',(0.45,0.599289321881345,-0.45));
#599=CARTESIAN_POINT('',(0.8125,0.599289321881345,-0.45));
#600=CARTESIAN_POINT('',(0.216429773960448,0.832859547920897,-0.216429773960448));
#601=CARTESIAN_POINT('Origin',(0.449644660940672,0.599644660940673,0.625));
#602=CARTESIAN_POINT('',(0.449289321881345,0.6,0.449289321881345));
#603=CARTESIAN_POINT('',(0.449289321881345,0.6,0.4375));
#604=CARTESIAN_POINT('',(0.45,0.599289321881345,0.8125));
#605=CARTESIAN_POINT('',(0.216429773960448,0.832859547920897,0.216429773960449));
#606=CARTESIAN_POINT('Origin',(-0.125,0.599644660940673,0.449644660940673));
#607=CARTESIAN_POINT('',(-0.449289321881345,0.6,0.449289321881346));
#608=CARTESIAN_POINT('',(0.0625000000000001,0.6,0.449289321881345));
#609=CARTESIAN_POINT('',(-0.216429773960448,0.832859547920897,0.216429773960448));
#610=CARTESIAN_POINT('Origin',(-0.449644660940672,0.599644660940673,-0.125));
#611=CARTESIAN_POINT('',(-0.449289321881345,0.6,0.0625));
#612=CARTESIAN_POINT('Origin',(1.,0.,-0.45));
#613=CARTESIAN_POINT('',(0.45,0.,-0.45));
#614=CARTESIAN_POINT('Origin',(0.25,0.6,0.25));
#615=CARTESIAN_POINT('Origin',(0.45,0.,1.));
#616=CARTESIAN_POINT('Origin',(0.625,0.785,-0.485));
#617=CARTESIAN_POINT('',(-0.47,0.8,-0.47));
#618=CARTESIAN_POINT('',(0.47,0.8,-0.47));
#619=CARTESIAN_POINT('',(0.625,0.8,-0.47));
#620=CARTESIAN_POINT('',(0.47,0.8,-0.47));
#621=CARTESIAN_POINT('',(-0.47,0.8,-0.47));
#622=CARTESIAN_POINT('Origin',(0.485,0.785,0.625));
#623=CARTESIAN_POINT('',(0.47,0.8,0.47));
#624=CARTESIAN_POINT('',(0.47,0.8,0.625));
#625=CARTESIAN_POINT('',(0.47,0.8,0.47));
#626=CARTESIAN_POINT('Origin',(-0.125,0.785,0.485));
#627=CARTESIAN_POINT('',(-0.47,0.8,0.47));
#628=CARTESIAN_POINT('',(-0.125,0.8,0.47));
#629=CARTESIAN_POINT('',(-0.5,0.77,0.5));
#630=CARTESIAN_POINT('',(-0.47,0.8,0.47));
#631=CARTESIAN_POINT('',(-0.125,0.77,0.5));
#632=CARTESIAN_POINT('Origin',(-0.485,0.785,-0.125));
#633=CARTESIAN_POINT('',(-0.5,0.77,-0.125));
#634=CARTESIAN_POINT('',(-0.47,0.8,-0.125));
#635=CARTESIAN_POINT('Origin',(-0.5,0.,-0.5));
#636=CARTESIAN_POINT('',(-0.5,0.,0.5));
#637=CARTESIAN_POINT('Origin',(0.25,0.8,0.25));
#638=CARTESIAN_POINT('Origin',(-0.5,0.,0.5));
#639=CARTESIAN_POINT('Origin',(0.,0.28,0.));
#640=CARTESIAN_POINT('',(0.5,0.28,-0.5));
#641=CARTESIAN_POINT('',(-0.5,0.28,-0.5));
#642=CARTESIAN_POINT('',(-0.75,0.28,-0.5));
#643=CARTESIAN_POINT('',(-0.5,0.28,0.5));
#644=CARTESIAN_POINT('',(-0.5,0.28,0.75));
#645=CARTESIAN_POINT('',(0.5,0.28,0.5));
#646=CARTESIAN_POINT('',(0.75,0.28,0.5));
#647=CARTESIAN_POINT('',(0.5,0.28,-0.75));
#648=CARTESIAN_POINT('Origin',(-0.5,0.2,0.75));
#649=CARTESIAN_POINT('',(-0.5,0.,-0.5));
#650=CARTESIAN_POINT('',(-0.5,0.2,-0.5));
#651=CARTESIAN_POINT('',(-0.5,0.,0.5));
#652=CARTESIAN_POINT('',(-0.5,0.,0.75));
#653=CARTESIAN_POINT('',(-0.5,0.2,0.5));
#654=CARTESIAN_POINT('Origin',(0.75,0.2,0.5));
#655=CARTESIAN_POINT('',(0.5,0.,0.5));
#656=CARTESIAN_POINT('',(0.75,0.,0.5));
#657=CARTESIAN_POINT('',(0.5,0.2,0.5));
#658=CARTESIAN_POINT('Origin',(0.5,0.2,-0.75));
#659=CARTESIAN_POINT('',(0.5,0.,-0.5));
#660=CARTESIAN_POINT('',(0.5,0.,-0.75));
#661=CARTESIAN_POINT('',(0.5,0.2,-0.5));
#662=CARTESIAN_POINT('Origin',(-0.75,0.2,-0.5));
#663=CARTESIAN_POINT('',(-0.75,0.,-0.5));
#664=CARTESIAN_POINT('Origin',(0.,0.,0.));
#665=UNCERTAINTY_MEASURE_WITH_UNIT(LENGTH_MEASURE(0.01),#669,
'DISTANCE_ACCURACY_VALUE',
'Maximum model space distance between geometric entities at asserted c
onnectivities');
#666=UNCERTAINTY_MEASURE_WITH_UNIT(LENGTH_MEASURE(0.01),#669,
'DISTANCE_ACCURACY_VALUE',
'Maximum model space distance between geometric entities at asserted c
onnectivities');
#667=(
GEOMETRIC_REPRESENTATION_CONTEXT(3)
GLOBAL_UNCERTAINTY_ASSIGNED_CONTEXT((#665))
GLOBAL_UNIT_ASSIGNED_CONTEXT((#669,#671,#672))
REPRESENTATION_CONTEXT('','3D')
);
#668=(
GEOMETRIC_REPRESENTATION_CONTEXT(3)
GLOBAL_UNCERTAINTY_ASSIGNED_CONTEXT((#666))
GLOBAL_UNIT_ASSIGNED_CONTEXT((#669,#671,#672))
REPRESENTATION_CONTEXT('','3D')
);
#669=(
LENGTH_UNIT()
NAMED_UNIT(*)
SI_UNIT(.MILLI.,.METRE.)
);
#670=(
LENGTH_UNIT()
NAMED_UNIT(*)
SI_UNIT($,.METRE.)
);
#671=(
NAMED_UNIT(*)
PLANE_ANGLE_UNIT()
SI_UNIT($,.RADIAN.)
);
#672=(
NAMED_UNIT(*)
SI_UNIT($,.STERADIAN.)
SOLID_ANGLE_UNIT()
);
#673=SHAPE_DEFINITION_REPRESENTATION(#674,#675);
#674=PRODUCT_DEFINITION_SHAPE('',$,#677);
#675=SHAPE_REPRESENTATION('',(#425),#667);
#676=PRODUCT_DEFINITION_CONTEXT('part definition',#681,'design');
#677=PRODUCT_DEFINITION('2026-05-03-07-28-34-961','RGB_LED_1010',#678,#676);
#678=PRODUCT_DEFINITION_FORMATION('',$,#683);
#679=PRODUCT_RELATED_PRODUCT_CATEGORY('RGB_LED_1010','RGB_LED_1010',(#683));
#680=APPLICATION_PROTOCOL_DEFINITION('international standard',
'automotive_design',2009,#681);
#681=APPLICATION_CONTEXT(
'Core Data for Automotive Mechanical Design Process');
#682=PRODUCT_CONTEXT('part definition',#681,'mechanical');
#683=PRODUCT('2026-05-03-07-28-34-961','RGB_LED_1010',$,(#682));
#684=PRESENTATION_STYLE_ASSIGNMENT((#687));
#685=PRESENTATION_STYLE_ASSIGNMENT((#688));
#686=PRESENTATION_STYLE_ASSIGNMENT((#689));
#687=SURFACE_STYLE_USAGE(.BOTH.,#690);
#688=SURFACE_STYLE_USAGE(.BOTH.,#691);
#689=SURFACE_STYLE_USAGE(.BOTH.,#692);
#690=SURFACE_SIDE_STYLE('',(#693));
#691=SURFACE_SIDE_STYLE('',(#694));
#692=SURFACE_SIDE_STYLE('',(#695));
#693=SURFACE_STYLE_FILL_AREA(#696);
#694=SURFACE_STYLE_FILL_AREA(#697);
#695=SURFACE_STYLE_FILL_AREA(#698);
#696=FILL_AREA_STYLE('Steel - Satin',(#699));
#697=FILL_AREA_STYLE('Acrylic (Clear)',(#700));
#698=FILL_AREA_STYLE(
'PEKK - Polyetherketoneketone Reinforced With Carbon Fibers - HT-23 (w
ith EOS P 810 3D Printer)',(#701));
#699=FILL_AREA_STYLE_COLOUR('Steel - Satin',#702);
#700=FILL_AREA_STYLE_COLOUR('Acrylic (Clear)',#703);
#701=FILL_AREA_STYLE_COLOUR(
'PEKK - Polyetherketoneketone Reinforced With Carbon Fibers - HT-23 (w
ith EOS P 810 3D Printer)',#704);
#702=COLOUR_RGB('Steel - Satin',0.627450980392157,0.627450980392157,0.627450980392157);
#703=COLOUR_RGB('Acrylic (Clear)',0.650980392156863,0.650980392156863,0.650980392156863);
#704=COLOUR_RGB(
'PEKK - Polyetherketoneketone Reinforced With Carbon Fibers - HT-23 (w
ith EOS P 810 3D Printer)',0.352941176470588,0.352941176470588,0.352941176470588);
ENDSEC;
END-ISO-10303-21;
