ISO-10303-21;
HEADER;
/* Generated by software containing ST-Developer
 * from STEP Tools, Inc. (www.steptools.com) 
 */

FILE_DESCRIPTION(
/* description */ (''),
/* implementation_level */ '2;1');

FILE_NAME(
/* name */ 'Side_switch v7.step',
/* time_stamp */ '2024-04-03T16:54:49+11:00',
/* author */ (''),
/* organization */ (''),
/* preprocessor_version */ 'ST-DEVELOPER v20',
/* originating_system */ 'Autodesk Translation Framework v12.20.1.177',

/* authorisation */ '');

FILE_SCHEMA (('AUTOMOTIVE_DESIGN { 1 0 10303 214 3 1 1 }'));
ENDSEC;

DATA;
#10=MECHANICAL_DESIGN_GEOMETRIC_PRESENTATION_REPRESENTATION('',(#20,#21,
#22,#23,#24,#25,#26,#27,#28,#29,#30,#31,#32,#33,#34,#35,#36,#37,#38,#39),
#1728);
#11=SHAPE_REPRESENTATION_RELATIONSHIP('SRR','None',#1735,#12);
#12=ADVANCED_BREP_SHAPE_REPRESENTATION('',(#40,#41,#42,#43,#44,#45,#46,
#47),#1727);
#13=(
BOUNDED_SURFACE()
B_SPLINE_SURFACE(2,2,((#1384,#1385,#1386,#1387,#1388,#1389,#1390,#1391,
#1392),(#1393,#1394,#1395,#1396,#1397,#1398,#1399,#1400,#1401),(#1402,#1403,
#1404,#1405,#1406,#1407,#1408,#1409,#1410)),.UNSPECIFIED.,.F.,.T.,.F.)
B_SPLINE_SURFACE_WITH_KNOTS((3,3),(3,2,2,2,3),(0.201152455907938,1.59096032234592),
(-3.14159265358979,-1.5707963267949,0.,1.5707963267949,3.14159265358979),
 .UNSPECIFIED.)
GEOMETRIC_REPRESENTATION_ITEM()
RATIONAL_B_SPLINE_SURFACE(((1.,0.707106781186548,1.,0.707106781186548,1.,
0.707106781186548,1.,0.707106781186548,1.),(0.768115218015635,0.543139479391439,
0.768115218015635,0.543139479391439,0.768115218015635,0.543139479391439,
0.768115218015635,0.543139479391439,0.768115218015635),(1.,0.707106781186548,
1.,0.707106781186548,1.,0.707106781186548,1.,0.707106781186548,1.)))
REPRESENTATION_ITEM('')
SURFACE()
);
#14=(
BOUNDED_SURFACE()
B_SPLINE_SURFACE(2,2,((#1413,#1414,#1415,#1416,#1417,#1418,#1419,#1420,
#1421),(#1422,#1423,#1424,#1425,#1426,#1427,#1428,#1429,#1430),(#1431,#1432,
#1433,#1434,#1435,#1436,#1437,#1438,#1439)),.UNSPECIFIED.,.F.,.T.,.F.)
B_SPLINE_SURFACE_WITH_KNOTS((3,3),(3,2,2,2,3),(0.201152455931726,1.59096032234477),
(-3.14159265358979,-1.5707963267949,0.,1.5707963267949,3.14159265358979),
 .UNSPECIFIED.)
GEOMETRIC_REPRESENTATION_ITEM()
RATIONAL_B_SPLINE_SURFACE(((1.,0.707106781186548,1.,0.707106781186548,1.,
0.707106781186548,1.,0.707106781186548,1.),(0.768115218023624,0.543139479397088,
0.768115218023624,0.543139479397088,0.768115218023624,0.543139479397088,
0.768115218023624,0.543139479397088,0.768115218023624),(1.,0.707106781186548,
1.,0.707106781186548,1.,0.707106781186548,1.,0.707106781186548,1.)))
REPRESENTATION_ITEM('')
SURFACE()
);
#15=(
BOUNDED_SURFACE()
B_SPLINE_SURFACE(2,2,((#1450,#1451,#1452,#1453,#1454,#1455,#1456),(#1457,
#1458,#1459,#1460,#1461,#1462,#1463),(#1464,#1465,#1466,#1467,#1468,#1469,
#1470)),.UNSPECIFIED.,.F.,.F.,.F.)
B_SPLINE_SURFACE_WITH_KNOTS((3,3),(3,2,2,3),(0.20115245500613,1.59096032234645),
(-1.59656784926859,-0.53642290998797,0.523722029292649,1.58386696857327),
 .UNSPECIFIED.)
GEOMETRIC_REPRESENTATION_ITEM()
RATIONAL_B_SPLINE_SURFACE(((1.,0.862770432429725,1.,0.862770432429725,1.,
0.862770432429725,1.),(0.768115217726746,0.662707098553957,0.768115217726746,
0.662707098553957,0.768115217726746,0.662707098553957,0.768115217726746),
(1.,0.862770432429725,1.,0.862770432429725,1.,0.862770432429725,1.)))
REPRESENTATION_ITEM('')
SURFACE()
);
#16=(
BOUNDED_SURFACE()
B_SPLINE_SURFACE(2,2,((#1474,#1475,#1476,#1477,#1478,#1479,#1480),(#1481,
#1482,#1483,#1484,#1485,#1486,#1487),(#1488,#1489,#1490,#1491,#1492,#1493,
#1494)),.UNSPECIFIED.,.F.,.F.,.F.)
B_SPLINE_SURFACE_WITH_KNOTS((3,3),(3,2,2,3),(0.201152455010517,1.59096032234627),
(-1.78299146334358,-0.715112086223445,0.352767290896687,1.42064666801682),
 .UNSPECIFIED.)
GEOMETRIC_REPRESENTATION_ITEM()
RATIONAL_B_SPLINE_SURFACE(((1.,0.860808735877206,1.,0.860808735877206,1.,
0.860808735877206,1.),(0.768115217728211,0.661200289580666,0.768115217728211,
0.661200289580666,0.768115217728211,0.661200289580666,0.768115217728211),
(1.,0.860808735877206,1.,0.860808735877206,1.,0.860808735877206,1.)))
REPRESENTATION_ITEM('')
SURFACE()
);
#17=(
BOUNDED_SURFACE()
B_SPLINE_SURFACE(2,2,((#1495,#1496,#1497,#1498,#1499,#1500,#1501),(#1502,
#1503,#1504,#1505,#1506,#1507,#1508),(#1509,#1510,#1511,#1512,#1513,#1514,
#1515)),.UNSPECIFIED.,.F.,.F.,.F.)
B_SPLINE_SURFACE_WITH_KNOTS((3,3),(3,2,2,3),(0.201152455006083,1.59096032234645),
(-1.57079700385908,-0.504370630929916,0.562055741999248,1.62848211492841),
 .UNSPECIFIED.)
GEOMETRIC_REPRESENTATION_ITEM()
RATIONAL_B_SPLINE_SURFACE(((1.,0.861178246369581,1.,0.861178246369581,1.,
0.861178246369581,1.),(0.768115217726735,0.661484116211699,0.768115217726735,
0.661484116211699,0.768115217726735,0.661484116211699,0.768115217726735),
(1.,0.861178246369581,1.,0.861178246369581,1.,0.861178246369581,1.)))
REPRESENTATION_ITEM('')
SURFACE()
);
#18=(
BOUNDED_SURFACE()
B_SPLINE_SURFACE(2,2,((#1522,#1523,#1524,#1525,#1526),(#1527,#1528,#1529,
#1530,#1531),(#1532,#1533,#1534,#1535,#1536)),.UNSPECIFIED.,.F.,.F.,.F.)
B_SPLINE_SURFACE_WITH_KNOTS((3,3),(3,2,3),(0.201152455013491,1.59096032234644),
(-1.78298988047795,-0.212193547934694,1.35860278460856),.UNSPECIFIED.)
GEOMETRIC_REPRESENTATION_ITEM()
RATIONAL_B_SPLINE_SURFACE(((1.,0.707106779154196,1.,0.707106779154196,1.),
(0.768115217729107,0.543139477627753,0.768115217729107,0.543139477627753,
0.768115217729107),(1.,0.707106779154196,1.,0.707106779154196,1.)))
REPRESENTATION_ITEM('')
SURFACE()
);
#19=TOROIDAL_SURFACE('',#982,0.7,0.3);
#20=STYLED_ITEM('',(#1745),#40);
#21=STYLED_ITEM('',(#1746),#41);
#22=STYLED_ITEM('',(#1746),#42);
#23=STYLED_ITEM('',(#1746),#43);
#24=STYLED_ITEM('',(#1746),#44);
#25=STYLED_ITEM('',(#1746),#45);
#26=STYLED_ITEM('',(#1745),#913);
#27=STYLED_ITEM('',(#1745),#914);
#28=STYLED_ITEM('',(#1745),#915);
#29=STYLED_ITEM('',(#1745),#916);
#30=STYLED_ITEM('',(#1745),#919);
#31=STYLED_ITEM('',(#1745),#920);
#32=STYLED_ITEM('',(#1745),#924);
#33=STYLED_ITEM('',(#1745),#925);
#34=STYLED_ITEM('',(#1745),#926);
#35=STYLED_ITEM('',(#1745),#927);
#36=STYLED_ITEM('',(#1745),#928);
#37=STYLED_ITEM('',(#1745),#938);
#38=STYLED_ITEM('',(#1746),#46);
#39=STYLED_ITEM('',(#1745),#47);
#40=MANIFOLD_SOLID_BREP('Body7',#949);
#41=MANIFOLD_SOLID_BREP('Body10',#950);
#42=MANIFOLD_SOLID_BREP('Body11',#951);
#43=MANIFOLD_SOLID_BREP('Body12',#952);
#44=MANIFOLD_SOLID_BREP('Body13',#953);
#45=MANIFOLD_SOLID_BREP('Body14',#954);
#46=MANIFOLD_SOLID_BREP('Body15',#955);
#47=MANIFOLD_SOLID_BREP('Body17',#956);
#48=CYLINDRICAL_SURFACE('',#975,0.25);
#49=CYLINDRICAL_SURFACE('',#978,0.25);
#50=CYLINDRICAL_SURFACE('',#986,1.);
#51=CYLINDRICAL_SURFACE('',#1024,0.2);
#52=CYLINDRICAL_SURFACE('',#1036,0.2);
#53=CYLINDRICAL_SURFACE('',#1038,0.2);
#54=CYLINDRICAL_SURFACE('',#1040,0.2);
#55=CYLINDRICAL_SURFACE('',#1042,0.2);
#56=CYLINDRICAL_SURFACE('',#1050,0.2);
#57=CYLINDRICAL_SURFACE('',#1053,0.2);
#58=CYLINDRICAL_SURFACE('',#1056,0.2);
#59=CIRCLE('',#972,0.25);
#60=CIRCLE('',#973,0.25);
#61=CIRCLE('',#976,0.25);
#62=CIRCLE('',#979,0.25);
#63=CIRCLE('',#983,0.7);
#64=CIRCLE('',#984,0.3);
#65=CIRCLE('',#985,1.);
#66=CIRCLE('',#987,1.);
#67=CIRCLE('',#991,0.4999997992876);
#68=CIRCLE('',#992,0.500000000000659);
#69=CIRCLE('',#993,0.4999997992876);
#70=CIRCLE('',#994,0.499999999999993);
#71=CIRCLE('',#997,0.4999997992876);
#72=CIRCLE('',#998,0.4999997992876);
#73=CIRCLE('',#999,0.5);
#74=CIRCLE('',#1000,0.5);
#75=CIRCLE('',#1001,0.4999997992876);
#76=CIRCLE('',#1002,0.5);
#77=CIRCLE('',#1003,0.5);
#78=CIRCLE('',#1004,0.4999997992876);
#79=CIRCLE('',#1015,0.2);
#80=CIRCLE('',#1017,0.2);
#81=CIRCLE('',#1025,0.2);
#82=CIRCLE('',#1026,0.2);
#83=CIRCLE('',#1028,0.2);
#84=CIRCLE('',#1029,0.2);
#85=CIRCLE('',#1030,0.2);
#86=CIRCLE('',#1033,0.2);
#87=CIRCLE('',#1034,0.2);
#88=CIRCLE('',#1035,0.2);
#89=CIRCLE('',#1043,0.2);
#90=CIRCLE('',#1044,0.2);
#91=CIRCLE('',#1047,0.2);
#92=CIRCLE('',#1048,0.2);
#93=CIRCLE('',#1049,0.2);
#94=CIRCLE('',#1051,0.2);
#95=CIRCLE('',#1054,0.2);
#96=CIRCLE('',#1057,0.2);
#97=FACE_OUTER_BOUND('',#155,.T.);
#98=FACE_OUTER_BOUND('',#156,.T.);
#99=FACE_OUTER_BOUND('',#157,.T.);
#100=FACE_OUTER_BOUND('',#158,.T.);
#101=FACE_OUTER_BOUND('',#159,.T.);
#102=FACE_OUTER_BOUND('',#160,.T.);
#103=FACE_OUTER_BOUND('',#161,.T.);
#104=FACE_OUTER_BOUND('',#162,.T.);
#105=FACE_OUTER_BOUND('',#163,.T.);
#106=FACE_OUTER_BOUND('',#164,.T.);
#107=FACE_OUTER_BOUND('',#165,.T.);
#108=FACE_OUTER_BOUND('',#166,.T.);
#109=FACE_OUTER_BOUND('',#167,.T.);
#110=FACE_OUTER_BOUND('',#168,.T.);
#111=FACE_OUTER_BOUND('',#169,.T.);
#112=FACE_OUTER_BOUND('',#170,.T.);
#113=FACE_OUTER_BOUND('',#171,.T.);
#114=FACE_OUTER_BOUND('',#172,.T.);
#115=FACE_OUTER_BOUND('',#173,.T.);
#116=FACE_OUTER_BOUND('',#174,.T.);
#117=FACE_OUTER_BOUND('',#175,.T.);
#118=FACE_OUTER_BOUND('',#176,.T.);
#119=FACE_OUTER_BOUND('',#177,.T.);
#120=FACE_OUTER_BOUND('',#178,.T.);
#121=FACE_OUTER_BOUND('',#179,.T.);
#122=FACE_OUTER_BOUND('',#180,.T.);
#123=FACE_OUTER_BOUND('',#181,.T.);
#124=FACE_OUTER_BOUND('',#182,.T.);
#125=FACE_OUTER_BOUND('',#183,.T.);
#126=FACE_OUTER_BOUND('',#184,.T.);
#127=FACE_OUTER_BOUND('',#185,.T.);
#128=FACE_OUTER_BOUND('',#186,.T.);
#129=FACE_OUTER_BOUND('',#187,.T.);
#130=FACE_OUTER_BOUND('',#188,.T.);
#131=FACE_OUTER_BOUND('',#189,.T.);
#132=FACE_OUTER_BOUND('',#190,.T.);
#133=FACE_OUTER_BOUND('',#191,.T.);
#134=FACE_OUTER_BOUND('',#192,.T.);
#135=FACE_OUTER_BOUND('',#193,.T.);
#136=FACE_OUTER_BOUND('',#194,.T.);
#137=FACE_OUTER_BOUND('',#195,.T.);
#138=FACE_OUTER_BOUND('',#196,.T.);
#139=FACE_OUTER_BOUND('',#197,.T.);
#140=FACE_OUTER_BOUND('',#198,.T.);
#141=FACE_OUTER_BOUND('',#199,.T.);
#142=FACE_OUTER_BOUND('',#200,.T.);
#143=FACE_OUTER_BOUND('',#201,.T.);
#144=FACE_OUTER_BOUND('',#202,.T.);
#145=FACE_OUTER_BOUND('',#203,.T.);
#146=FACE_OUTER_BOUND('',#204,.T.);
#147=FACE_OUTER_BOUND('',#205,.T.);
#148=FACE_OUTER_BOUND('',#206,.T.);
#149=FACE_OUTER_BOUND('',#207,.T.);
#150=FACE_OUTER_BOUND('',#208,.T.);
#151=FACE_OUTER_BOUND('',#209,.T.);
#152=FACE_OUTER_BOUND('',#210,.T.);
#153=FACE_OUTER_BOUND('',#211,.T.);
#154=FACE_OUTER_BOUND('',#212,.T.);
#155=EDGE_LOOP('',(#599,#600,#601,#602));
#156=EDGE_LOOP('',(#603,#604,#605,#606,#607,#608));
#157=EDGE_LOOP('',(#609,#610,#611,#612));
#158=EDGE_LOOP('',(#613,#614,#615,#616));
#159=EDGE_LOOP('',(#617,#618,#619,#620));
#160=EDGE_LOOP('',(#621,#622,#623,#624));
#161=EDGE_LOOP('',(#625,#626,#627,#628));
#162=EDGE_LOOP('',(#629,#630,#631,#632,#633,#634));
#163=EDGE_LOOP('',(#635,#636,#637,#638));
#164=EDGE_LOOP('',(#639,#640,#641,#642));
#165=EDGE_LOOP('',(#643));
#166=EDGE_LOOP('',(#644));
#167=EDGE_LOOP('',(#645));
#168=EDGE_LOOP('',(#646,#647,#648));
#169=EDGE_LOOP('',(#649,#650,#651));
#170=EDGE_LOOP('',(#652));
#171=EDGE_LOOP('',(#653,#654));
#172=EDGE_LOOP('',(#655,#656,#657));
#173=EDGE_LOOP('',(#658,#659,#660));
#174=EDGE_LOOP('',(#661,#662,#663));
#175=EDGE_LOOP('',(#664,#665,#666));
#176=EDGE_LOOP('',(#667,#668));
#177=EDGE_LOOP('',(#669,#670,#671,#672));
#178=EDGE_LOOP('',(#673,#674,#675,#676));
#179=EDGE_LOOP('',(#677,#678,#679,#680));
#180=EDGE_LOOP('',(#681,#682,#683,#684));
#181=EDGE_LOOP('',(#685,#686,#687,#688,#689,#690,#691,#692,#693,#694,#695));
#182=EDGE_LOOP('',(#696,#697,#698,#699));
#183=EDGE_LOOP('',(#700,#701,#702,#703));
#184=EDGE_LOOP('',(#704,#705,#706,#707,#708));
#185=EDGE_LOOP('',(#709,#710,#711,#712));
#186=EDGE_LOOP('',(#713,#714,#715,#716));
#187=EDGE_LOOP('',(#717,#718,#719,#720));
#188=EDGE_LOOP('',(#721,#722,#723,#724,#725,#726,#727,#728));
#189=EDGE_LOOP('',(#729,#730,#731,#732));
#190=EDGE_LOOP('',(#733,#734,#735,#736));
#191=EDGE_LOOP('',(#737,#738,#739,#740,#741));
#192=EDGE_LOOP('',(#742,#743,#744,#745,#746));
#193=EDGE_LOOP('',(#747,#748,#749,#750,#751,#752,#753,#754));
#194=EDGE_LOOP('',(#755,#756,#757,#758,#759,#760,#761,#762));
#195=EDGE_LOOP('',(#763,#764,#765,#766));
#196=EDGE_LOOP('',(#767,#768,#769,#770,#771,#772,#773,#774,#775,#776,#777,
#778));
#197=EDGE_LOOP('',(#779,#780,#781,#782));
#198=EDGE_LOOP('',(#783,#784,#785,#786));
#199=EDGE_LOOP('',(#787,#788,#789,#790));
#200=EDGE_LOOP('',(#791,#792,#793,#794));
#201=EDGE_LOOP('',(#795,#796,#797,#798));
#202=EDGE_LOOP('',(#799,#800,#801,#802));
#203=EDGE_LOOP('',(#803,#804,#805,#806));
#204=EDGE_LOOP('',(#807,#808,#809,#810));
#205=EDGE_LOOP('',(#811,#812,#813,#814,#815,#816,#817,#818));
#206=EDGE_LOOP('',(#819,#820,#821,#822));
#207=EDGE_LOOP('',(#823,#824,#825,#826));
#208=EDGE_LOOP('',(#827,#828,#829,#830));
#209=EDGE_LOOP('',(#831,#832,#833,#834));
#210=EDGE_LOOP('',(#835,#836,#837,#838));
#211=EDGE_LOOP('',(#839,#840,#841,#842));
#212=EDGE_LOOP('',(#843,#844,#845,#846,#847,#848,#849,#850));
#213=LINE('',#1334,#301);
#214=LINE('',#1336,#302);
#215=LINE('',#1338,#303);
#216=LINE('',#1339,#304);
#217=LINE('',#1342,#305);
#218=LINE('',#1346,#306);
#219=LINE('',#1349,#307);
#220=LINE('',#1352,#308);
#221=LINE('',#1353,#309);
#222=LINE('',#1356,#310);
#223=LINE('',#1359,#311);
#224=LINE('',#1362,#312);
#225=LINE('',#1363,#313);
#226=LINE('',#1367,#314);
#227=LINE('',#1378,#315);
#228=LINE('',#1542,#316);
#229=LINE('',#1544,#317);
#230=LINE('',#1546,#318);
#231=LINE('',#1547,#319);
#232=LINE('',#1550,#320);
#233=LINE('',#1552,#321);
#234=LINE('',#1553,#322);
#235=LINE('',#1557,#323);
#236=LINE('',#1559,#324);
#237=LINE('',#1561,#325);
#238=LINE('',#1562,#326);
#239=LINE('',#1565,#327);
#240=LINE('',#1567,#328);
#241=LINE('',#1568,#329);
#242=LINE('',#1571,#330);
#243=LINE('',#1573,#331);
#244=LINE('',#1575,#332);
#245=LINE('',#1577,#333);
#246=LINE('',#1579,#334);
#247=LINE('',#1581,#335);
#248=LINE('',#1582,#336);
#249=LINE('',#1584,#337);
#250=LINE('',#1585,#338);
#251=LINE('',#1589,#339);
#252=LINE('',#1591,#340);
#253=LINE('',#1593,#341);
#254=LINE('',#1594,#342);
#255=LINE('',#1596,#343);
#256=LINE('',#1598,#344);
#257=LINE('',#1600,#345);
#258=LINE('',#1601,#346);
#259=LINE('',#1603,#347);
#260=LINE('',#1606,#348);
#261=LINE('',#1608,#349);
#262=LINE('',#1614,#350);
#263=LINE('',#1615,#351);
#264=LINE('',#1617,#352);
#265=LINE('',#1618,#353);
#266=LINE('',#1621,#354);
#267=LINE('',#1622,#355);
#268=LINE('',#1624,#356);
#269=LINE('',#1626,#357);
#270=LINE('',#1627,#358);
#271=LINE('',#1629,#359);
#272=LINE('',#1631,#360);
#273=LINE('',#1637,#361);
#274=LINE('',#1641,#362);
#275=LINE('',#1645,#363);
#276=LINE('',#1649,#364);
#277=LINE('',#1653,#365);
#278=LINE('',#1654,#366);
#279=LINE('',#1659,#367);
#280=LINE('',#1663,#368);
#281=LINE('',#1666,#369);
#282=LINE('',#1668,#370);
#283=LINE('',#1670,#371);
#284=LINE('',#1672,#372);
#285=LINE('',#1680,#373);
#286=LINE('',#1683,#374);
#287=LINE('',#1686,#375);
#288=LINE('',#1688,#376);
#289=LINE('',#1689,#377);
#290=LINE('',#1692,#378);
#291=LINE('',#1696,#379);
#292=LINE('',#1700,#380);
#293=LINE('',#1704,#381);
#294=LINE('',#1708,#382);
#295=LINE('',#1709,#383);
#296=LINE('',#1712,#384);
#297=LINE('',#1715,#385);
#298=LINE('',#1718,#386);
#299=LINE('',#1719,#387);
#300=LINE('',#1723,#388);
#301=VECTOR('',#1064,10.);
#302=VECTOR('',#1065,10.);
#303=VECTOR('',#1066,10.);
#304=VECTOR('',#1067,10.);
#305=VECTOR('',#1070,1000.);
#306=VECTOR('',#1073,1000.);
#307=VECTOR('',#1076,1000.);
#308=VECTOR('',#1079,10.);
#309=VECTOR('',#1080,10.);
#310=VECTOR('',#1083,10.);
#311=VECTOR('',#1086,10.);
#312=VECTOR('',#1089,10.);
#313=VECTOR('',#1090,1000.);
#314=VECTOR('',#1097,1000.);
#315=VECTOR('',#1112,1.75);
#316=VECTOR('',#1151,1000.);
#317=VECTOR('',#1152,10.);
#318=VECTOR('',#1153,10.);
#319=VECTOR('',#1154,10.);
#320=VECTOR('',#1157,10.);
#321=VECTOR('',#1158,10.);
#322=VECTOR('',#1159,1000.);
#323=VECTOR('',#1162,1000.);
#324=VECTOR('',#1163,1000.);
#325=VECTOR('',#1164,10.);
#326=VECTOR('',#1165,10.);
#327=VECTOR('',#1168,10.);
#328=VECTOR('',#1169,10.);
#329=VECTOR('',#1170,1000.);
#330=VECTOR('',#1173,10.);
#331=VECTOR('',#1174,10.);
#332=VECTOR('',#1175,10.);
#333=VECTOR('',#1176,1000.);
#334=VECTOR('',#1177,10.);
#335=VECTOR('',#1178,10.);
#336=VECTOR('',#1179,10.);
#337=VECTOR('',#1180,10.);
#338=VECTOR('',#1181,10.);
#339=VECTOR('',#1184,10.);
#340=VECTOR('',#1185,10.);
#341=VECTOR('',#1186,10.);
#342=VECTOR('',#1187,1000.);
#343=VECTOR('',#1190,10.);
#344=VECTOR('',#1191,10.);
#345=VECTOR('',#1192,10.);
#346=VECTOR('',#1193,10.);
#347=VECTOR('',#1196,10.);
#348=VECTOR('',#1199,10.);
#349=VECTOR('',#1200,10.);
#350=VECTOR('',#1207,10.);
#351=VECTOR('',#1208,10.);
#352=VECTOR('',#1211,10.);
#353=VECTOR('',#1212,10.);
#354=VECTOR('',#1215,10.);
#355=VECTOR('',#1216,10.);
#356=VECTOR('',#1219,10.);
#357=VECTOR('',#1220,10.);
#358=VECTOR('',#1221,1000.);
#359=VECTOR('',#1224,10.);
#360=VECTOR('',#1227,10.);
#361=VECTOR('',#1234,10.);
#362=VECTOR('',#1239,10.);
#363=VECTOR('',#1242,10.);
#364=VECTOR('',#1245,10.);
#365=VECTOR('',#1250,10.);
#366=VECTOR('',#1251,10.);
#367=VECTOR('',#1256,10.);
#368=VECTOR('',#1259,10.);
#369=VECTOR('',#1264,10.);
#370=VECTOR('',#1267,10.);
#371=VECTOR('',#1270,10.);
#372=VECTOR('',#1273,10.);
#373=VECTOR('',#1282,10.);
#374=VECTOR('',#1285,10.);
#375=VECTOR('',#1288,10.);
#376=VECTOR('',#1289,10.);
#377=VECTOR('',#1290,10.);
#378=VECTOR('',#1293,10.);
#379=VECTOR('',#1296,10.);
#380=VECTOR('',#1299,10.);
#381=VECTOR('',#1304,10.);
#382=VECTOR('',#1309,10.);
#383=VECTOR('',#1310,10.);
#384=VECTOR('',#1313,10.);
#385=VECTOR('',#1316,10.);
#386=VECTOR('',#1319,10.);
#387=VECTOR('',#1320,10.);
#388=VECTOR('',#1327,10.);
#389=VERTEX_POINT('',#1332);
#390=VERTEX_POINT('',#1333);
#391=VERTEX_POINT('',#1335);
#392=VERTEX_POINT('',#1337);
#393=VERTEX_POINT('',#1341);
#394=VERTEX_POINT('',#1343);
#395=VERTEX_POINT('',#1345);
#396=VERTEX_POINT('',#1347);
#397=VERTEX_POINT('',#1351);
#398=VERTEX_POINT('',#1355);
#399=VERTEX_POINT('',#1357);
#400=VERTEX_POINT('',#1361);
#401=VERTEX_POINT('',#1370);
#402=VERTEX_POINT('',#1372);
#403=VERTEX_POINT('',#1376);
#404=VERTEX_POINT('',#1382);
#405=VERTEX_POINT('',#1411);
#406=VERTEX_POINT('',#1440);
#407=VERTEX_POINT('',#1442);
#408=VERTEX_POINT('',#1446);
#409=VERTEX_POINT('',#1447);
#410=VERTEX_POINT('',#1471);
#411=VERTEX_POINT('',#1516);
#412=VERTEX_POINT('',#1517);
#413=VERTEX_POINT('',#1519);
#414=VERTEX_POINT('',#1540);
#415=VERTEX_POINT('',#1541);
#416=VERTEX_POINT('',#1543);
#417=VERTEX_POINT('',#1545);
#418=VERTEX_POINT('',#1549);
#419=VERTEX_POINT('',#1551);
#420=VERTEX_POINT('',#1555);
#421=VERTEX_POINT('',#1556);
#422=VERTEX_POINT('',#1558);
#423=VERTEX_POINT('',#1560);
#424=VERTEX_POINT('',#1564);
#425=VERTEX_POINT('',#1566);
#426=VERTEX_POINT('',#1570);
#427=VERTEX_POINT('',#1572);
#428=VERTEX_POINT('',#1574);
#429=VERTEX_POINT('',#1576);
#430=VERTEX_POINT('',#1578);
#431=VERTEX_POINT('',#1580);
#432=VERTEX_POINT('',#1583);
#433=VERTEX_POINT('',#1587);
#434=VERTEX_POINT('',#1588);
#435=VERTEX_POINT('',#1590);
#436=VERTEX_POINT('',#1592);
#437=VERTEX_POINT('',#1597);
#438=VERTEX_POINT('',#1599);
#439=VERTEX_POINT('',#1605);
#440=VERTEX_POINT('',#1607);
#441=VERTEX_POINT('',#1611);
#442=VERTEX_POINT('',#1613);
#443=VERTEX_POINT('',#1620);
#444=VERTEX_POINT('',#1625);
#445=VERTEX_POINT('',#1634);
#446=VERTEX_POINT('',#1636);
#447=VERTEX_POINT('',#1640);
#448=VERTEX_POINT('',#1642);
#449=VERTEX_POINT('',#1644);
#450=VERTEX_POINT('',#1646);
#451=VERTEX_POINT('',#1648);
#452=VERTEX_POINT('',#1652);
#453=VERTEX_POINT('',#1656);
#454=VERTEX_POINT('',#1658);
#455=VERTEX_POINT('',#1660);
#456=VERTEX_POINT('',#1662);
#457=VERTEX_POINT('',#1676);
#458=VERTEX_POINT('',#1677);
#459=VERTEX_POINT('',#1679);
#460=VERTEX_POINT('',#1681);
#461=VERTEX_POINT('',#1685);
#462=VERTEX_POINT('',#1687);
#463=VERTEX_POINT('',#1691);
#464=VERTEX_POINT('',#1693);
#465=VERTEX_POINT('',#1695);
#466=VERTEX_POINT('',#1697);
#467=VERTEX_POINT('',#1699);
#468=VERTEX_POINT('',#1703);
#469=VERTEX_POINT('',#1707);
#470=VERTEX_POINT('',#1711);
#471=VERTEX_POINT('',#1713);
#472=VERTEX_POINT('',#1717);
#473=EDGE_CURVE('',#389,#390,#213,.T.);
#474=EDGE_CURVE('',#391,#389,#214,.T.);
#475=EDGE_CURVE('',#392,#391,#215,.T.);
#476=EDGE_CURVE('',#390,#392,#216,.T.);
#477=EDGE_CURVE('',#392,#393,#217,.T.);
#478=EDGE_CURVE('',#394,#393,#59,.T.);
#479=EDGE_CURVE('',#395,#394,#218,.T.);
#480=EDGE_CURVE('',#396,#395,#60,.T.);
#481=EDGE_CURVE('',#396,#390,#219,.T.);
#482=EDGE_CURVE('',#391,#397,#220,.T.);
#483=EDGE_CURVE('',#393,#397,#221,.T.);
#484=EDGE_CURVE('',#395,#398,#222,.T.);
#485=EDGE_CURVE('',#398,#399,#61,.T.);
#486=EDGE_CURVE('',#399,#396,#223,.T.);
#487=EDGE_CURVE('',#400,#394,#224,.T.);
#488=EDGE_CURVE('',#400,#398,#225,.T.);
#489=EDGE_CURVE('',#397,#400,#62,.T.);
#490=EDGE_CURVE('',#389,#399,#226,.T.);
#491=EDGE_CURVE('',#401,#401,#63,.T.);
#492=EDGE_CURVE('',#401,#402,#64,.T.);
#493=EDGE_CURVE('',#402,#402,#65,.T.);
#494=EDGE_CURVE('',#403,#403,#66,.T.);
#495=EDGE_CURVE('',#403,#402,#227,.T.);
#496=EDGE_CURVE('',#404,#404,#67,.T.);
#497=EDGE_CURVE('',#404,#405,#68,.T.);
#498=EDGE_CURVE('',#406,#406,#69,.T.);
#499=EDGE_CURVE('',#406,#407,#70,.T.);
#500=EDGE_CURVE('',#408,#409,#71,.T.);
#501=EDGE_CURVE('',#409,#408,#72,.T.);
#502=EDGE_CURVE('',#410,#409,#73,.T.);
#503=EDGE_CURVE('',#410,#408,#74,.T.);
#504=EDGE_CURVE('',#411,#412,#75,.T.);
#505=EDGE_CURVE('',#413,#411,#76,.T.);
#506=EDGE_CURVE('',#413,#412,#77,.T.);
#507=EDGE_CURVE('',#412,#411,#78,.T.);
#508=EDGE_CURVE('',#414,#415,#228,.T.);
#509=EDGE_CURVE('',#416,#414,#229,.T.);
#510=EDGE_CURVE('',#416,#417,#230,.T.);
#511=EDGE_CURVE('',#415,#417,#231,.T.);
#512=EDGE_CURVE('',#417,#418,#232,.T.);
#513=EDGE_CURVE('',#419,#418,#233,.T.);
#514=EDGE_CURVE('',#415,#419,#234,.T.);
#515=EDGE_CURVE('',#420,#421,#235,.T.);
#516=EDGE_CURVE('',#420,#422,#236,.T.);
#517=EDGE_CURVE('',#422,#423,#237,.T.);
#518=EDGE_CURVE('',#421,#423,#238,.T.);
#519=EDGE_CURVE('',#423,#424,#239,.T.);
#520=EDGE_CURVE('',#425,#424,#240,.T.);
#521=EDGE_CURVE('',#421,#425,#241,.T.);
#522=EDGE_CURVE('',#426,#419,#242,.T.);
#523=EDGE_CURVE('',#418,#427,#243,.T.);
#524=EDGE_CURVE('',#428,#427,#244,.T.);
#525=EDGE_CURVE('',#429,#428,#245,.T.);
#526=EDGE_CURVE('',#430,#429,#246,.T.);
#527=EDGE_CURVE('',#430,#431,#247,.T.);
#528=EDGE_CURVE('',#431,#422,#248,.T.);
#529=EDGE_CURVE('',#420,#432,#249,.T.);
#530=EDGE_CURVE('',#432,#426,#250,.T.);
#531=EDGE_CURVE('',#433,#434,#251,.T.);
#532=EDGE_CURVE('',#434,#435,#252,.T.);
#533=EDGE_CURVE('',#436,#435,#253,.T.);
#534=EDGE_CURVE('',#433,#436,#254,.T.);
#535=EDGE_CURVE('',#431,#432,#255,.T.);
#536=EDGE_CURVE('',#437,#432,#256,.T.);
#537=EDGE_CURVE('',#437,#438,#257,.T.);
#538=EDGE_CURVE('',#438,#431,#258,.T.);
#539=EDGE_CURVE('',#424,#438,#259,.T.);
#540=EDGE_CURVE('',#418,#439,#260,.T.);
#541=EDGE_CURVE('',#440,#439,#261,.T.);
#542=EDGE_CURVE('',#440,#427,#79,.T.);
#543=EDGE_CURVE('',#436,#441,#80,.T.);
#544=EDGE_CURVE('',#441,#442,#262,.T.);
#545=EDGE_CURVE('',#442,#433,#263,.T.);
#546=EDGE_CURVE('',#441,#440,#264,.T.);
#547=EDGE_CURVE('',#439,#442,#265,.T.);
#548=EDGE_CURVE('',#443,#416,#266,.T.);
#549=EDGE_CURVE('',#434,#443,#267,.T.);
#550=EDGE_CURVE('',#426,#434,#268,.T.);
#551=EDGE_CURVE('',#443,#444,#269,.T.);
#552=EDGE_CURVE('',#426,#444,#270,.T.);
#553=EDGE_CURVE('',#444,#414,#271,.T.);
#554=EDGE_CURVE('',#425,#437,#272,.T.);
#555=EDGE_CURVE('',#435,#445,#81,.T.);
#556=EDGE_CURVE('',#445,#446,#273,.T.);
#557=EDGE_CURVE('',#446,#428,#82,.T.);
#558=EDGE_CURVE('',#446,#447,#274,.T.);
#559=EDGE_CURVE('',#448,#447,#83,.T.);
#560=EDGE_CURVE('',#448,#449,#275,.T.);
#561=EDGE_CURVE('',#450,#449,#84,.T.);
#562=EDGE_CURVE('',#450,#451,#276,.T.);
#563=EDGE_CURVE('',#429,#451,#85,.T.);
#564=EDGE_CURVE('',#452,#445,#277,.T.);
#565=EDGE_CURVE('',#447,#452,#278,.T.);
#566=EDGE_CURVE('',#453,#430,#86,.T.);
#567=EDGE_CURVE('',#453,#454,#279,.T.);
#568=EDGE_CURVE('',#455,#454,#87,.T.);
#569=EDGE_CURVE('',#455,#456,#280,.T.);
#570=EDGE_CURVE('',#452,#456,#88,.T.);
#571=EDGE_CURVE('',#451,#453,#281,.T.);
#572=EDGE_CURVE('',#454,#450,#282,.T.);
#573=EDGE_CURVE('',#456,#448,#283,.T.);
#574=EDGE_CURVE('',#449,#455,#284,.T.);
#575=EDGE_CURVE('',#457,#458,#89,.T.);
#576=EDGE_CURVE('',#458,#459,#285,.T.);
#577=EDGE_CURVE('',#459,#460,#90,.T.);
#578=EDGE_CURVE('',#460,#457,#286,.T.);
#579=EDGE_CURVE('',#461,#460,#287,.T.);
#580=EDGE_CURVE('',#462,#461,#288,.T.);
#581=EDGE_CURVE('',#457,#462,#289,.T.);
#582=EDGE_CURVE('',#459,#463,#290,.T.);
#583=EDGE_CURVE('',#464,#463,#91,.T.);
#584=EDGE_CURVE('',#464,#465,#291,.T.);
#585=EDGE_CURVE('',#466,#465,#92,.T.);
#586=EDGE_CURVE('',#466,#467,#292,.T.);
#587=EDGE_CURVE('',#461,#467,#93,.T.);
#588=EDGE_CURVE('',#467,#468,#293,.T.);
#589=EDGE_CURVE('',#468,#462,#94,.T.);
#590=EDGE_CURVE('',#469,#466,#294,.T.);
#591=EDGE_CURVE('',#468,#469,#295,.T.);
#592=EDGE_CURVE('',#463,#470,#296,.T.);
#593=EDGE_CURVE('',#470,#471,#95,.T.);
#594=EDGE_CURVE('',#471,#464,#297,.T.);
#595=EDGE_CURVE('',#472,#471,#298,.T.);
#596=EDGE_CURVE('',#465,#472,#299,.T.);
#597=EDGE_CURVE('',#472,#469,#96,.T.);
#598=EDGE_CURVE('',#470,#458,#300,.T.);
#599=ORIENTED_EDGE('',*,*,#473,.F.);
#600=ORIENTED_EDGE('',*,*,#474,.F.);
#601=ORIENTED_EDGE('',*,*,#475,.F.);
#602=ORIENTED_EDGE('',*,*,#476,.F.);
#603=ORIENTED_EDGE('',*,*,#476,.T.);
#604=ORIENTED_EDGE('',*,*,#477,.T.);
#605=ORIENTED_EDGE('',*,*,#478,.F.);
#606=ORIENTED_EDGE('',*,*,#479,.F.);
#607=ORIENTED_EDGE('',*,*,#480,.F.);
#608=ORIENTED_EDGE('',*,*,#481,.T.);
#609=ORIENTED_EDGE('',*,*,#475,.T.);
#610=ORIENTED_EDGE('',*,*,#482,.T.);
#611=ORIENTED_EDGE('',*,*,#483,.F.);
#612=ORIENTED_EDGE('',*,*,#477,.F.);
#613=ORIENTED_EDGE('',*,*,#480,.T.);
#614=ORIENTED_EDGE('',*,*,#484,.T.);
#615=ORIENTED_EDGE('',*,*,#485,.T.);
#616=ORIENTED_EDGE('',*,*,#486,.T.);
#617=ORIENTED_EDGE('',*,*,#484,.F.);
#618=ORIENTED_EDGE('',*,*,#479,.T.);
#619=ORIENTED_EDGE('',*,*,#487,.F.);
#620=ORIENTED_EDGE('',*,*,#488,.T.);
#621=ORIENTED_EDGE('',*,*,#489,.T.);
#622=ORIENTED_EDGE('',*,*,#487,.T.);
#623=ORIENTED_EDGE('',*,*,#478,.T.);
#624=ORIENTED_EDGE('',*,*,#483,.T.);
#625=ORIENTED_EDGE('',*,*,#473,.T.);
#626=ORIENTED_EDGE('',*,*,#481,.F.);
#627=ORIENTED_EDGE('',*,*,#486,.F.);
#628=ORIENTED_EDGE('',*,*,#490,.F.);
#629=ORIENTED_EDGE('',*,*,#474,.T.);
#630=ORIENTED_EDGE('',*,*,#490,.T.);
#631=ORIENTED_EDGE('',*,*,#485,.F.);
#632=ORIENTED_EDGE('',*,*,#488,.F.);
#633=ORIENTED_EDGE('',*,*,#489,.F.);
#634=ORIENTED_EDGE('',*,*,#482,.F.);
#635=ORIENTED_EDGE('',*,*,#491,.T.);
#636=ORIENTED_EDGE('',*,*,#492,.T.);
#637=ORIENTED_EDGE('',*,*,#493,.T.);
#638=ORIENTED_EDGE('',*,*,#492,.F.);
#639=ORIENTED_EDGE('',*,*,#494,.T.);
#640=ORIENTED_EDGE('',*,*,#495,.T.);
#641=ORIENTED_EDGE('',*,*,#493,.F.);
#642=ORIENTED_EDGE('',*,*,#495,.F.);
#643=ORIENTED_EDGE('',*,*,#491,.F.);
#644=ORIENTED_EDGE('',*,*,#494,.F.);
#645=ORIENTED_EDGE('',*,*,#496,.T.);
#646=ORIENTED_EDGE('',*,*,#496,.F.);
#647=ORIENTED_EDGE('',*,*,#497,.T.);
#648=ORIENTED_EDGE('',*,*,#497,.F.);
#649=ORIENTED_EDGE('',*,*,#498,.F.);
#650=ORIENTED_EDGE('',*,*,#499,.T.);
#651=ORIENTED_EDGE('',*,*,#499,.F.);
#652=ORIENTED_EDGE('',*,*,#498,.T.);
#653=ORIENTED_EDGE('',*,*,#500,.T.);
#654=ORIENTED_EDGE('',*,*,#501,.T.);
#655=ORIENTED_EDGE('',*,*,#501,.F.);
#656=ORIENTED_EDGE('',*,*,#502,.F.);
#657=ORIENTED_EDGE('',*,*,#503,.T.);
#658=ORIENTED_EDGE('',*,*,#503,.F.);
#659=ORIENTED_EDGE('',*,*,#502,.T.);
#660=ORIENTED_EDGE('',*,*,#500,.F.);
#661=ORIENTED_EDGE('',*,*,#504,.F.);
#662=ORIENTED_EDGE('',*,*,#505,.F.);
#663=ORIENTED_EDGE('',*,*,#506,.T.);
#664=ORIENTED_EDGE('',*,*,#506,.F.);
#665=ORIENTED_EDGE('',*,*,#505,.T.);
#666=ORIENTED_EDGE('',*,*,#507,.F.);
#667=ORIENTED_EDGE('',*,*,#504,.T.);
#668=ORIENTED_EDGE('',*,*,#507,.T.);
#669=ORIENTED_EDGE('',*,*,#508,.F.);
#670=ORIENTED_EDGE('',*,*,#509,.F.);
#671=ORIENTED_EDGE('',*,*,#510,.T.);
#672=ORIENTED_EDGE('',*,*,#511,.F.);
#673=ORIENTED_EDGE('',*,*,#511,.T.);
#674=ORIENTED_EDGE('',*,*,#512,.T.);
#675=ORIENTED_EDGE('',*,*,#513,.F.);
#676=ORIENTED_EDGE('',*,*,#514,.F.);
#677=ORIENTED_EDGE('',*,*,#515,.F.);
#678=ORIENTED_EDGE('',*,*,#516,.T.);
#679=ORIENTED_EDGE('',*,*,#517,.T.);
#680=ORIENTED_EDGE('',*,*,#518,.F.);
#681=ORIENTED_EDGE('',*,*,#518,.T.);
#682=ORIENTED_EDGE('',*,*,#519,.T.);
#683=ORIENTED_EDGE('',*,*,#520,.F.);
#684=ORIENTED_EDGE('',*,*,#521,.F.);
#685=ORIENTED_EDGE('',*,*,#522,.T.);
#686=ORIENTED_EDGE('',*,*,#513,.T.);
#687=ORIENTED_EDGE('',*,*,#523,.T.);
#688=ORIENTED_EDGE('',*,*,#524,.F.);
#689=ORIENTED_EDGE('',*,*,#525,.F.);
#690=ORIENTED_EDGE('',*,*,#526,.F.);
#691=ORIENTED_EDGE('',*,*,#527,.T.);
#692=ORIENTED_EDGE('',*,*,#528,.T.);
#693=ORIENTED_EDGE('',*,*,#516,.F.);
#694=ORIENTED_EDGE('',*,*,#529,.T.);
#695=ORIENTED_EDGE('',*,*,#530,.T.);
#696=ORIENTED_EDGE('',*,*,#531,.T.);
#697=ORIENTED_EDGE('',*,*,#532,.T.);
#698=ORIENTED_EDGE('',*,*,#533,.F.);
#699=ORIENTED_EDGE('',*,*,#534,.F.);
#700=ORIENTED_EDGE('',*,*,#535,.T.);
#701=ORIENTED_EDGE('',*,*,#536,.F.);
#702=ORIENTED_EDGE('',*,*,#537,.T.);
#703=ORIENTED_EDGE('',*,*,#538,.T.);
#704=ORIENTED_EDGE('',*,*,#517,.F.);
#705=ORIENTED_EDGE('',*,*,#528,.F.);
#706=ORIENTED_EDGE('',*,*,#538,.F.);
#707=ORIENTED_EDGE('',*,*,#539,.F.);
#708=ORIENTED_EDGE('',*,*,#519,.F.);
#709=ORIENTED_EDGE('',*,*,#523,.F.);
#710=ORIENTED_EDGE('',*,*,#540,.T.);
#711=ORIENTED_EDGE('',*,*,#541,.F.);
#712=ORIENTED_EDGE('',*,*,#542,.T.);
#713=ORIENTED_EDGE('',*,*,#534,.T.);
#714=ORIENTED_EDGE('',*,*,#543,.T.);
#715=ORIENTED_EDGE('',*,*,#544,.T.);
#716=ORIENTED_EDGE('',*,*,#545,.T.);
#717=ORIENTED_EDGE('',*,*,#546,.T.);
#718=ORIENTED_EDGE('',*,*,#541,.T.);
#719=ORIENTED_EDGE('',*,*,#547,.T.);
#720=ORIENTED_EDGE('',*,*,#544,.F.);
#721=ORIENTED_EDGE('',*,*,#510,.F.);
#722=ORIENTED_EDGE('',*,*,#548,.F.);
#723=ORIENTED_EDGE('',*,*,#549,.F.);
#724=ORIENTED_EDGE('',*,*,#531,.F.);
#725=ORIENTED_EDGE('',*,*,#545,.F.);
#726=ORIENTED_EDGE('',*,*,#547,.F.);
#727=ORIENTED_EDGE('',*,*,#540,.F.);
#728=ORIENTED_EDGE('',*,*,#512,.F.);
#729=ORIENTED_EDGE('',*,*,#550,.T.);
#730=ORIENTED_EDGE('',*,*,#549,.T.);
#731=ORIENTED_EDGE('',*,*,#551,.T.);
#732=ORIENTED_EDGE('',*,*,#552,.F.);
#733=ORIENTED_EDGE('',*,*,#548,.T.);
#734=ORIENTED_EDGE('',*,*,#509,.T.);
#735=ORIENTED_EDGE('',*,*,#553,.F.);
#736=ORIENTED_EDGE('',*,*,#551,.F.);
#737=ORIENTED_EDGE('',*,*,#515,.T.);
#738=ORIENTED_EDGE('',*,*,#521,.T.);
#739=ORIENTED_EDGE('',*,*,#554,.T.);
#740=ORIENTED_EDGE('',*,*,#536,.T.);
#741=ORIENTED_EDGE('',*,*,#529,.F.);
#742=ORIENTED_EDGE('',*,*,#508,.T.);
#743=ORIENTED_EDGE('',*,*,#514,.T.);
#744=ORIENTED_EDGE('',*,*,#522,.F.);
#745=ORIENTED_EDGE('',*,*,#552,.T.);
#746=ORIENTED_EDGE('',*,*,#553,.T.);
#747=ORIENTED_EDGE('',*,*,#542,.F.);
#748=ORIENTED_EDGE('',*,*,#546,.F.);
#749=ORIENTED_EDGE('',*,*,#543,.F.);
#750=ORIENTED_EDGE('',*,*,#533,.T.);
#751=ORIENTED_EDGE('',*,*,#555,.T.);
#752=ORIENTED_EDGE('',*,*,#556,.T.);
#753=ORIENTED_EDGE('',*,*,#557,.T.);
#754=ORIENTED_EDGE('',*,*,#524,.T.);
#755=ORIENTED_EDGE('',*,*,#557,.F.);
#756=ORIENTED_EDGE('',*,*,#558,.T.);
#757=ORIENTED_EDGE('',*,*,#559,.F.);
#758=ORIENTED_EDGE('',*,*,#560,.T.);
#759=ORIENTED_EDGE('',*,*,#561,.F.);
#760=ORIENTED_EDGE('',*,*,#562,.T.);
#761=ORIENTED_EDGE('',*,*,#563,.F.);
#762=ORIENTED_EDGE('',*,*,#525,.T.);
#763=ORIENTED_EDGE('',*,*,#556,.F.);
#764=ORIENTED_EDGE('',*,*,#564,.F.);
#765=ORIENTED_EDGE('',*,*,#565,.F.);
#766=ORIENTED_EDGE('',*,*,#558,.F.);
#767=ORIENTED_EDGE('',*,*,#555,.F.);
#768=ORIENTED_EDGE('',*,*,#532,.F.);
#769=ORIENTED_EDGE('',*,*,#550,.F.);
#770=ORIENTED_EDGE('',*,*,#530,.F.);
#771=ORIENTED_EDGE('',*,*,#535,.F.);
#772=ORIENTED_EDGE('',*,*,#527,.F.);
#773=ORIENTED_EDGE('',*,*,#566,.F.);
#774=ORIENTED_EDGE('',*,*,#567,.T.);
#775=ORIENTED_EDGE('',*,*,#568,.F.);
#776=ORIENTED_EDGE('',*,*,#569,.T.);
#777=ORIENTED_EDGE('',*,*,#570,.F.);
#778=ORIENTED_EDGE('',*,*,#564,.T.);
#779=ORIENTED_EDGE('',*,*,#526,.T.);
#780=ORIENTED_EDGE('',*,*,#563,.T.);
#781=ORIENTED_EDGE('',*,*,#571,.T.);
#782=ORIENTED_EDGE('',*,*,#566,.T.);
#783=ORIENTED_EDGE('',*,*,#571,.F.);
#784=ORIENTED_EDGE('',*,*,#562,.F.);
#785=ORIENTED_EDGE('',*,*,#572,.F.);
#786=ORIENTED_EDGE('',*,*,#567,.F.);
#787=ORIENTED_EDGE('',*,*,#570,.T.);
#788=ORIENTED_EDGE('',*,*,#573,.T.);
#789=ORIENTED_EDGE('',*,*,#559,.T.);
#790=ORIENTED_EDGE('',*,*,#565,.T.);
#791=ORIENTED_EDGE('',*,*,#573,.F.);
#792=ORIENTED_EDGE('',*,*,#569,.F.);
#793=ORIENTED_EDGE('',*,*,#574,.F.);
#794=ORIENTED_EDGE('',*,*,#560,.F.);
#795=ORIENTED_EDGE('',*,*,#561,.T.);
#796=ORIENTED_EDGE('',*,*,#574,.T.);
#797=ORIENTED_EDGE('',*,*,#568,.T.);
#798=ORIENTED_EDGE('',*,*,#572,.T.);
#799=ORIENTED_EDGE('',*,*,#554,.F.);
#800=ORIENTED_EDGE('',*,*,#520,.T.);
#801=ORIENTED_EDGE('',*,*,#539,.T.);
#802=ORIENTED_EDGE('',*,*,#537,.F.);
#803=ORIENTED_EDGE('',*,*,#575,.T.);
#804=ORIENTED_EDGE('',*,*,#576,.T.);
#805=ORIENTED_EDGE('',*,*,#577,.T.);
#806=ORIENTED_EDGE('',*,*,#578,.T.);
#807=ORIENTED_EDGE('',*,*,#578,.F.);
#808=ORIENTED_EDGE('',*,*,#579,.F.);
#809=ORIENTED_EDGE('',*,*,#580,.F.);
#810=ORIENTED_EDGE('',*,*,#581,.F.);
#811=ORIENTED_EDGE('',*,*,#577,.F.);
#812=ORIENTED_EDGE('',*,*,#582,.T.);
#813=ORIENTED_EDGE('',*,*,#583,.F.);
#814=ORIENTED_EDGE('',*,*,#584,.T.);
#815=ORIENTED_EDGE('',*,*,#585,.F.);
#816=ORIENTED_EDGE('',*,*,#586,.T.);
#817=ORIENTED_EDGE('',*,*,#587,.F.);
#818=ORIENTED_EDGE('',*,*,#579,.T.);
#819=ORIENTED_EDGE('',*,*,#587,.T.);
#820=ORIENTED_EDGE('',*,*,#588,.T.);
#821=ORIENTED_EDGE('',*,*,#589,.T.);
#822=ORIENTED_EDGE('',*,*,#580,.T.);
#823=ORIENTED_EDGE('',*,*,#588,.F.);
#824=ORIENTED_EDGE('',*,*,#586,.F.);
#825=ORIENTED_EDGE('',*,*,#590,.F.);
#826=ORIENTED_EDGE('',*,*,#591,.F.);
#827=ORIENTED_EDGE('',*,*,#583,.T.);
#828=ORIENTED_EDGE('',*,*,#592,.T.);
#829=ORIENTED_EDGE('',*,*,#593,.T.);
#830=ORIENTED_EDGE('',*,*,#594,.T.);
#831=ORIENTED_EDGE('',*,*,#594,.F.);
#832=ORIENTED_EDGE('',*,*,#595,.F.);
#833=ORIENTED_EDGE('',*,*,#596,.F.);
#834=ORIENTED_EDGE('',*,*,#584,.F.);
#835=ORIENTED_EDGE('',*,*,#597,.T.);
#836=ORIENTED_EDGE('',*,*,#590,.T.);
#837=ORIENTED_EDGE('',*,*,#585,.T.);
#838=ORIENTED_EDGE('',*,*,#596,.T.);
#839=ORIENTED_EDGE('',*,*,#576,.F.);
#840=ORIENTED_EDGE('',*,*,#598,.F.);
#841=ORIENTED_EDGE('',*,*,#592,.F.);
#842=ORIENTED_EDGE('',*,*,#582,.F.);
#843=ORIENTED_EDGE('',*,*,#575,.F.);
#844=ORIENTED_EDGE('',*,*,#581,.T.);
#845=ORIENTED_EDGE('',*,*,#589,.F.);
#846=ORIENTED_EDGE('',*,*,#591,.T.);
#847=ORIENTED_EDGE('',*,*,#597,.F.);
#848=ORIENTED_EDGE('',*,*,#595,.T.);
#849=ORIENTED_EDGE('',*,*,#593,.F.);
#850=ORIENTED_EDGE('',*,*,#598,.T.);
#851=PLANE('',#970);
#852=PLANE('',#971);
#853=PLANE('',#974);
#854=PLANE('',#977);
#855=PLANE('',#980);
#856=PLANE('',#981);
#857=PLANE('',#988);
#858=PLANE('',#989);
#859=PLANE('',#990);
#860=PLANE('',#995);
#861=PLANE('',#996);
#862=PLANE('',#1005);
#863=PLANE('',#1006);
#864=PLANE('',#1007);
#865=PLANE('',#1008);
#866=PLANE('',#1009);
#867=PLANE('',#1010);
#868=PLANE('',#1011);
#869=PLANE('',#1012);
#870=PLANE('',#1013);
#871=PLANE('',#1014);
#872=PLANE('',#1016);
#873=PLANE('',#1018);
#874=PLANE('',#1019);
#875=PLANE('',#1020);
#876=PLANE('',#1021);
#877=PLANE('',#1022);
#878=PLANE('',#1023);
#879=PLANE('',#1027);
#880=PLANE('',#1031);
#881=PLANE('',#1032);
#882=PLANE('',#1037);
#883=PLANE('',#1039);
#884=PLANE('',#1041);
#885=PLANE('',#1045);
#886=PLANE('',#1046);
#887=PLANE('',#1052);
#888=PLANE('',#1055);
#889=PLANE('',#1058);
#890=PLANE('',#1059);
#891=ADVANCED_FACE('',(#97),#851,.F.);
#892=ADVANCED_FACE('',(#98),#852,.T.);
#893=ADVANCED_FACE('',(#99),#853,.T.);
#894=ADVANCED_FACE('',(#100),#48,.T.);
#895=ADVANCED_FACE('',(#101),#854,.T.);
#896=ADVANCED_FACE('',(#102),#49,.T.);
#897=ADVANCED_FACE('',(#103),#855,.T.);
#898=ADVANCED_FACE('',(#104),#856,.F.);
#899=ADVANCED_FACE('',(#105),#19,.T.);
#900=ADVANCED_FACE('',(#106),#50,.T.);
#901=ADVANCED_FACE('',(#107),#857,.F.);
#902=ADVANCED_FACE('',(#108),#858,.F.);
#903=ADVANCED_FACE('',(#109),#859,.T.);
#904=ADVANCED_FACE('',(#110),#13,.F.);
#905=ADVANCED_FACE('',(#111),#14,.F.);
#906=ADVANCED_FACE('',(#112),#860,.T.);
#907=ADVANCED_FACE('',(#113),#861,.T.);
#908=ADVANCED_FACE('',(#114),#15,.F.);
#909=ADVANCED_FACE('',(#115),#16,.F.);
#910=ADVANCED_FACE('',(#116),#17,.F.);
#911=ADVANCED_FACE('',(#117),#18,.F.);
#912=ADVANCED_FACE('',(#118),#862,.T.);
#913=ADVANCED_FACE('',(#119),#863,.F.);
#914=ADVANCED_FACE('',(#120),#864,.F.);
#915=ADVANCED_FACE('',(#121),#865,.T.);
#916=ADVANCED_FACE('',(#122),#866,.T.);
#917=ADVANCED_FACE('',(#123),#867,.T.);
#918=ADVANCED_FACE('',(#124),#868,.T.);
#919=ADVANCED_FACE('',(#125),#869,.T.);
#920=ADVANCED_FACE('',(#126),#870,.T.);
#921=ADVANCED_FACE('',(#127),#871,.F.);
#922=ADVANCED_FACE('',(#128),#872,.F.);
#923=ADVANCED_FACE('',(#129),#873,.F.);
#924=ADVANCED_FACE('',(#130),#874,.F.);
#925=ADVANCED_FACE('',(#131),#875,.F.);
#926=ADVANCED_FACE('',(#132),#876,.F.);
#927=ADVANCED_FACE('',(#133),#877,.T.);
#928=ADVANCED_FACE('',(#134),#878,.F.);
#929=ADVANCED_FACE('',(#135),#51,.T.);
#930=ADVANCED_FACE('',(#136),#879,.F.);
#931=ADVANCED_FACE('',(#137),#880,.F.);
#932=ADVANCED_FACE('',(#138),#881,.F.);
#933=ADVANCED_FACE('',(#139),#52,.T.);
#934=ADVANCED_FACE('',(#140),#882,.F.);
#935=ADVANCED_FACE('',(#141),#53,.T.);
#936=ADVANCED_FACE('',(#142),#883,.F.);
#937=ADVANCED_FACE('',(#143),#54,.T.);
#938=ADVANCED_FACE('',(#144),#884,.F.);
#939=ADVANCED_FACE('',(#145),#55,.T.);
#940=ADVANCED_FACE('',(#146),#885,.F.);
#941=ADVANCED_FACE('',(#147),#886,.T.);
#942=ADVANCED_FACE('',(#148),#56,.T.);
#943=ADVANCED_FACE('',(#149),#887,.F.);
#944=ADVANCED_FACE('',(#150),#57,.T.);
#945=ADVANCED_FACE('',(#151),#888,.F.);
#946=ADVANCED_FACE('',(#152),#58,.T.);
#947=ADVANCED_FACE('',(#153),#889,.F.);
#948=ADVANCED_FACE('',(#154),#890,.T.);
#949=CLOSED_SHELL('',(#891,#892,#893,#894,#895,#896,#897,#898));
#950=CLOSED_SHELL('',(#899,#900,#901,#902));
#951=CLOSED_SHELL('',(#903,#904));
#952=CLOSED_SHELL('',(#905,#906));
#953=CLOSED_SHELL('',(#907,#908,#909));
#954=CLOSED_SHELL('',(#910,#911,#912));
#955=CLOSED_SHELL('',(#913,#914,#915,#916,#917,#918,#919,#920,#921,#922,
#923,#924,#925,#926,#927,#928,#929,#930,#931,#932,#933,#934,#935,#936,#937,
#938));
#956=CLOSED_SHELL('',(#939,#940,#941,#942,#943,#944,#945,#946,#947,#948));
#957=DERIVED_UNIT_ELEMENT(#959,1.);
#958=DERIVED_UNIT_ELEMENT(#1730,-3.);
#959=(
MASS_UNIT()
NAMED_UNIT(*)
SI_UNIT(.KILO.,.GRAM.)
);
#960=DERIVED_UNIT((#957,#958));
#961=MEASURE_REPRESENTATION_ITEM('density measure',
POSITIVE_RATIO_MEASURE(1000.),#960);
#962=PROPERTY_DEFINITION_REPRESENTATION(#967,#964);
#963=PROPERTY_DEFINITION_REPRESENTATION(#968,#965);
#964=REPRESENTATION('material name',(#966),#1727);
#965=REPRESENTATION('density',(#961),#1727);
#966=DESCRIPTIVE_REPRESENTATION_ITEM('Generic','Generic');
#967=PROPERTY_DEFINITION('material property','material name',#1737);
#968=PROPERTY_DEFINITION('material property','density of part',#1737);
#969=AXIS2_PLACEMENT_3D('',#1330,#1060,#1061);
#970=AXIS2_PLACEMENT_3D('',#1331,#1062,#1063);
#971=AXIS2_PLACEMENT_3D('',#1340,#1068,#1069);
#972=AXIS2_PLACEMENT_3D('',#1344,#1071,#1072);
#973=AXIS2_PLACEMENT_3D('',#1348,#1074,#1075);
#974=AXIS2_PLACEMENT_3D('',#1350,#1077,#1078);
#975=AXIS2_PLACEMENT_3D('',#1354,#1081,#1082);
#976=AXIS2_PLACEMENT_3D('',#1358,#1084,#1085);
#977=AXIS2_PLACEMENT_3D('',#1360,#1087,#1088);
#978=AXIS2_PLACEMENT_3D('',#1364,#1091,#1092);
#979=AXIS2_PLACEMENT_3D('',#1365,#1093,#1094);
#980=AXIS2_PLACEMENT_3D('',#1366,#1095,#1096);
#981=AXIS2_PLACEMENT_3D('',#1368,#1098,#1099);
#982=AXIS2_PLACEMENT_3D('',#1369,#1100,#1101);
#983=AXIS2_PLACEMENT_3D('',#1371,#1102,#1103);
#984=AXIS2_PLACEMENT_3D('',#1373,#1104,#1105);
#985=AXIS2_PLACEMENT_3D('',#1374,#1106,#1107);
#986=AXIS2_PLACEMENT_3D('',#1375,#1108,#1109);
#987=AXIS2_PLACEMENT_3D('',#1377,#1110,#1111);
#988=AXIS2_PLACEMENT_3D('',#1379,#1113,#1114);
#989=AXIS2_PLACEMENT_3D('',#1380,#1115,#1116);
#990=AXIS2_PLACEMENT_3D('',#1381,#1117,#1118);
#991=AXIS2_PLACEMENT_3D('',#1383,#1119,#1120);
#992=AXIS2_PLACEMENT_3D('',#1412,#1121,#1122);
#993=AXIS2_PLACEMENT_3D('',#1441,#1123,#1124);
#994=AXIS2_PLACEMENT_3D('',#1443,#1125,#1126);
#995=AXIS2_PLACEMENT_3D('',#1444,#1127,#1128);
#996=AXIS2_PLACEMENT_3D('',#1445,#1129,#1130);
#997=AXIS2_PLACEMENT_3D('',#1448,#1131,#1132);
#998=AXIS2_PLACEMENT_3D('',#1449,#1133,#1134);
#999=AXIS2_PLACEMENT_3D('',#1472,#1135,#1136);
#1000=AXIS2_PLACEMENT_3D('',#1473,#1137,#1138);
#1001=AXIS2_PLACEMENT_3D('',#1518,#1139,#1140);
#1002=AXIS2_PLACEMENT_3D('',#1520,#1141,#1142);
#1003=AXIS2_PLACEMENT_3D('',#1521,#1143,#1144);
#1004=AXIS2_PLACEMENT_3D('',#1537,#1145,#1146);
#1005=AXIS2_PLACEMENT_3D('',#1538,#1147,#1148);
#1006=AXIS2_PLACEMENT_3D('',#1539,#1149,#1150);
#1007=AXIS2_PLACEMENT_3D('',#1548,#1155,#1156);
#1008=AXIS2_PLACEMENT_3D('',#1554,#1160,#1161);
#1009=AXIS2_PLACEMENT_3D('',#1563,#1166,#1167);
#1010=AXIS2_PLACEMENT_3D('',#1569,#1171,#1172);
#1011=AXIS2_PLACEMENT_3D('',#1586,#1182,#1183);
#1012=AXIS2_PLACEMENT_3D('',#1595,#1188,#1189);
#1013=AXIS2_PLACEMENT_3D('',#1602,#1194,#1195);
#1014=AXIS2_PLACEMENT_3D('',#1604,#1197,#1198);
#1015=AXIS2_PLACEMENT_3D('',#1609,#1201,#1202);
#1016=AXIS2_PLACEMENT_3D('',#1610,#1203,#1204);
#1017=AXIS2_PLACEMENT_3D('',#1612,#1205,#1206);
#1018=AXIS2_PLACEMENT_3D('',#1616,#1209,#1210);
#1019=AXIS2_PLACEMENT_3D('',#1619,#1213,#1214);
#1020=AXIS2_PLACEMENT_3D('',#1623,#1217,#1218);
#1021=AXIS2_PLACEMENT_3D('',#1628,#1222,#1223);
#1022=AXIS2_PLACEMENT_3D('',#1630,#1225,#1226);
#1023=AXIS2_PLACEMENT_3D('',#1632,#1228,#1229);
#1024=AXIS2_PLACEMENT_3D('',#1633,#1230,#1231);
#1025=AXIS2_PLACEMENT_3D('',#1635,#1232,#1233);
#1026=AXIS2_PLACEMENT_3D('',#1638,#1235,#1236);
#1027=AXIS2_PLACEMENT_3D('',#1639,#1237,#1238);
#1028=AXIS2_PLACEMENT_3D('',#1643,#1240,#1241);
#1029=AXIS2_PLACEMENT_3D('',#1647,#1243,#1244);
#1030=AXIS2_PLACEMENT_3D('',#1650,#1246,#1247);
#1031=AXIS2_PLACEMENT_3D('',#1651,#1248,#1249);
#1032=AXIS2_PLACEMENT_3D('',#1655,#1252,#1253);
#1033=AXIS2_PLACEMENT_3D('',#1657,#1254,#1255);
#1034=AXIS2_PLACEMENT_3D('',#1661,#1257,#1258);
#1035=AXIS2_PLACEMENT_3D('',#1664,#1260,#1261);
#1036=AXIS2_PLACEMENT_3D('',#1665,#1262,#1263);
#1037=AXIS2_PLACEMENT_3D('',#1667,#1265,#1266);
#1038=AXIS2_PLACEMENT_3D('',#1669,#1268,#1269);
#1039=AXIS2_PLACEMENT_3D('',#1671,#1271,#1272);
#1040=AXIS2_PLACEMENT_3D('',#1673,#1274,#1275);
#1041=AXIS2_PLACEMENT_3D('',#1674,#1276,#1277);
#1042=AXIS2_PLACEMENT_3D('',#1675,#1278,#1279);
#1043=AXIS2_PLACEMENT_3D('',#1678,#1280,#1281);
#1044=AXIS2_PLACEMENT_3D('',#1682,#1283,#1284);
#1045=AXIS2_PLACEMENT_3D('',#1684,#1286,#1287);
#1046=AXIS2_PLACEMENT_3D('',#1690,#1291,#1292);
#1047=AXIS2_PLACEMENT_3D('',#1694,#1294,#1295);
#1048=AXIS2_PLACEMENT_3D('',#1698,#1297,#1298);
#1049=AXIS2_PLACEMENT_3D('',#1701,#1300,#1301);
#1050=AXIS2_PLACEMENT_3D('',#1702,#1302,#1303);
#1051=AXIS2_PLACEMENT_3D('',#1705,#1305,#1306);
#1052=AXIS2_PLACEMENT_3D('',#1706,#1307,#1308);
#1053=AXIS2_PLACEMENT_3D('',#1710,#1311,#1312);
#1054=AXIS2_PLACEMENT_3D('',#1714,#1314,#1315);
#1055=AXIS2_PLACEMENT_3D('',#1716,#1317,#1318);
#1056=AXIS2_PLACEMENT_3D('',#1720,#1321,#1322);
#1057=AXIS2_PLACEMENT_3D('',#1721,#1323,#1324);
#1058=AXIS2_PLACEMENT_3D('',#1722,#1325,#1326);
#1059=AXIS2_PLACEMENT_3D('',#1724,#1328,#1329);
#1060=DIRECTION('axis',(0.,0.,1.));
#1061=DIRECTION('refdir',(1.,0.,0.));
#1062=DIRECTION('center_axis',(0.,0.,-1.));
#1063=DIRECTION('ref_axis',(-1.,0.,0.));
#1064=DIRECTION('',(0.,-1.,0.));
#1065=DIRECTION('',(1.,0.,0.));
#1066=DIRECTION('',(0.,1.,0.));
#1067=DIRECTION('',(-1.,0.,0.));
#1068=DIRECTION('center_axis',(0.,-1.,2.22044604925031E-16));
#1069=DIRECTION('ref_axis',(1.,0.,0.));
#1070=DIRECTION('',(0.,-2.22044604925031E-16,-1.));
#1071=DIRECTION('center_axis',(0.,1.,-2.22044604925031E-16));
#1072=DIRECTION('ref_axis',(-0.707106781186546,-1.57009245868378E-16,-0.707106781186549));
#1073=DIRECTION('',(-1.,0.,0.));
#1074=DIRECTION('center_axis',(0.,1.,-2.22044604925031E-16));
#1075=DIRECTION('ref_axis',(0.707106781186546,-1.57009245868378E-16,-0.707106781186549));
#1076=DIRECTION('',(0.,2.22044604925031E-16,1.));
#1077=DIRECTION('center_axis',(-1.,0.,0.));
#1078=DIRECTION('ref_axis',(0.,-1.,2.22044604925031E-16));
#1079=DIRECTION('',(0.,-2.22044604925031E-16,-1.));
#1080=DIRECTION('',(0.,1.,-2.22044604925031E-16));
#1081=DIRECTION('center_axis',(0.,-1.,2.22044604925031E-16));
#1082=DIRECTION('ref_axis',(0.707106781186546,-1.57009245868378E-16,-0.707106781186549));
#1083=DIRECTION('',(0.,1.,-2.22044604925031E-16));
#1084=DIRECTION('center_axis',(0.,-1.,2.22044604925031E-16));
#1085=DIRECTION('ref_axis',(0.707106781186546,-1.57009245868378E-16,-0.707106781186549));
#1086=DIRECTION('',(0.,-1.,2.22044604925031E-16));
#1087=DIRECTION('center_axis',(0.,-2.22044604925031E-16,-1.));
#1088=DIRECTION('ref_axis',(0.,1.,-2.22044604925031E-16));
#1089=DIRECTION('',(0.,-1.,2.22044604925031E-16));
#1090=DIRECTION('',(1.,0.,0.));
#1091=DIRECTION('center_axis',(0.,1.,-2.22044604925031E-16));
#1092=DIRECTION('ref_axis',(-0.707106781186546,-1.57009245868378E-16,-0.707106781186549));
#1093=DIRECTION('center_axis',(0.,-1.,2.22044604925031E-16));
#1094=DIRECTION('ref_axis',(-0.707106781186546,-1.57009245868378E-16,-0.707106781186549));
#1095=DIRECTION('center_axis',(1.,0.,0.));
#1096=DIRECTION('ref_axis',(0.,2.22044604925031E-16,1.));
#1097=DIRECTION('',(0.,-2.22044604925031E-16,-1.));
#1098=DIRECTION('center_axis',(0.,-1.,2.22044604925031E-16));
#1099=DIRECTION('ref_axis',(1.,0.,0.));
#1100=DIRECTION('center_axis',(0.,-1.,2.22044604925031E-16));
#1101=DIRECTION('ref_axis',(0.,0.,-1.));
#1102=DIRECTION('center_axis',(0.,1.,-2.22044604925031E-16));
#1103=DIRECTION('ref_axis',(0.,-2.22044604925031E-16,-1.));
#1104=DIRECTION('center_axis',(-1.,-2.71926214689378E-32,-1.22464679914735E-16));
#1105=DIRECTION('ref_axis',(-1.22464679914735E-16,0.,1.));
#1106=DIRECTION('center_axis',(0.,-1.,2.22044604925031E-16));
#1107=DIRECTION('ref_axis',(0.,-2.08166817117217E-16,-1.));
#1108=DIRECTION('center_axis',(0.,1.,-2.22044604925031E-16));
#1109=DIRECTION('ref_axis',(0.,-2.22044604925031E-16,-1.));
#1110=DIRECTION('center_axis',(0.,-1.,2.96059473233375E-16));
#1111=DIRECTION('ref_axis',(0.,-2.22044604925031E-16,-1.));
#1112=DIRECTION('',(0.,-1.,2.22044604925031E-16));
#1113=DIRECTION('center_axis',(0.,1.,-2.22044604925031E-16));
#1114=DIRECTION('ref_axis',(0.,-2.22044604925031E-16,-1.));
#1115=DIRECTION('center_axis',(0.,-1.,2.22044604925031E-16));
#1116=DIRECTION('ref_axis',(1.,0.,0.));
#1117=DIRECTION('center_axis',(0.,1.,-2.22044604925031E-16));
#1118=DIRECTION('ref_axis',(0.,-2.22044604925031E-16,-1.));
#1119=DIRECTION('center_axis',(0.,1.,-2.22044604925031E-16));
#1120=DIRECTION('ref_axis',(-0.210604759919009,-2.1706443179029E-16,-0.97757129412614));
#1121=DIRECTION('center_axis',(8.23019375520378E-22,-3.39255028683688E-11,
1.));
#1122=DIRECTION('ref_axis',(-1.,-2.42596072551585E-11,0.));
#1123=DIRECTION('center_axis',(0.,1.,-2.22044604925031E-16));
#1124=DIRECTION('ref_axis',(-0.210604759919009,-2.1706443179029E-16,-0.97757129412614));
#1125=DIRECTION('center_axis',(1.29791562314875E-22,-7.53205158584734E-12,
1.));
#1126=DIRECTION('ref_axis',(-1.,-1.72319003442238E-11,0.));
#1127=DIRECTION('center_axis',(0.,1.,-2.22044604925031E-16));
#1128=DIRECTION('ref_axis',(0.,-2.22044604925031E-16,-1.));
#1129=DIRECTION('center_axis',(0.,1.,-2.22044604925031E-16));
#1130=DIRECTION('ref_axis',(0.,-2.22044604925031E-16,-1.));
#1131=DIRECTION('center_axis',(0.,1.,-2.22044604925031E-16));
#1132=DIRECTION('ref_axis',(0.210604759919009,2.1706443179029E-16,0.97757129412614));
#1133=DIRECTION('center_axis',(0.,1.,-2.22044604925031E-16));
#1134=DIRECTION('ref_axis',(-0.210604759919009,-2.1706443179029E-16,-0.97757129412614));
#1135=DIRECTION('center_axis',(0.97757129412614,-1.86395098847444E-17,-0.210604759919009));
#1136=DIRECTION('ref_axis',(0.00424634567700381,-0.999796713529656,0.0197104074968293));
#1137=DIRECTION('center_axis',(-0.97757129412614,-1.05090502214632E-15,
0.210604759919009));
#1138=DIRECTION('ref_axis',(-0.00424634567700482,-0.999796713529655,-0.0197104074968389));
#1139=DIRECTION('center_axis',(0.,1.,-2.22044604925031E-16));
#1140=DIRECTION('ref_axis',(-0.210604759919009,-2.1706443179029E-16,-0.97757129412614));
#1141=DIRECTION('center_axis',(0.97757129412614,-9.95539813309871E-16,-0.210604759919009));
#1142=DIRECTION('ref_axis',(0.00424634567700281,-0.999796713529656,0.0197104074968293));
#1143=DIRECTION('center_axis',(-0.97757129412614,1.05344245618859E-15,0.210604759919009));
#1144=DIRECTION('ref_axis',(-0.00424634567700481,-0.999796713529656,-0.0197104074968289));
#1145=DIRECTION('center_axis',(0.,1.,-2.22044604925031E-16));
#1146=DIRECTION('ref_axis',(0.210604759919009,2.1706443179029E-16,0.97757129412614));
#1147=DIRECTION('center_axis',(0.,1.,-2.22044604925031E-16));
#1148=DIRECTION('ref_axis',(0.,-2.22044604925031E-16,-1.));
#1149=DIRECTION('center_axis',(0.,2.22044604925031E-16,1.));
#1150=DIRECTION('ref_axis',(1.,0.,0.));
#1151=DIRECTION('',(0.,-1.,2.22044604925031E-16));
#1152=DIRECTION('',(-1.,0.,0.));
#1153=DIRECTION('',(0.,-1.,2.22044604925031E-16));
#1154=DIRECTION('',(1.,0.,0.));
#1155=DIRECTION('center_axis',(0.,1.,-2.22044604925031E-16));
#1156=DIRECTION('ref_axis',(0.,-2.22044604925031E-16,-1.));
#1157=DIRECTION('',(0.,2.22044604925031E-16,1.));
#1158=DIRECTION('',(1.,0.,0.));
#1159=DIRECTION('',(0.,2.22044604925031E-16,1.));
#1160=DIRECTION('center_axis',(0.,-1.,2.22044604925031E-16));
#1161=DIRECTION('ref_axis',(1.,0.,0.));
#1162=DIRECTION('',(0.,-2.22044604925031E-16,-1.));
#1163=DIRECTION('',(-1.,0.,0.));
#1164=DIRECTION('',(0.,-2.22044604925031E-16,-1.));
#1165=DIRECTION('',(-1.,0.,0.));
#1166=DIRECTION('center_axis',(0.,-2.22044604925031E-16,-1.));
#1167=DIRECTION('ref_axis',(0.,1.,-2.22044604925031E-16));
#1168=DIRECTION('',(0.,1.,-2.22044604925031E-16));
#1169=DIRECTION('',(-1.,0.,0.));
#1170=DIRECTION('',(0.,1.,-2.22044604925031E-16));
#1171=DIRECTION('center_axis',(0.,-2.22044604925031E-16,-1.));
#1172=DIRECTION('ref_axis',(0.,1.,-2.22044604925031E-16));
#1173=DIRECTION('',(0.,-1.,2.22044604925031E-16));
#1174=DIRECTION('',(1.,0.,0.));
#1175=DIRECTION('',(0.,1.,-2.22044604925031E-16));
#1176=DIRECTION('',(1.,0.,0.));
#1177=DIRECTION('',(0.,-1.,2.22044604925031E-16));
#1178=DIRECTION('',(1.,0.,0.));
#1179=DIRECTION('',(0.,-1.,2.22044604925031E-16));
#1180=DIRECTION('',(0.,1.,-2.22044604925031E-16));
#1181=DIRECTION('',(1.,0.,0.));
#1182=DIRECTION('center_axis',(0.,-2.22044604925031E-16,-1.));
#1183=DIRECTION('ref_axis',(0.,1.,-2.22044604925031E-16));
#1184=DIRECTION('',(0.,1.,-2.22044604925031E-16));
#1185=DIRECTION('',(1.,0.,0.));
#1186=DIRECTION('',(0.,1.,-2.22044604925031E-16));
#1187=DIRECTION('',(1.,0.,0.));
#1188=DIRECTION('center_axis',(0.,2.22044604925031E-16,1.));
#1189=DIRECTION('ref_axis',(1.,0.,0.));
#1190=DIRECTION('',(1.,0.,0.));
#1191=DIRECTION('',(0.,-1.,2.22044604925031E-16));
#1192=DIRECTION('',(-1.,0.,0.));
#1193=DIRECTION('',(0.,-1.,2.22044604925031E-16));
#1194=DIRECTION('center_axis',(-1.,0.,0.));
#1195=DIRECTION('ref_axis',(0.,-1.,2.22044604925031E-16));
#1196=DIRECTION('',(0.,2.31296463463574E-16,1.));
#1197=DIRECTION('center_axis',(0.,-1.,2.22044604925031E-16));
#1198=DIRECTION('ref_axis',(0.,2.22044604925031E-16,1.));
#1199=DIRECTION('',(0.,2.22044604925031E-16,1.));
#1200=DIRECTION('',(-1.,0.,0.));
#1201=DIRECTION('center_axis',(0.,1.,-2.22044604925031E-16));
#1202=DIRECTION('ref_axis',(0.707106781186548,0.,-0.707106781186547));
#1203=DIRECTION('center_axis',(0.,1.,-2.22044604925031E-16));
#1204=DIRECTION('ref_axis',(0.,-2.22044604925031E-16,-1.));
#1205=DIRECTION('center_axis',(0.,-1.,2.22044604925031E-16));
#1206=DIRECTION('ref_axis',(0.707106781186548,0.,-0.707106781186547));
#1207=DIRECTION('',(-1.,0.,0.));
#1208=DIRECTION('',(0.,-2.22044604925031E-16,-1.));
#1209=DIRECTION('center_axis',(0.,2.22044604925031E-16,1.));
#1210=DIRECTION('ref_axis',(0.,1.,-2.22044604925031E-16));
#1211=DIRECTION('',(0.,-1.,2.22044604925031E-16));
#1212=DIRECTION('',(0.,1.,-2.22044604925031E-16));
#1213=DIRECTION('center_axis',(-1.,0.,0.));
#1214=DIRECTION('ref_axis',(0.,-1.,2.22044604925031E-16));
#1215=DIRECTION('',(0.,-2.31296463463574E-16,-1.));
#1216=DIRECTION('',(0.,1.,-2.22044604925031E-16));
#1217=DIRECTION('center_axis',(0.,-2.22044604925031E-16,-1.));
#1218=DIRECTION('ref_axis',(0.,1.,-2.22044604925031E-16));
#1219=DIRECTION('',(1.,0.,0.));
#1220=DIRECTION('',(-1.,0.,0.));
#1221=DIRECTION('',(0.,1.,-2.22044604925031E-16));
#1222=DIRECTION('center_axis',(0.,-1.,2.31296463463574E-16));
#1223=DIRECTION('ref_axis',(0.,-2.31296463463574E-16,-1.));
#1224=DIRECTION('',(0.,-2.31296463463574E-16,-1.));
#1225=DIRECTION('center_axis',(1.,0.,0.));
#1226=DIRECTION('ref_axis',(0.,2.22044604925031E-16,1.));
#1227=DIRECTION('',(0.,2.31296463463574E-16,1.));
#1228=DIRECTION('center_axis',(1.,0.,0.));
#1229=DIRECTION('ref_axis',(0.,2.22044604925031E-16,1.));
#1230=DIRECTION('center_axis',(0.,-1.,2.22044604925031E-16));
#1231=DIRECTION('ref_axis',(0.707106781186548,0.,-0.707106781186547));
#1232=DIRECTION('center_axis',(0.,-1.,2.22044604925031E-16));
#1233=DIRECTION('ref_axis',(0.707106781186548,0.,-0.707106781186547));
#1234=DIRECTION('',(0.,-1.,2.22044604925031E-16));
#1235=DIRECTION('center_axis',(0.,1.,-2.22044604925031E-16));
#1236=DIRECTION('ref_axis',(0.707106781186548,0.,-0.707106781186547));
#1237=DIRECTION('center_axis',(0.,1.,-2.22044604925031E-16));
#1238=DIRECTION('ref_axis',(0.,-2.22044604925031E-16,-1.));
#1239=DIRECTION('',(0.,2.22044604925031E-16,1.));
#1240=DIRECTION('center_axis',(0.,1.,-2.22044604925031E-16));
#1241=DIRECTION('ref_axis',(0.707106781186547,0.,0.707106781186548));
#1242=DIRECTION('',(-1.,0.,0.));
#1243=DIRECTION('center_axis',(0.,1.,-2.22044604925031E-16));
#1244=DIRECTION('ref_axis',(-0.707106781186548,0.,0.707106781186548));
#1245=DIRECTION('',(0.,-2.22044604925031E-16,-1.));
#1246=DIRECTION('center_axis',(0.,1.,-2.22044604925031E-16));
#1247=DIRECTION('ref_axis',(-0.707106781186549,0.,-0.707106781186546));
#1248=DIRECTION('center_axis',(-1.,0.,0.));
#1249=DIRECTION('ref_axis',(0.,0.,1.));
#1250=DIRECTION('',(0.,-2.22044604925031E-16,-1.));
#1251=DIRECTION('',(0.,1.,0.));
#1252=DIRECTION('center_axis',(0.,-1.,2.22044604925031E-16));
#1253=DIRECTION('ref_axis',(1.,0.,0.));
#1254=DIRECTION('center_axis',(0.,-1.,2.22044604925031E-16));
#1255=DIRECTION('ref_axis',(-0.707106781186549,0.,-0.707106781186546));
#1256=DIRECTION('',(0.,2.22044604925031E-16,1.));
#1257=DIRECTION('center_axis',(0.,-1.,2.22044604925031E-16));
#1258=DIRECTION('ref_axis',(-0.707106781186548,0.,0.707106781186548));
#1259=DIRECTION('',(1.,0.,0.));
#1260=DIRECTION('center_axis',(0.,-1.,2.22044604925031E-16));
#1261=DIRECTION('ref_axis',(0.707106781186547,0.,0.707106781186548));
#1262=DIRECTION('center_axis',(0.,1.,-2.22044604925031E-16));
#1263=DIRECTION('ref_axis',(-0.707106781186549,0.,-0.707106781186546));
#1264=DIRECTION('',(0.,1.,-2.22044604925031E-16));
#1265=DIRECTION('center_axis',(1.,0.,0.));
#1266=DIRECTION('ref_axis',(0.,0.,-1.));
#1267=DIRECTION('',(0.,-1.,0.));
#1268=DIRECTION('center_axis',(0.,1.,0.));
#1269=DIRECTION('ref_axis',(0.707106781186547,0.,0.707106781186548));
#1270=DIRECTION('',(0.,-1.,0.));
#1271=DIRECTION('center_axis',(0.,0.,-1.));
#1272=DIRECTION('ref_axis',(-1.,0.,0.));
#1273=DIRECTION('',(0.,1.,0.));
#1274=DIRECTION('center_axis',(0.,-1.,0.));
#1275=DIRECTION('ref_axis',(-0.707106781186548,0.,0.707106781186548));
#1276=DIRECTION('center_axis',(0.,-1.,2.31296463463574E-16));
#1277=DIRECTION('ref_axis',(0.,-2.31296463463574E-16,-1.));
#1278=DIRECTION('center_axis',(0.,1.,0.));
#1279=DIRECTION('ref_axis',(0.707106781186549,0.,-0.707106781186546));
#1280=DIRECTION('center_axis',(0.,-1.,3.36431219583381E-16));
#1281=DIRECTION('ref_axis',(0.707106781186549,0.,-0.707106781186546));
#1282=DIRECTION('',(0.,-1.,0.));
#1283=DIRECTION('center_axis',(0.,1.,-3.36431219583381E-16));
#1284=DIRECTION('ref_axis',(0.707106781186549,0.,-0.707106781186546));
#1285=DIRECTION('',(0.,1.,0.));
#1286=DIRECTION('center_axis',(0.,0.,1.));
#1287=DIRECTION('ref_axis',(1.,0.,0.));
#1288=DIRECTION('',(1.,0.,0.));
#1289=DIRECTION('',(0.,-1.,0.));
#1290=DIRECTION('',(-1.,0.,0.));
#1291=DIRECTION('center_axis',(0.,-1.,3.36431219583381E-16));
#1292=DIRECTION('ref_axis',(1.,0.,0.));
#1293=DIRECTION('',(0.,3.36431219583381E-16,1.));
#1294=DIRECTION('center_axis',(0.,1.,-3.36431219583381E-16));
#1295=DIRECTION('ref_axis',(0.707106781186549,0.,0.707106781186546));
#1296=DIRECTION('',(-1.,0.,0.));
#1297=DIRECTION('center_axis',(0.,1.,-3.36431219583381E-16));
#1298=DIRECTION('ref_axis',(-0.707106781186549,0.,0.707106781186546));
#1299=DIRECTION('',(0.,-3.36431219583381E-16,-1.));
#1300=DIRECTION('center_axis',(0.,1.,-3.36431219583381E-16));
#1301=DIRECTION('ref_axis',(-0.707106781186549,0.,-0.707106781186546));
#1302=DIRECTION('center_axis',(0.,-1.,0.));
#1303=DIRECTION('ref_axis',(-0.707106781186549,0.,-0.707106781186546));
#1304=DIRECTION('',(0.,1.,0.));
#1305=DIRECTION('center_axis',(0.,-1.,3.36431219583381E-16));
#1306=DIRECTION('ref_axis',(-0.707106781186549,0.,-0.707106781186546));
#1307=DIRECTION('center_axis',(1.,0.,0.));
#1308=DIRECTION('ref_axis',(0.,0.,-1.));
#1309=DIRECTION('',(0.,-1.,0.));
#1310=DIRECTION('',(0.,3.36431219583381E-16,1.));
#1311=DIRECTION('center_axis',(0.,-1.,0.));
#1312=DIRECTION('ref_axis',(0.707106781186549,0.,0.707106781186546));
#1313=DIRECTION('',(0.,1.,0.));
#1314=DIRECTION('center_axis',(0.,-1.,3.36431219583381E-16));
#1315=DIRECTION('ref_axis',(0.707106781186549,0.,0.707106781186546));
#1316=DIRECTION('',(0.,-1.,0.));
#1317=DIRECTION('center_axis',(0.,0.,-1.));
#1318=DIRECTION('ref_axis',(-1.,0.,0.));
#1319=DIRECTION('',(1.,0.,0.));
#1320=DIRECTION('',(0.,1.,0.));
#1321=DIRECTION('center_axis',(0.,1.,0.));
#1322=DIRECTION('ref_axis',(-0.707106781186549,0.,0.707106781186546));
#1323=DIRECTION('center_axis',(0.,-1.,3.36431219583381E-16));
#1324=DIRECTION('ref_axis',(-0.707106781186549,0.,0.707106781186546));
#1325=DIRECTION('center_axis',(-1.,0.,0.));
#1326=DIRECTION('ref_axis',(0.,0.,1.));
#1327=DIRECTION('',(0.,-3.36431219583381E-16,-1.));
#1328=DIRECTION('center_axis',(0.,1.,-3.36431219583381E-16));
#1329=DIRECTION('ref_axis',(-1.,0.,0.));
#1330=CARTESIAN_POINT('',(0.,0.,0.));
#1331=CARTESIAN_POINT('Origin',(3.,0.1,0.200000037997964));
#1332=CARTESIAN_POINT('',(0.6,0.1,0.200000037997964));
#1333=CARTESIAN_POINT('',(0.6,-0.3,0.200000037997964));
#1334=CARTESIAN_POINT('',(0.6,-0.1,0.200000037997964));
#1335=CARTESIAN_POINT('',(-0.6,0.1,0.200000037997964));
#1336=CARTESIAN_POINT('',(1.5,0.1,0.200000037997964));
#1337=CARTESIAN_POINT('',(-0.6,-0.3,0.200000037997964));
#1338=CARTESIAN_POINT('',(-0.6,-0.1,0.200000037997964));
#1339=CARTESIAN_POINT('',(1.5,-0.3,0.200000037997964));
#1340=CARTESIAN_POINT('Origin',(0.,-0.3,3.9));
#1341=CARTESIAN_POINT('',(-0.6,-0.3,-0.449999999999999));
#1342=CARTESIAN_POINT('',(-0.6,-0.3,0.600000000000001));
#1343=CARTESIAN_POINT('',(-0.35,-0.3,-0.699999999999999));
#1344=CARTESIAN_POINT('Origin',(-0.35,-0.3,-0.449999999999999));
#1345=CARTESIAN_POINT('',(0.35,-0.3,-0.699999999999999));
#1346=CARTESIAN_POINT('',(-0.6,-0.3,-0.699999999999999));
#1347=CARTESIAN_POINT('',(0.6,-0.3,-0.449999999999999));
#1348=CARTESIAN_POINT('Origin',(0.35,-0.3,-0.449999999999999));
#1349=CARTESIAN_POINT('',(0.6,-0.3,0.200000000000001));
#1350=CARTESIAN_POINT('Origin',(-0.6,-0.3,0.600000000000001));
#1351=CARTESIAN_POINT('',(-0.6,0.1,-0.449999999999999));
#1352=CARTESIAN_POINT('',(-0.6,0.1,0.200000000000001));
#1353=CARTESIAN_POINT('',(-0.6,-0.3,-0.449999999999999));
#1354=CARTESIAN_POINT('Origin',(0.35,-0.3,-0.449999999999999));
#1355=CARTESIAN_POINT('',(0.35,0.1,-0.699999999999999));
#1356=CARTESIAN_POINT('',(0.35,-0.3,-0.699999999999999));
#1357=CARTESIAN_POINT('',(0.6,0.1,-0.449999999999999));
#1358=CARTESIAN_POINT('Origin',(0.35,0.1,-0.449999999999999));
#1359=CARTESIAN_POINT('',(0.6,-0.3,-0.449999999999999));
#1360=CARTESIAN_POINT('Origin',(-0.6,-0.3,-0.699999999999999));
#1361=CARTESIAN_POINT('',(-0.35,0.1,-0.699999999999999));
#1362=CARTESIAN_POINT('',(-0.35,-0.3,-0.699999999999999));
#1363=CARTESIAN_POINT('',(0.6,0.1,-0.699999999999999));
#1364=CARTESIAN_POINT('Origin',(-0.35,-0.3,-0.449999999999999));
#1365=CARTESIAN_POINT('Origin',(-0.35,0.1,-0.449999999999999));
#1366=CARTESIAN_POINT('Origin',(0.6,-0.3,0.200000000000001));
#1367=CARTESIAN_POINT('',(0.6,0.1,0.600000000000001));
#1368=CARTESIAN_POINT('Origin',(0.,0.1,3.9));
#1369=CARTESIAN_POINT('Origin',(0.,-3.,2.4));
#1370=CARTESIAN_POINT('',(8.57252759403147E-17,-3.3,3.1));
#1371=CARTESIAN_POINT('Origin',(0.,-3.3,2.4));
#1372=CARTESIAN_POINT('',(-1.22464679914735E-16,-3.,3.4));
#1373=CARTESIAN_POINT('Origin',(-8.57252759403147E-17,-3.,3.1));
#1374=CARTESIAN_POINT('Origin',(0.,-3.,2.4));
#1375=CARTESIAN_POINT('Origin',(0.,-0.449999999999999,2.4));
#1376=CARTESIAN_POINT('',(1.22464679914735E-16,-0.199999570846556,3.4));
#1377=CARTESIAN_POINT('Origin',(0.,-0.199999570846556,2.4));
#1378=CARTESIAN_POINT('',(1.22464679914735E-16,-0.449999999999999,3.4));
#1379=CARTESIAN_POINT('Origin',(0.,-3.3,2.4));
#1380=CARTESIAN_POINT('Origin',(0.726158766485,-0.199999999999998,1.7585088358971));
#1381=CARTESIAN_POINT('Origin',(-1.355607176468,-0.299999999999998,3.94734881002));
#1382=CARTESIAN_POINT('',(-2.0999997992876,-0.300000984322999,3.99999999999614));
#1383=CARTESIAN_POINT('Origin',(-1.6,-0.300000984322999,4.));
#1384=CARTESIAN_POINT('Ctrl Pts',(-2.09999979929019,-0.300000984311831,
3.99999999999614));
#1385=CARTESIAN_POINT('Ctrl Pts',(-2.09999979929019,-0.300000984294868,
3.50000020070313));
#1386=CARTESIAN_POINT('Ctrl Pts',(-1.59999999999718,-0.300000984282738,
3.50000020070313));
#1387=CARTESIAN_POINT('Ctrl Pts',(-1.10000020070418,-0.300000984270608,
3.50000020070313));
#1388=CARTESIAN_POINT('Ctrl Pts',(-1.10000020070418,-0.300000984287571,
3.99999999999614));
#1389=CARTESIAN_POINT('Ctrl Pts',(-1.10000020070418,-0.300000984304534,
4.49999979928915));
#1390=CARTESIAN_POINT('Ctrl Pts',(-1.59999999999718,-0.300000984316663,
4.49999979928915));
#1391=CARTESIAN_POINT('Ctrl Pts',(-2.09999979929019,-0.300000984328793,
4.49999979928915));
#1392=CARTESIAN_POINT('Ctrl Pts',(-2.09999979929019,-0.300000984311831,
3.99999999999614));
#1393=CARTESIAN_POINT('Ctrl Pts',(-2.01672230311291,-0.70840392568159,3.99999999998229));
#1394=CARTESIAN_POINT('Ctrl Pts',(-2.01672230311291,-0.708403925667453,
3.58327769685666));
#1395=CARTESIAN_POINT('Ctrl Pts',(-1.59999999998728,-0.708403925657343,
3.58327769685666));
#1396=CARTESIAN_POINT('Ctrl Pts',(-1.18327769686165,-0.708403925647234,
3.58327769685666));
#1397=CARTESIAN_POINT('Ctrl Pts',(-1.18327769686165,-0.708403925661371,
3.99999999998229));
#1398=CARTESIAN_POINT('Ctrl Pts',(-1.18327769686165,-0.708403925675509,
4.41672230310792));
#1399=CARTESIAN_POINT('Ctrl Pts',(-1.59999999998728,-0.708403925685618,
4.41672230310792));
#1400=CARTESIAN_POINT('Ctrl Pts',(-2.01672230311291,-0.708403925695728,
4.41672230310792));
#1401=CARTESIAN_POINT('Ctrl Pts',(-2.01672230311291,-0.70840392568159,3.99999999998229));
#1402=CARTESIAN_POINT('Ctrl Pts',(-1.59999999998748,-0.699999999999519,
3.99999999998257));
#1403=CARTESIAN_POINT('Ctrl Pts',(-1.59999999998748,-0.699999999999519,
3.99999999998257));
#1404=CARTESIAN_POINT('Ctrl Pts',(-1.59999999998748,-0.699999999999519,
3.99999999998257));
#1405=CARTESIAN_POINT('Ctrl Pts',(-1.59999999998748,-0.699999999999519,
3.99999999998257));
#1406=CARTESIAN_POINT('Ctrl Pts',(-1.59999999998748,-0.699999999999519,
3.99999999998257));
#1407=CARTESIAN_POINT('Ctrl Pts',(-1.59999999998748,-0.699999999999519,
3.99999999998257));
#1408=CARTESIAN_POINT('Ctrl Pts',(-1.59999999998748,-0.699999999999519,
3.99999999998257));
#1409=CARTESIAN_POINT('Ctrl Pts',(-1.59999999998748,-0.699999999999519,
3.99999999998257));
#1410=CARTESIAN_POINT('Ctrl Pts',(-1.59999999998748,-0.699999999999519,
3.99999999998257));
#1411=CARTESIAN_POINT('',(-1.6,-0.699999999999998,4.));
#1412=CARTESIAN_POINT('Origin',(-1.61008131458796,-0.200101643234281,3.99999999999953));
#1413=CARTESIAN_POINT('Ctrl Pts',(-1.99999979928814,-0.300000984308227,
0.899999999999111));
#1414=CARTESIAN_POINT('Ctrl Pts',(-1.99999979928814,-0.300000984304461,
0.400000200709724));
#1415=CARTESIAN_POINT('Ctrl Pts',(-1.49999999999875,-0.300000984295845,
0.400000200709723));
#1416=CARTESIAN_POINT('Ctrl Pts',(-1.00000020070936,-0.300000984287229,
0.400000200709724));
#1417=CARTESIAN_POINT('Ctrl Pts',(-1.00000020070936,-0.300000984290995,
0.899999999999111));
#1418=CARTESIAN_POINT('Ctrl Pts',(-1.00000020070936,-0.300000984294761,
1.3999997992885));
#1419=CARTESIAN_POINT('Ctrl Pts',(-1.49999999999875,-0.300000984303377,
1.3999997992885));
#1420=CARTESIAN_POINT('Ctrl Pts',(-1.99999979928814,-0.300000984311993,
1.3999997992885));
#1421=CARTESIAN_POINT('Ctrl Pts',(-1.99999979928814,-0.300000984308227,
0.899999999999111));
#1422=CARTESIAN_POINT('Ctrl Pts',(-1.91672230310623,-0.70840392566569,0.899999999996035));
#1423=CARTESIAN_POINT('Ctrl Pts',(-1.91672230310623,-0.708403925662551,
0.483277696881519));
#1424=CARTESIAN_POINT('Ctrl Pts',(-1.49999999999171,-0.70840392565537,0.483277696881519));
#1425=CARTESIAN_POINT('Ctrl Pts',(-1.08327769687719,-0.708403925648189,
0.483277696881519));
#1426=CARTESIAN_POINT('Ctrl Pts',(-1.08327769687719,-0.708403925651328,
0.899999999996035));
#1427=CARTESIAN_POINT('Ctrl Pts',(-1.08327769687719,-0.708403925654467,
1.31672230311055));
#1428=CARTESIAN_POINT('Ctrl Pts',(-1.49999999999171,-0.708403925661648,
1.31672230311055));
#1429=CARTESIAN_POINT('Ctrl Pts',(-1.91672230310623,-0.708403925668829,
1.31672230311055));
#1430=CARTESIAN_POINT('Ctrl Pts',(-1.91672230310623,-0.70840392566569,0.899999999996035));
#1431=CARTESIAN_POINT('Ctrl Pts',(-1.49999999999185,-0.699999999987254,
0.899999999996098));
#1432=CARTESIAN_POINT('Ctrl Pts',(-1.49999999999185,-0.699999999987254,
0.899999999996098));
#1433=CARTESIAN_POINT('Ctrl Pts',(-1.49999999999185,-0.699999999987254,
0.899999999996098));
#1434=CARTESIAN_POINT('Ctrl Pts',(-1.49999999999185,-0.699999999987254,
0.899999999996098));
#1435=CARTESIAN_POINT('Ctrl Pts',(-1.49999999999185,-0.699999999987254,
0.899999999996098));
#1436=CARTESIAN_POINT('Ctrl Pts',(-1.49999999999185,-0.699999999987254,
0.899999999996098));
#1437=CARTESIAN_POINT('Ctrl Pts',(-1.49999999999185,-0.699999999987254,
0.899999999996098));
#1438=CARTESIAN_POINT('Ctrl Pts',(-1.49999999999185,-0.699999999987254,
0.899999999996098));
#1439=CARTESIAN_POINT('Ctrl Pts',(-1.49999999999185,-0.699999999987254,
0.899999999996098));
#1440=CARTESIAN_POINT('',(-1.9999997992876,-0.300000984310185,0.899999999999111));
#1441=CARTESIAN_POINT('Origin',(-1.5,-0.300000984310185,0.900000000000001));
#1442=CARTESIAN_POINT('',(-1.49999999999185,-0.699999999987253,0.899999999996098));
#1443=CARTESIAN_POINT('Origin',(-1.51008131458823,-0.200101643222599,0.899999999999864));
#1444=CARTESIAN_POINT('Origin',(-1.955607176468,-0.3,0.947348810020001));
#1445=CARTESIAN_POINT('Origin',(1.744392823532,-0.3,0.847348810020001));
#1446=CARTESIAN_POINT('',(1.60530233770763,-0.300000983890432,1.38878545093839));
#1447=CARTESIAN_POINT('',(1.39469766229237,-0.300000983890434,0.411214549061616));
#1448=CARTESIAN_POINT('Origin',(1.5,-0.300000984322999,0.900000000000001));
#1449=CARTESIAN_POINT('Origin',(1.5,-0.300000984322999,0.900000000000001));
#1450=CARTESIAN_POINT('Ctrl Pts',(1.60530311419251,-0.300000983844679,1.38878528366418));
#1451=CARTESIAN_POINT('Ctrl Pts',(1.31886791651205,-0.300000983866859,1.45049442126683));
#1452=CARTESIAN_POINT('Ctrl Pts',(1.12503728659006,-0.300000983884909,1.23076088482336));
#1453=CARTESIAN_POINT('Ctrl Pts',(0.93120665666807,-0.30000098390297,1.01102734837989));
#1454=CARTESIAN_POINT('Ctrl Pts',(1.02817410452007,-0.30000098389843,0.734530595793211));
#1455=CARTESIAN_POINT('Ctrl Pts',(1.12514155237208,-0.3000009838939,0.458033843206531));
#1456=CARTESIAN_POINT('Ctrl Pts',(1.41375701665447,-0.300000983871409,0.40749421607128));
#1457=CARTESIAN_POINT('Ctrl Pts',(1.58776434787374,-0.70840392566764,1.30737562211621));
#1458=CARTESIAN_POINT('Ctrl Pts',(1.34903638132185,-0.70840392568613,1.35880679069064));
#1459=CARTESIAN_POINT('Ctrl Pts',(1.1874892233208,-0.708403925701171,1.17567098628114));
#1460=CARTESIAN_POINT('Ctrl Pts',(1.02594206531975,-0.708403925716219,0.992535181871641));
#1461=CARTESIAN_POINT('Ctrl Pts',(1.10675909421457,-0.70840392571244,0.762090362108771));
#1462=CARTESIAN_POINT('Ctrl Pts',(1.18757612310939,-0.708403925708661,0.531645542345891));
#1463=CARTESIAN_POINT('Ctrl Pts',(1.4281212218316,-0.70840392568992,0.489523545768681));
#1464=CARTESIAN_POINT('Ctrl Pts',(1.50000000004034,-0.699999999999521,0.900000000005941));
#1465=CARTESIAN_POINT('Ctrl Pts',(1.50000000004034,-0.699999999999521,0.900000000005941));
#1466=CARTESIAN_POINT('Ctrl Pts',(1.50000000004034,-0.699999999999521,0.900000000005941));
#1467=CARTESIAN_POINT('Ctrl Pts',(1.50000000004034,-0.699999999999521,0.900000000005941));
#1468=CARTESIAN_POINT('Ctrl Pts',(1.50000000004034,-0.699999999999521,0.900000000005941));
#1469=CARTESIAN_POINT('Ctrl Pts',(1.50000000004034,-0.699999999999521,0.900000000005941));
#1470=CARTESIAN_POINT('Ctrl Pts',(1.50000000004034,-0.699999999999521,0.900000000005941));
#1471=CARTESIAN_POINT('',(1.5,-0.700000000000001,0.900000000000001));
#1472=CARTESIAN_POINT('Origin',(1.497876827161,-0.200101643235,0.890144796252001));
#1473=CARTESIAN_POINT('Origin',(1.502123172839,-0.200101643235,0.909855203748001));
#1474=CARTESIAN_POINT('Ctrl Pts',(1.3946968886029,-0.30000098384934,0.411214715734771));
#1475=CARTESIAN_POINT('Ctrl Pts',(1.68367723954078,-0.30000098386763,0.348957256142351));
#1476=CARTESIAN_POINT('Ctrl Pts',(1.87750972391655,-0.30000098388254,0.572149107480611));
#1477=CARTESIAN_POINT('Ctrl Pts',(2.07134220829232,-0.300000983897459,0.795340958818861));
#1478=CARTESIAN_POINT('Ctrl Pts',(1.96920992136348,-0.30000098389354,1.07274793506453));
#1479=CARTESIAN_POINT('Ctrl Pts',(1.86707763443463,-0.300000983889619,1.3501549113102));
#1480=CARTESIAN_POINT('Ctrl Pts',(1.57479302451898,-0.300000983870929,1.39437415270508));
#1481=CARTESIAN_POINT('Ctrl Pts',(1.4122356544626,-0.708403925669561,0.492624377385022));
#1482=CARTESIAN_POINT('Ctrl Pts',(1.65308486612116,-0.7084039256848,0.440736212622141));
#1483=CARTESIAN_POINT('Ctrl Pts',(1.81463356970675,-0.70840392569723,0.626754332085871));
#1484=CARTESIAN_POINT('Ctrl Pts',(1.97618227329234,-0.70840392570966,0.812772451549601));
#1485=CARTESIAN_POINT('Ctrl Pts',(1.89106063539598,-0.708403925706389,1.04397589261579));
#1486=CARTESIAN_POINT('Ctrl Pts',(1.80593899749962,-0.70840392570312,1.27517933368199));
#1487=CARTESIAN_POINT('Ctrl Pts',(1.5623358679109,-0.708403925687551,1.31203363673592));
#1488=CARTESIAN_POINT('Ctrl Pts',(1.49999999996711,-0.699999999999601,0.899999999994912));
#1489=CARTESIAN_POINT('Ctrl Pts',(1.49999999996711,-0.699999999999601,0.899999999994912));
#1490=CARTESIAN_POINT('Ctrl Pts',(1.49999999996711,-0.699999999999601,0.899999999994912));
#1491=CARTESIAN_POINT('Ctrl Pts',(1.49999999996711,-0.699999999999601,0.899999999994912));
#1492=CARTESIAN_POINT('Ctrl Pts',(1.49999999996711,-0.699999999999601,0.899999999994912));
#1493=CARTESIAN_POINT('Ctrl Pts',(1.49999999996711,-0.699999999999601,0.899999999994912));
#1494=CARTESIAN_POINT('Ctrl Pts',(1.49999999996711,-0.699999999999601,0.899999999994912));
#1495=CARTESIAN_POINT('Ctrl Pts',(1.70530233771607,-0.300000983844628,4.48878545094638));
#1496=CARTESIAN_POINT('Ctrl Pts',(1.41680091015243,-0.300000983866979,4.55093925420652));
#1497=CARTESIAN_POINT('Ctrl Pts',(1.22296652332906,-0.300000983885089,4.32839847266128));
#1498=CARTESIAN_POINT('Ctrl Pts',(1.02913213650568,-0.300000983903188,4.10585769111604));
#1499=CARTESIAN_POINT('Ctrl Pts',(1.13029032488569,-0.300000983898339,3.82861557690965));
#1500=CARTESIAN_POINT('Ctrl Pts',(1.2314485132657,-0.300000983893478,3.55137346270325));
#1501=CARTESIAN_POINT('Ctrl Pts',(1.52305349173506,-0.300000983870679,3.50595644499137));
#1502=CARTESIAN_POINT('Ctrl Pts',(1.68776370072339,-0.708403925667618,4.40737576153675));
#1503=CARTESIAN_POINT('Ctrl Pts',(1.44731364532755,-0.70840392568625,4.45917753445403));
#1504=CARTESIAN_POINT('Ctrl Pts',(1.28576335615604,-0.70840392570134,4.27370204581513));
#1505=CARTESIAN_POINT('Ctrl Pts',(1.12421306698453,-0.708403925716428,4.08822655717623));
#1506=CARTESIAN_POINT('Ctrl Pts',(1.20852284737323,-0.70840392571238,3.85716051954186));
#1507=CARTESIAN_POINT('Ctrl Pts',(1.29283262776193,-0.70840392570833,3.62609448190749));
#1508=CARTESIAN_POINT('Ctrl Pts',(1.53586932196059,-0.708403925689329,3.58824189824106));
#1509=CARTESIAN_POINT('Ctrl Pts',(1.60000000004036,-0.699999999999521,4.00000000000596));
#1510=CARTESIAN_POINT('Ctrl Pts',(1.60000000004036,-0.699999999999521,4.00000000000596));
#1511=CARTESIAN_POINT('Ctrl Pts',(1.60000000004036,-0.699999999999521,4.00000000000596));
#1512=CARTESIAN_POINT('Ctrl Pts',(1.60000000004036,-0.699999999999521,4.00000000000596));
#1513=CARTESIAN_POINT('Ctrl Pts',(1.60000000004036,-0.699999999999521,4.00000000000596));
#1514=CARTESIAN_POINT('Ctrl Pts',(1.60000000004036,-0.699999999999521,4.00000000000596));
#1515=CARTESIAN_POINT('Ctrl Pts',(1.60000000004036,-0.699999999999521,4.00000000000596));
#1516=CARTESIAN_POINT('',(1.49469766229237,-0.300000983890436,3.51121454906162));
#1517=CARTESIAN_POINT('',(1.70530233770763,-0.300000983890432,4.48878545093839));
#1518=CARTESIAN_POINT('Origin',(1.6,-0.300000984322999,4.));
#1519=CARTESIAN_POINT('',(1.6,-0.699999999999998,4.));
#1520=CARTESIAN_POINT('Origin',(1.597876827161,-0.200101643235,3.990144796252));
#1521=CARTESIAN_POINT('Origin',(1.602123172839,-0.200101643235,4.009855203748));
#1522=CARTESIAN_POINT('Ctrl Pts',(1.49469766228548,-0.300000983852338,3.51121454905493));
#1523=CARTESIAN_POINT('Ctrl Pts',(1.98348311603917,-0.300000983878348,3.40591221074083));
#1524=CARTESIAN_POINT('Ctrl Pts',(2.08878545154356,-0.30000098388862,3.89469766509984));
#1525=CARTESIAN_POINT('Ctrl Pts',(2.19408778704795,-0.300000983898878,4.38348311945885));
#1526=CARTESIAN_POINT('Ctrl Pts',(1.70530233208363,-0.300000983872868,4.48878545215353));
#1527=CARTESIAN_POINT('Ctrl Pts',(1.512236299289,-0.7084039256709,3.59262423846789));
#1528=CARTESIAN_POINT('Ctrl Pts',(1.91961206315804,-0.708403925692578,3.50486053728066));
#1529=CARTESIAN_POINT('Ctrl Pts',(2.00737576200353,-0.708403925701129,3.9122363016542));
#1530=CARTESIAN_POINT('Ctrl Pts',(2.09513946084902,-0.708403925709689,4.31961206602774));
#1531=CARTESIAN_POINT('Ctrl Pts',(1.68776369597098,-0.708403925688008,4.40737576253149));
#1532=CARTESIAN_POINT('Ctrl Pts',(1.5999999999722,-0.699999999999659,3.99999999999527));
#1533=CARTESIAN_POINT('Ctrl Pts',(1.5999999999722,-0.699999999999659,3.99999999999527));
#1534=CARTESIAN_POINT('Ctrl Pts',(1.5999999999722,-0.699999999999659,3.99999999999527));
#1535=CARTESIAN_POINT('Ctrl Pts',(1.5999999999722,-0.699999999999659,3.99999999999527));
#1536=CARTESIAN_POINT('Ctrl Pts',(1.5999999999722,-0.699999999999659,3.99999999999527));
#1537=CARTESIAN_POINT('Origin',(1.6,-0.300000984322999,4.));
#1538=CARTESIAN_POINT('Origin',(1.844392823532,-0.299999999999998,3.94734881002));
#1539=CARTESIAN_POINT('Origin',(1.9,2.4,1.38777878078145E-16));
#1540=CARTESIAN_POINT('',(1.,3.9,-1.73472347597681E-16));
#1541=CARTESIAN_POINT('',(1.,2.1,6.93889390390723E-17));
#1542=CARTESIAN_POINT('',(1.,2.4,1.38777878078145E-16));
#1543=CARTESIAN_POINT('',(2.,3.9,-1.73472347597681E-16));
#1544=CARTESIAN_POINT('',(2.25,3.9,-1.73472347597681E-16));
#1545=CARTESIAN_POINT('',(2.,2.1,6.93889390390723E-17));
#1546=CARTESIAN_POINT('',(2.,2.4,1.38777878078145E-16));
#1547=CARTESIAN_POINT('',(2.075,2.1,6.93889390390723E-17));
#1548=CARTESIAN_POINT('Origin',(2.25,2.1,3.80000000000002));
#1549=CARTESIAN_POINT('',(2.,2.1,0.200000000000001));
#1550=CARTESIAN_POINT('',(2.,2.1,1.50000000000001));
#1551=CARTESIAN_POINT('',(1.,2.1,0.2));
#1552=CARTESIAN_POINT('',(2.45,2.1,0.200000000000001));
#1553=CARTESIAN_POINT('',(1.,2.1,0.100000000000001));
#1554=CARTESIAN_POINT('Origin',(-2.25,2.1,3.80000000000001));
#1555=CARTESIAN_POINT('',(-1.,2.1,0.200000000000001));
#1556=CARTESIAN_POINT('',(-1.,2.1,1.38777878078145E-16));
#1557=CARTESIAN_POINT('',(-1.,2.1,0.100000000000001));
#1558=CARTESIAN_POINT('',(-2.,2.1,0.200000000000001));
#1559=CARTESIAN_POINT('',(-1.9,2.1,0.200000000000001));
#1560=CARTESIAN_POINT('',(-2.,2.1,2.08166817117217E-16));
#1561=CARTESIAN_POINT('',(-2.,2.1,1.80000000000001));
#1562=CARTESIAN_POINT('',(-2.075,2.1,1.04083408558608E-16));
#1563=CARTESIAN_POINT('Origin',(-1.9,2.4,1.38777878078145E-16));
#1564=CARTESIAN_POINT('',(-2.,3.9,-1.73472347597681E-16));
#1565=CARTESIAN_POINT('',(-2.,2.4,1.38777878078145E-16));
#1566=CARTESIAN_POINT('',(-1.,3.9,-1.73472347597681E-16));
#1567=CARTESIAN_POINT('',(-2.25,3.9,-1.73472347597681E-16));
#1568=CARTESIAN_POINT('',(-1.,2.4,1.38777878078145E-16));
#1569=CARTESIAN_POINT('Origin',(3.,3.4,0.2));
#1570=CARTESIAN_POINT('',(1.,2.9,0.2));
#1571=CARTESIAN_POINT('',(1.,2.9,0.2));
#1572=CARTESIAN_POINT('',(2.05,2.1,0.200000000000001));
#1573=CARTESIAN_POINT('',(2.45,2.1,0.200000000000001));
#1574=CARTESIAN_POINT('',(2.05,0.1,0.200000000000001));
#1575=CARTESIAN_POINT('',(2.05,3.4,0.2));
#1576=CARTESIAN_POINT('',(-2.05,0.1,0.200000000000001));
#1577=CARTESIAN_POINT('',(-2.7,0.1,0.200000000000001));
#1578=CARTESIAN_POINT('',(-2.05,2.9,0.2));
#1579=CARTESIAN_POINT('',(-2.05,3.4,0.2));
#1580=CARTESIAN_POINT('',(-2.,2.9,0.2));
#1581=CARTESIAN_POINT('',(1.5,2.9,0.2));
#1582=CARTESIAN_POINT('',(-2.,2.9,0.2));
#1583=CARTESIAN_POINT('',(-1.,2.9,0.2));
#1584=CARTESIAN_POINT('',(-1.,2.9,0.2));
#1585=CARTESIAN_POINT('',(1.5,2.9,0.2));
#1586=CARTESIAN_POINT('Origin',(3.,3.4,0.2));
#1587=CARTESIAN_POINT('',(2.,2.4,0.200000000000001));
#1588=CARTESIAN_POINT('',(2.,2.9,0.2));
#1589=CARTESIAN_POINT('',(2.,2.4,0.2));
#1590=CARTESIAN_POINT('',(2.05,2.9,0.2));
#1591=CARTESIAN_POINT('',(1.5,2.9,0.2));
#1592=CARTESIAN_POINT('',(2.05,2.4,0.2));
#1593=CARTESIAN_POINT('',(2.05,3.4,0.2));
#1594=CARTESIAN_POINT('',(1.9,2.4,0.2));
#1595=CARTESIAN_POINT('Origin',(-2.6,2.4,0.2));
#1596=CARTESIAN_POINT('',(1.5,2.9,0.2));
#1597=CARTESIAN_POINT('',(-1.,3.9,0.2));
#1598=CARTESIAN_POINT('',(-1.,4.1,0.2));
#1599=CARTESIAN_POINT('',(-2.,3.9,0.2));
#1600=CARTESIAN_POINT('',(-2.6,3.9,0.2));
#1601=CARTESIAN_POINT('',(-2.,2.4,0.2));
#1602=CARTESIAN_POINT('Origin',(-2.,2.4,-0.8));
#1603=CARTESIAN_POINT('',(-2.,3.9,-0.65));
#1604=CARTESIAN_POINT('Origin',(2.1,2.1,0.100000000000001));
#1605=CARTESIAN_POINT('',(2.,2.1,0.20635083268963));
#1606=CARTESIAN_POINT('',(2.,2.1,1.80000000000001));
#1607=CARTESIAN_POINT('',(2.1,2.1,0.20635083268963));
#1608=CARTESIAN_POINT('',(2.1,2.1,0.20635083268963));
#1609=CARTESIAN_POINT('Origin',(2.05,2.1,0.4));
#1610=CARTESIAN_POINT('Origin',(2.1,2.4,0.20635083268963));
#1611=CARTESIAN_POINT('',(2.1,2.4,0.20635083268963));
#1612=CARTESIAN_POINT('Origin',(2.05,2.4,0.4));
#1613=CARTESIAN_POINT('',(2.,2.4,0.20635083268963));
#1614=CARTESIAN_POINT('',(2.1,2.4,0.20635083268963));
#1615=CARTESIAN_POINT('',(2.,2.4,1.80000000000001));
#1616=CARTESIAN_POINT('Origin',(2.1,2.1,0.20635083268963));
#1617=CARTESIAN_POINT('',(2.1,3.4,0.206350832689629));
#1618=CARTESIAN_POINT('',(2.,3.4,0.206350832689629));
#1619=CARTESIAN_POINT('Origin',(2.,2.4,-0.8));
#1620=CARTESIAN_POINT('',(2.,3.9,0.2));
#1621=CARTESIAN_POINT('',(2.,3.9,-0.65));
#1622=CARTESIAN_POINT('',(2.,2.4,0.2));
#1623=CARTESIAN_POINT('Origin',(2.6,2.4,0.2));
#1624=CARTESIAN_POINT('',(1.5,2.9,0.2));
#1625=CARTESIAN_POINT('',(1.,3.9,0.2));
#1626=CARTESIAN_POINT('',(1.9,3.9,0.2));
#1627=CARTESIAN_POINT('',(1.,4.1,0.2));
#1628=CARTESIAN_POINT('Origin',(2.6,3.9,-0.5));
#1629=CARTESIAN_POINT('',(1.,3.9,3.35));
#1630=CARTESIAN_POINT('Origin',(-1.,2.4,7.2));
#1631=CARTESIAN_POINT('',(-1.,3.9,3.35));
#1632=CARTESIAN_POINT('Origin',(1.,2.4,7.2));
#1633=CARTESIAN_POINT('Origin',(2.05,3.4,0.4));
#1634=CARTESIAN_POINT('',(2.25,2.9,0.4));
#1635=CARTESIAN_POINT('Origin',(2.05,2.9,0.4));
#1636=CARTESIAN_POINT('',(2.25,0.1,0.400000000000001));
#1637=CARTESIAN_POINT('',(2.25,3.4,0.4));
#1638=CARTESIAN_POINT('Origin',(2.05,0.1,0.400000000000001));
#1639=CARTESIAN_POINT('Origin',(0.,0.1,3.2));
#1640=CARTESIAN_POINT('',(2.25,0.1,4.5));
#1641=CARTESIAN_POINT('',(2.25,0.1,4.7));
#1642=CARTESIAN_POINT('',(2.05,0.1,4.7));
#1643=CARTESIAN_POINT('Origin',(2.05,0.1,4.5));
#1644=CARTESIAN_POINT('',(-2.05,0.1,4.7));
#1645=CARTESIAN_POINT('',(-1.5,0.1,4.7));
#1646=CARTESIAN_POINT('',(-2.25,0.1,4.5));
#1647=CARTESIAN_POINT('Origin',(-2.05,0.1,4.5));
#1648=CARTESIAN_POINT('',(-2.25,0.1,0.400000000000001));
#1649=CARTESIAN_POINT('',(-2.25,0.1,1.7));
#1650=CARTESIAN_POINT('Origin',(-2.05,0.1,0.400000000000001));
#1651=CARTESIAN_POINT('Origin',(2.25,3.4,6.2));
#1652=CARTESIAN_POINT('',(2.25,2.9,4.5));
#1653=CARTESIAN_POINT('',(2.25,2.9,4.7));
#1654=CARTESIAN_POINT('',(2.25,3.4,4.5));
#1655=CARTESIAN_POINT('Origin',(0.,2.9,3.2));
#1656=CARTESIAN_POINT('',(-2.25,2.9,0.4));
#1657=CARTESIAN_POINT('Origin',(-2.05,2.9,0.400000000000001));
#1658=CARTESIAN_POINT('',(-2.25,2.9,4.5));
#1659=CARTESIAN_POINT('',(-2.25,2.9,1.7));
#1660=CARTESIAN_POINT('',(-2.05,2.9,4.7));
#1661=CARTESIAN_POINT('Origin',(-2.05,2.9,4.5));
#1662=CARTESIAN_POINT('',(2.05,2.9,4.7));
#1663=CARTESIAN_POINT('',(-1.5,2.9,4.7));
#1664=CARTESIAN_POINT('Origin',(2.05,2.9,4.5));
#1665=CARTESIAN_POINT('Origin',(-2.05,3.4,0.4));
#1666=CARTESIAN_POINT('',(-2.25,3.4,0.4));
#1667=CARTESIAN_POINT('Origin',(-2.25,3.4,0.2));
#1668=CARTESIAN_POINT('',(-2.25,3.4,4.5));
#1669=CARTESIAN_POINT('Origin',(2.05,3.4,4.5));
#1670=CARTESIAN_POINT('',(2.05,3.4,4.7));
#1671=CARTESIAN_POINT('Origin',(-3.,3.4,4.7));
#1672=CARTESIAN_POINT('',(-2.05,3.4,4.7));
#1673=CARTESIAN_POINT('Origin',(-2.05,3.4,4.5));
#1674=CARTESIAN_POINT('Origin',(-2.6,3.9,-0.5));
#1675=CARTESIAN_POINT('Origin',(2.05,-0.1,0.400000035762789));
#1676=CARTESIAN_POINT('',(2.05,0.1,0.200000035762789));
#1677=CARTESIAN_POINT('',(2.25,0.1,0.400000035762789));
#1678=CARTESIAN_POINT('Origin',(2.05,0.1,0.400000035762789));
#1679=CARTESIAN_POINT('',(2.25,-0.3,0.400000035762789));
#1680=CARTESIAN_POINT('',(2.25,-0.1,0.400000035762789));
#1681=CARTESIAN_POINT('',(2.05,-0.3,0.200000035762789));
#1682=CARTESIAN_POINT('Origin',(2.05,-0.3,0.400000035762789));
#1683=CARTESIAN_POINT('',(2.05,-0.1,0.200000035762789));
#1684=CARTESIAN_POINT('Origin',(3.,0.1,0.200000035762789));
#1685=CARTESIAN_POINT('',(-2.05,-0.3,0.200000035762789));
#1686=CARTESIAN_POINT('',(0.,-0.3,0.200000035762789));
#1687=CARTESIAN_POINT('',(-2.05,0.1,0.200000035762789));
#1688=CARTESIAN_POINT('',(-2.05,0.1,0.200000035762789));
#1689=CARTESIAN_POINT('',(3.,0.1,0.200000035762789));
#1690=CARTESIAN_POINT('Origin',(-3.,-0.3,-0.399999999999999));
#1691=CARTESIAN_POINT('',(2.25,-0.299999999999998,4.50000007152557));
#1692=CARTESIAN_POINT('',(2.25,-0.3,-0.399999999999999));
#1693=CARTESIAN_POINT('',(2.05,-0.299999999999998,4.70000007152557));
#1694=CARTESIAN_POINT('Origin',(2.05,-0.3,4.50000007152557));
#1695=CARTESIAN_POINT('',(-2.05,-0.299999999999998,4.70000007152557));
#1696=CARTESIAN_POINT('',(0.,-0.299999999999998,4.70000007152557));
#1697=CARTESIAN_POINT('',(-2.25,-0.299999999999998,4.50000007152557));
#1698=CARTESIAN_POINT('Origin',(-2.05,-0.3,4.50000007152557));
#1699=CARTESIAN_POINT('',(-2.25,-0.3,0.400000035762789));
#1700=CARTESIAN_POINT('',(-2.25,-0.3,-0.399999999999999));
#1701=CARTESIAN_POINT('Origin',(-2.05,-0.3,0.400000035762789));
#1702=CARTESIAN_POINT('Origin',(-2.05,0.1,0.400000035762789));
#1703=CARTESIAN_POINT('',(-2.25,0.1,0.400000035762789));
#1704=CARTESIAN_POINT('',(-2.25,0.1,0.400000035762789));
#1705=CARTESIAN_POINT('Origin',(-2.05,0.1,0.400000035762789));
#1706=CARTESIAN_POINT('Origin',(-2.25,0.1,-0.399999999999999));
#1707=CARTESIAN_POINT('',(-2.25,0.100000000000002,4.50000007152557));
#1708=CARTESIAN_POINT('',(-2.25,0.1,4.50000007152557));
#1709=CARTESIAN_POINT('',(-2.25,0.1,-0.399999999999999));
#1710=CARTESIAN_POINT('Origin',(2.05,-0.1,4.50000007152557));
#1711=CARTESIAN_POINT('',(2.25,0.100000000000002,4.50000007152557));
#1712=CARTESIAN_POINT('',(2.25,-0.1,4.50000007152557));
#1713=CARTESIAN_POINT('',(2.05,0.100000000000002,4.70000007152557));
#1714=CARTESIAN_POINT('Origin',(2.05,0.1,4.50000007152557));
#1715=CARTESIAN_POINT('',(2.05,-0.1,4.70000007152557));
#1716=CARTESIAN_POINT('Origin',(3.,0.100000000000002,4.70000007152557));
#1717=CARTESIAN_POINT('',(-2.05,0.100000000000002,4.70000007152557));
#1718=CARTESIAN_POINT('',(3.,0.100000000000002,4.70000007152557));
#1719=CARTESIAN_POINT('',(-2.05,0.1,4.70000007152557));
#1720=CARTESIAN_POINT('Origin',(-2.05,0.1,4.50000007152557));
#1721=CARTESIAN_POINT('Origin',(-2.05,0.1,4.50000007152557));
#1722=CARTESIAN_POINT('Origin',(2.25,-0.3,-0.399999999999999));
#1723=CARTESIAN_POINT('',(2.25,0.1,-0.399999999999999));
#1724=CARTESIAN_POINT('Origin',(3.,0.1,-0.399999999999999));
#1725=UNCERTAINTY_MEASURE_WITH_UNIT(LENGTH_MEASURE(0.01),#1729,
'DISTANCE_ACCURACY_VALUE',
'Maximum model space distance between geometric entities at asserted c
onnectivities');
#1726=UNCERTAINTY_MEASURE_WITH_UNIT(LENGTH_MEASURE(0.01),#1729,
'DISTANCE_ACCURACY_VALUE',
'Maximum model space distance between geometric entities at asserted c
onnectivities');
#1727=(
GEOMETRIC_REPRESENTATION_CONTEXT(3)
GLOBAL_UNCERTAINTY_ASSIGNED_CONTEXT((#1725))
GLOBAL_UNIT_ASSIGNED_CONTEXT((#1729,#1731,#1732))
REPRESENTATION_CONTEXT('','3D')
);
#1728=(
GEOMETRIC_REPRESENTATION_CONTEXT(3)
GLOBAL_UNCERTAINTY_ASSIGNED_CONTEXT((#1726))
GLOBAL_UNIT_ASSIGNED_CONTEXT((#1729,#1731,#1732))
REPRESENTATION_CONTEXT('','3D')
);
#1729=(
LENGTH_UNIT()
NAMED_UNIT(*)
SI_UNIT(.MILLI.,.METRE.)
);
#1730=(
LENGTH_UNIT()
NAMED_UNIT(*)
SI_UNIT($,.METRE.)
);
#1731=(
NAMED_UNIT(*)
PLANE_ANGLE_UNIT()
SI_UNIT($,.RADIAN.)
);
#1732=(
NAMED_UNIT(*)
SI_UNIT($,.STERADIAN.)
SOLID_ANGLE_UNIT()
);
#1733=SHAPE_DEFINITION_REPRESENTATION(#1734,#1735);
#1734=PRODUCT_DEFINITION_SHAPE('',$,#1737);
#1735=SHAPE_REPRESENTATION('',(#969),#1727);
#1736=PRODUCT_DEFINITION_CONTEXT('part definition',#1741,'design');
#1737=PRODUCT_DEFINITION('Side_switch','Side_switch v7',#1738,#1736);
#1738=PRODUCT_DEFINITION_FORMATION('',$,#1743);
#1739=PRODUCT_RELATED_PRODUCT_CATEGORY('Side_switch v7',
'Side_switch v7',(#1743));
#1740=APPLICATION_PROTOCOL_DEFINITION('international standard',
'automotive_design',2009,#1741);
#1741=APPLICATION_CONTEXT(
'Core Data for Automotive Mechanical Design Process');
#1742=PRODUCT_CONTEXT('part definition',#1741,'mechanical');
#1743=PRODUCT('Side_switch','Side_switch v7',$,(#1742));
#1744=PRESENTATION_STYLE_ASSIGNMENT((#1747));
#1745=PRESENTATION_STYLE_ASSIGNMENT((#1748));
#1746=PRESENTATION_STYLE_ASSIGNMENT((#1749));
#1747=SURFACE_STYLE_USAGE(.BOTH.,#1750);
#1748=SURFACE_STYLE_USAGE(.BOTH.,#1751);
#1749=SURFACE_STYLE_USAGE(.BOTH.,#1752);
#1750=SURFACE_SIDE_STYLE('',(#1753));
#1751=SURFACE_SIDE_STYLE('',(#1754));
#1752=SURFACE_SIDE_STYLE('',(#1755));
#1753=SURFACE_STYLE_FILL_AREA(#1756);
#1754=SURFACE_STYLE_FILL_AREA(#1757);
#1755=SURFACE_STYLE_FILL_AREA(#1758);
#1756=FILL_AREA_STYLE('Default',(#1759));
#1757=FILL_AREA_STYLE('Opaque(245,245,246)',(#1760));
#1758=FILL_AREA_STYLE('Opaque(35,35,0)',(#1761));
#1759=FILL_AREA_STYLE_COLOUR('Default',#1762);
#1760=FILL_AREA_STYLE_COLOUR('Opaque(245,245,246)',#1763);
#1761=FILL_AREA_STYLE_COLOUR('Opaque(35,35,0)',#1764);
#1762=COLOUR_RGB('Default',0.749019607843137,0.749019607843137,0.749019607843137);
#1763=COLOUR_RGB('Opaque(245,245,246)',0.96078431372549,0.96078431372549,
0.964705882352941);
#1764=COLOUR_RGB('Opaque(35,35,0)',0.137254901960784,0.137254901960784,
0.);
ENDSEC;
END-ISO-10303-21;
