ISO-10303-21;
HEADER;
FILE_DESCRIPTION (( 'STEP AP214' ),
    '1' );
FILE_NAME ('TESD5V0L1UC RJG.STEP',
    '2022-02-25T04:49:07',
    ( '' ),
    ( '' ),
    'SwSTEP 2.0',
    'SolidWorks 2017',
    '' );
FILE_SCHEMA (( 'AUTOMOTIVE_DESIGN' ));
ENDSEC;

DATA;
#1 = DIRECTION ( 'NONE',  ( -0.0000000000000000000, 0.0000000000000000000, 1.000000000000000000 ) ) ;
#2 = CARTESIAN_POINT ( 'NONE',  ( -0.4999999999999998900, -1.166190378969060000, 0.2999999999999999300 ) ) ;
#3 = VECTOR ( 'NONE', #302, 1000.000000000000000 ) ;
#4 = VERTEX_POINT ( 'NONE', #26 ) ;
#5 = VECTOR ( 'NONE', #323, 1000.000000000000000 ) ;
#6 = ORIENTED_EDGE ( 'NONE', *, *, #497, .T. ) ;
#7 = ORIENTED_EDGE ( 'NONE', *, *, #247, .T. ) ;
#8 = EDGE_LOOP ( 'NONE', ( #20, #13, #498, #393 ) ) ;
#9 = LINE ( 'NONE', #292, #428 ) ;
#10 = PLANE ( 'NONE',  #432 ) ;
#11 = AXIS2_PLACEMENT_3D ( 'NONE', #98, #178, #60 ) ;
#12 = VECTOR ( 'NONE', #350, 1000.000000000000000 ) ;
#13 = ORIENTED_EDGE ( 'NONE', *, *, #115, .T. ) ;
#14 = CARTESIAN_POINT ( 'NONE',  ( 0.0000000000000000000, 0.05000000000000000300, 0.0000000000000000000 ) ) ;
#15 = EDGE_CURVE ( 'NONE', #508, #147, #99, .T. ) ;
#16 = APPLICATION_CONTEXT ( 'automotive_design' ) ;
#17 =( NAMED_UNIT ( * ) PLANE_ANGLE_UNIT ( ) SI_UNIT ( $, .RADIAN. ) );
#18 = EDGE_CURVE ( 'NONE', #384, #186, #109, .T. ) ;
#19 = ORIENTED_EDGE ( 'NONE', *, *, #444, .T. ) ;
#20 = ORIENTED_EDGE ( 'NONE', *, *, #182, .F. ) ;
#21 = VECTOR ( 'NONE', #338, 1000.000000000000000 ) ;
#22 = DIRECTION ( 'NONE',  ( 1.000000000000000000, 0.0000000000000000000, 0.0000000000000000000 ) ) ;
#23 = ORIENTED_EDGE ( 'NONE', *, *, #339, .F. ) ;
#24 = LINE ( 'NONE', #88, #246 ) ;
#25 = EDGE_CURVE ( 'NONE', #441, #392, #379, .T. ) ;
#26 = CARTESIAN_POINT ( 'NONE',  ( -0.4999999999999998900, 0.5100000000000000100, 0.2999999999999999300 ) ) ;
#27 = CARTESIAN_POINT ( 'NONE',  ( 0.5000000000000003300, 0.04999999999999991300, -0.3000000000000000400 ) ) ;
#28 = CARTESIAN_POINT ( 'NONE',  ( 0.5000000000000000000, 0.0000000000000000000, 0.2500000000000001700 ) ) ;
#29 = AXIS2_PLACEMENT_3D ( 'NONE', #452, #496, #311 ) ;
#30 = ORIENTED_EDGE ( 'NONE', *, *, #280, .T. ) ;
#31 = CARTESIAN_POINT ( 'NONE',  ( 0.5000000000000001100, -1.166190378969060000, 0.2999999999999999300 ) ) ;
#32 = DIRECTION ( 'NONE',  ( -1.000000000000000000, 0.0000000000000000000, -3.614007241618348800E-016 ) ) ;
#33 = VECTOR ( 'NONE', #442, 1000.000000000000000 ) ;
#34 = ORIENTED_EDGE ( 'NONE', *, *, #197, .T. ) ;
#35 = ORIENTED_EDGE ( 'NONE', *, *, #234, .T. ) ;
#36 = VECTOR ( 'NONE', #162, 1000.000000000000000 ) ;
#37 = CARTESIAN_POINT ( 'NONE',  ( -0.4999999999999998900, 0.5100000000000000100, 0.2999999999999999300 ) ) ;
#38 = LINE ( 'NONE', #2, #462 ) ;
#39 = AXIS2_PLACEMENT_3D ( 'NONE', #309, #233, #398 ) ;
#40 = CARTESIAN_POINT ( 'NONE',  ( 0.2000000000000000400, -0.5830951894845299900, 0.2500000000000000600 ) ) ;
#41 = PLANE ( 'NONE',  #289 ) ;
#42 = CARTESIAN_POINT ( 'NONE',  ( 0.5000000000000000000, -0.5830951894845299900, 0.2500000000000001700 ) ) ;
#43 = VERTEX_POINT ( 'NONE', #348 ) ;
#44 = ADVANCED_BREP_SHAPE_REPRESENTATION ( 'TESD5V0L1UC RJG', ( #505, #310, #301, #11 ), #517 ) ;
#45 = ORIENTED_EDGE ( 'NONE', *, *, #497, .F. ) ;
#46 = CARTESIAN_POINT ( 'NONE',  ( 0.2000000000000000400, 0.0000000000000000000, 0.2500000000000000600 ) ) ;
#47 = FACE_OUTER_BOUND ( 'NONE', #531, .T. ) ;
#48 = AXIS2_PLACEMENT_3D ( 'NONE', #504, #210, #453 ) ;
#49 = DIRECTION ( 'NONE',  ( 0.0000000000000000000, -1.000000000000000000, 0.0000000000000000000 ) ) ;
#50 = LINE ( 'NONE', #526, #249 ) ;
#51 = AXIS2_PLACEMENT_3D ( 'NONE', #431, #260, #468 ) ;
#52 = ORIENTED_EDGE ( 'NONE', *, *, #182, .T. ) ;
#53 = ORIENTED_EDGE ( 'NONE', *, *, #464, .T. ) ;
#54 = FACE_OUTER_BOUND ( 'NONE', #106, .T. ) ;
#55 = DIRECTION ( 'NONE',  ( 0.0000000000000000000, 0.0000000000000000000, -1.000000000000000000 ) ) ;
#56 = FILL_AREA_STYLE ('',( #61 ) ) ;
#57 = ORIENTED_EDGE ( 'NONE', *, *, #474, .F. ) ;
#58 =( LENGTH_UNIT ( ) NAMED_UNIT ( * ) SI_UNIT ( .MILLI., .METRE. ) );
#59 = ORIENTED_EDGE ( 'NONE', *, *, #165, .T. ) ;
#60 = DIRECTION ( 'NONE',  ( 1.000000000000000000, 0.0000000000000000000, 0.0000000000000000000 ) ) ;
#61 = FILL_AREA_STYLE_COLOUR ( '', #363 ) ;
#62 = COLOUR_RGB ( '',0.7921568627450980000, 0.8196078431372548800, 0.9333333333333333500 ) ;
#63 = APPLICATION_PROTOCOL_DEFINITION ( 'draft international standard', 'automotive_design', 1998, #463 ) ;
#64 = CARTESIAN_POINT ( 'NONE',  ( -0.2000000000000000400, 0.05000000000000000300, -0.2499999999999998900 ) ) ;
#65 = SURFACE_STYLE_FILL_AREA ( #180 ) ;
#66 = DIRECTION ( 'NONE',  ( 0.0000000000000000000, 0.0000000000000000000, -1.000000000000000000 ) ) ;
#67 = LINE ( 'NONE', #437, #368 ) ;
#68 = ORIENTED_EDGE ( 'NONE', *, *, #230, .T. ) ;
#69 = ORIENTED_EDGE ( 'NONE', *, *, #247, .F. ) ;
#70 = VECTOR ( 'NONE', #195, 1000.000000000000000 ) ;
#71 = VECTOR ( 'NONE', #187, 1000.000000000000000 ) ;
#72 = CARTESIAN_POINT ( 'NONE',  ( 0.5000000000000000000, 0.0000000000000000000, 0.2500000000000001700 ) ) ;
#73 = AXIS2_PLACEMENT_3D ( 'NONE', #42, #353, #32 ) ;
#74 = CARTESIAN_POINT ( 'NONE',  ( -0.4999999999999998900, 0.04999999999999991300, -0.3000000000000000400 ) ) ;
#75 = ORIENTED_EDGE ( 'NONE', *, *, #128, .T. ) ;
#76 = ADVANCED_FACE ( 'NONE', ( #273 ), #438, .F. ) ;
#77 = AXIS2_PLACEMENT_3D ( 'NONE', #330, #424, #181 ) ;
#78 = ORIENTED_EDGE ( 'NONE', *, *, #280, .F. ) ;
#79 = DIRECTION ( 'NONE',  ( 1.000000000000000000, -0.0000000000000000000, 0.0000000000000000000 ) ) ;
#80 = EDGE_LOOP ( 'NONE', ( #297, #250, #454, #419 ) ) ;
#81 = DIRECTION ( 'NONE',  ( 0.0000000000000000000, 0.0000000000000000000, -1.000000000000000000 ) ) ;
#82 = FILL_AREA_STYLE_COLOUR ( '', #117 ) ;
#83 = CARTESIAN_POINT ( 'NONE',  ( -0.4999999999999998900, 0.04999999999999991300, 0.2999999999999999300 ) ) ;
#84 = DIRECTION ( 'NONE',  ( -1.000000000000000000, 0.0000000000000000000, -1.807003620809174400E-016 ) ) ;
#85 = VERTEX_POINT ( 'NONE', #152 ) ;
#86 = FACE_OUTER_BOUND ( 'NONE', #174, .T. ) ;
#87 = DIRECTION ( 'NONE',  ( 0.0000000000000000000, 0.0000000000000000000, -1.000000000000000000 ) ) ;
#88 = CARTESIAN_POINT ( 'NONE',  ( -0.5000000000000000000, -0.5830951894845299900, 0.2500000000000001700 ) ) ;
#89 = AXIS2_PLACEMENT_3D ( 'NONE', #501, #455, #288 ) ;
#90 = CARTESIAN_POINT ( 'NONE',  ( -0.5000000000000000000, 0.0000000000000000000, 0.2500000000000001700 ) ) ;
#91 = CARTESIAN_POINT ( 'NONE',  ( 0.2000000000000000400, 0.0000000000000000000, -0.2499999999999998900 ) ) ;
#92 = DIRECTION ( 'NONE',  ( 0.0000000000000000000, -0.0000000000000000000, -1.000000000000000000 ) ) ;
#93 = EDGE_LOOP ( 'NONE', ( #287, #411, #7, #19 ) ) ;
#94 = ORIENTED_EDGE ( 'NONE', *, *, #485, .F. ) ;
#95 = SURFACE_STYLE_FILL_AREA ( #56 ) ;
#96 = LINE ( 'NONE', #477, #518 ) ;
#97 = PLANE ( 'NONE',  #399 ) ;
#98 = CARTESIAN_POINT ( 'NONE',  ( 0.0000000000000000000, 0.0000000000000000000, 0.0000000000000000000 ) ) ;
#99 = LINE ( 'NONE', #116, #12 ) ;
#100 = VERTEX_POINT ( 'NONE', #193 ) ;
#101 =( NAMED_UNIT ( * ) PLANE_ANGLE_UNIT ( ) SI_UNIT ( $, .RADIAN. ) );
#102 = LINE ( 'NONE', #493, #294 ) ;
#103 = DIRECTION ( 'NONE',  ( 0.0000000000000000000, 1.000000000000000000, 0.0000000000000000000 ) ) ;
#104 =( NAMED_UNIT ( * ) PLANE_ANGLE_UNIT ( ) SI_UNIT ( $, .RADIAN. ) );
#105 = EDGE_CURVE ( 'NONE', #413, #384, #67, .T. ) ;
#106 = EDGE_LOOP ( 'NONE', ( #343, #325, #68, #35 ) ) ;
#107 = AXIS2_PLACEMENT_3D ( 'NONE', #525, #22, #66 ) ;
#108 = LINE ( 'NONE', #126, #242 ) ;
#109 = LINE ( 'NONE', #426, #488 ) ;
#110 = VERTEX_POINT ( 'NONE', #482 ) ;
#111 = ORIENTED_EDGE ( 'NONE', *, *, #502, .F. ) ;
#112 = CARTESIAN_POINT ( 'NONE',  ( -0.4999999999999998900, 0.04999999999999991300, 0.2999999999999999300 ) ) ;
#113 = MECHANICAL_DESIGN_GEOMETRIC_PRESENTATION_REPRESENTATION (  '', ( #394 ), #167 ) ;
#114 = DIRECTION ( 'NONE',  ( 0.0000000000000000000, 1.000000000000000000, 0.0000000000000000000 ) ) ;
#115 = EDGE_CURVE ( 'NONE', #433, #85, #417, .T. ) ;
#116 = CARTESIAN_POINT ( 'NONE',  ( -0.5000000000000000000, 0.0000000000000000000, 0.2500000000000001700 ) ) ;
#117 = COLOUR_RGB ( '',0.7921568627450980000, 0.8196078431372548800, 0.9333333333333333500 ) ;
#118 = CARTESIAN_POINT ( 'NONE',  ( 0.5000000000000001100, 0.04999999999999991300, 0.2999999999999999300 ) ) ;
#119 = EDGE_LOOP ( 'NONE', ( #326, #6, #470, #458 ) ) ;
#120 = UNCERTAINTY_MEASURE_WITH_UNIT (LENGTH_MEASURE( 1.000000000000000100E-005 ), #332, 'distance_accuracy_value', 'NONE');
#121 = CARTESIAN_POINT ( 'NONE',  ( -0.2000000000000000400, 0.05000000000000000300, 0.2500000000000000600 ) ) ;
#122 = CARTESIAN_POINT ( 'NONE',  ( -0.2000000000000000400, 0.0000000000000000000, -0.2499999999999998900 ) ) ;
#123 = ORIENTED_EDGE ( 'NONE', *, *, #380, .F. ) ;
#124 = PRODUCT_DEFINITION_SHAPE ( 'NONE', 'NONE',  #320 ) ;
#125 = EDGE_CURVE ( 'NONE', #440, #232, #261, .T. ) ;
#126 = CARTESIAN_POINT ( 'NONE',  ( 0.2000000000000000400, 0.05000000000000000300, 0.2500000000000000600 ) ) ;
#127 = DIRECTION ( 'NONE',  ( 0.0000000000000000000, 0.0000000000000000000, -1.000000000000000000 ) ) ;
#128 = EDGE_CURVE ( 'NONE', #110, #433, #469, .T. ) ;
#129 =( NAMED_UNIT ( * ) PLANE_ANGLE_UNIT ( ) SI_UNIT ( $, .RADIAN. ) );
#130 = VERTEX_POINT ( 'NONE', #270 ) ;
#131 = VECTOR ( 'NONE', #255, 1000.000000000000000 ) ;
#132 = PLANE ( 'NONE',  #48 ) ;
#133 = AXIS2_PLACEMENT_3D ( 'NONE', #226, #478, #530 ) ;
#134 = ORIENTED_EDGE ( 'NONE', *, *, #15, .F. ) ;
#135 = ORIENTED_EDGE ( 'NONE', *, *, #219, .F. ) ;
#136 = VECTOR ( 'NONE', #407, 1000.000000000000000 ) ;
#137 = APPLICATION_PROTOCOL_DEFINITION ( 'draft international standard', 'automotive_design', 1998, #16 ) ;
#138 = SURFACE_STYLE_USAGE ( .BOTH. , #337 ) ;
#139 = FILL_AREA_STYLE_COLOUR ( '', #62 ) ;
#140 = UNCERTAINTY_MEASURE_WITH_UNIT (LENGTH_MEASURE( 1.000000000000000100E-005 ), #376, 'distance_accuracy_value', 'NONE');
#141 = EDGE_CURVE ( 'NONE', #440, #315, #314, .T. ) ;
#142 = EDGE_LOOP ( 'NONE', ( #69, #30, #220, #185 ) ) ;
#143 = ORIENTED_EDGE ( 'NONE', *, *, #354, .T. ) ;
#144 = PLANE ( 'NONE',  #77 ) ;
#145 =( LENGTH_UNIT ( ) NAMED_UNIT ( * ) SI_UNIT ( .MILLI., .METRE. ) );
#146 = PLANE ( 'NONE',  #107 ) ;
#147 = VERTEX_POINT ( 'NONE', #528 ) ;
#148 = VECTOR ( 'NONE', #507, 1000.000000000000000 ) ;
#149 = SURFACE_STYLE_FILL_AREA ( #204 ) ;
#150 = DIRECTION ( 'NONE',  ( -0.0000000000000000000, 0.0000000000000000000, 1.000000000000000000 ) ) ;
#151 = EDGE_CURVE ( 'NONE', #211, #413, #50, .T. ) ;
#152 = CARTESIAN_POINT ( 'NONE',  ( 0.5000000000000000000, 0.0000000000000000000, -0.2499999999999998300 ) ) ;
#153 = EDGE_CURVE ( 'NONE', #206, #100, #154, .T. ) ;
#154 = LINE ( 'NONE', #268, #70 ) ;
#155 = MECHANICAL_DESIGN_GEOMETRIC_PRESENTATION_REPRESENTATION (  '', ( #312 ), #245 ) ;
#156 = ADVANCED_FACE ( 'NONE', ( #405 ), #158, .T. ) ;
#157 = ORIENTED_EDGE ( 'NONE', *, *, #25, .T. ) ;
#158 = PLANE ( 'NONE',  #39 ) ;
#159 = ORIENTED_EDGE ( 'NONE', *, *, #128, .F. ) ;
#160 = VECTOR ( 'NONE', #127, 1000.000000000000000 ) ;
#161 = DIRECTION ( 'NONE',  ( 0.0000000000000000000, 0.0000000000000000000, -1.000000000000000000 ) ) ;
#162 = DIRECTION ( 'NONE',  ( 0.0000000000000000000, 0.0000000000000000000, 1.000000000000000000 ) ) ;
#163 = PRESENTATION_STYLE_ASSIGNMENT (( #138 ) ) ;
#164 = FILL_AREA_STYLE_COLOUR ( '', #253 ) ;
#165 = EDGE_CURVE ( 'NONE', #211, #508, #483, .T. ) ;
#166 = ADVANCED_FACE ( 'NONE', ( #47 ), #443, .T. ) ;
#167 =( GEOMETRIC_REPRESENTATION_CONTEXT ( 3 ) GLOBAL_UNCERTAINTY_ASSIGNED_CONTEXT ( ( #120 ) ) GLOBAL_UNIT_ASSIGNED_CONTEXT ( ( #332, #254, #421 ) ) REPRESENTATION_CONTEXT ( 'NONE', 'WORKASPACE' ) );
#168 = PLANE ( 'NONE',  #73 ) ;
#169 = CLOSED_SHELL ( 'NONE', ( #271, #529, #361, #278, #76, #281 ) ) ;
#170 = DIRECTION ( 'NONE',  ( -0.0000000000000000000, 1.000000000000000000, -0.0000000000000000000 ) ) ;
#171 = CARTESIAN_POINT ( 'NONE',  ( 0.0000000000000000000, 0.05000000000000000300, 0.0000000000000000000 ) ) ;
#172 = VECTOR ( 'NONE', #114, 1000.000000000000000 ) ;
#173 = ORIENTED_EDGE ( 'NONE', *, *, #223, .F. ) ;
#174 = EDGE_LOOP ( 'NONE', ( #490, #369, #53, #34 ) ) ;
#175 = PRODUCT_RELATED_PRODUCT_CATEGORY ( 'part', '', ( #429 ) ) ;
#176 = VECTOR ( 'NONE', #170, 1000.000000000000000 ) ;
#177 =( GEOMETRIC_REPRESENTATION_CONTEXT ( 3 ) GLOBAL_UNCERTAINTY_ASSIGNED_CONTEXT ( ( #140 ) ) GLOBAL_UNIT_ASSIGNED_CONTEXT ( ( #376, #17, #425 ) ) REPRESENTATION_CONTEXT ( 'NONE', 'WORKASPACE' ) );
#178 = DIRECTION ( 'NONE',  ( 0.0000000000000000000, 0.0000000000000000000, 1.000000000000000000 ) ) ;
#179 = ORIENTED_EDGE ( 'NONE', *, *, #153, .F. ) ;
#180 = FILL_AREA_STYLE ('',( #82 ) ) ;
#181 = DIRECTION ( 'NONE',  ( 0.0000000000000000000, -0.0000000000000000000, 1.000000000000000000 ) ) ;
#182 = EDGE_CURVE ( 'NONE', #433, #206, #459, .T. ) ;
#183 = VECTOR ( 'NONE', #435, 1000.000000000000000 ) ;
#184 = LINE ( 'NONE', #511, #203 ) ;
#185 = ORIENTED_EDGE ( 'NONE', *, *, #513, .T. ) ;
#186 = VERTEX_POINT ( 'NONE', #121 ) ;
#187 = DIRECTION ( 'NONE',  ( 0.0000000000000000000, 0.0000000000000000000, -1.000000000000000000 ) ) ;
#188 = CARTESIAN_POINT ( 'NONE',  ( 0.5000000000000000000, 0.05000000000000000300, -0.2499999999999998300 ) ) ;
#189 = FACE_OUTER_BOUND ( 'NONE', #93, .T. ) ;
#190 = DIRECTION ( 'NONE',  ( 0.0000000000000000000, 1.000000000000000000, 0.0000000000000000000 ) ) ;
#191 = ADVANCED_FACE ( 'NONE', ( #491 ), #41, .F. ) ;
#192 = UNCERTAINTY_MEASURE_WITH_UNIT (LENGTH_MEASURE( 1.000000000000000100E-005 ), #58, 'distance_accuracy_value', 'NONE');
#193 = CARTESIAN_POINT ( 'NONE',  ( 0.2000000000000000400, 0.05000000000000000300, 0.2500000000000000600 ) ) ;
#194 = PLANE ( 'NONE',  #449 ) ;
#195 = DIRECTION ( 'NONE',  ( -1.000000000000000000, 0.0000000000000000000, -3.614007241618348300E-016 ) ) ;
#196 = ORIENTED_EDGE ( 'NONE', *, *, #18, .T. ) ;
#197 = EDGE_CURVE ( 'NONE', #186, #130, #239, .T. ) ;
#198 = ORIENTED_EDGE ( 'NONE', *, *, #365, .T. ) ;
#199 = CARTESIAN_POINT ( 'NONE',  ( 0.5000000000000000000, -0.5830951894845299900, 0.2500000000000001700 ) ) ;
#200 = LINE ( 'NONE', #37, #472 ) ;
#201 = LINE ( 'NONE', #112, #208 ) ;
#202 = DIRECTION ( 'NONE',  ( 0.0000000000000000000, 0.0000000000000000000, -1.000000000000000000 ) ) ;
#203 = VECTOR ( 'NONE', #400, 1000.000000000000000 ) ;
#204 = FILL_AREA_STYLE ('',( #164 ) ) ;
#205 = ADVANCED_FACE ( 'NONE', ( #345 ), #168, .F. ) ;
#206 = VERTEX_POINT ( 'NONE', #307 ) ;
#207 = FACE_OUTER_BOUND ( 'NONE', #427, .T. ) ;
#208 = VECTOR ( 'NONE', #224, 1000.000000000000000 ) ;
#209 = CARTESIAN_POINT ( 'NONE',  ( -0.4999999999999998900, 0.5100000000000000100, -0.3000000000000000400 ) ) ;
#210 = DIRECTION ( 'NONE',  ( 0.0000000000000000000, 1.000000000000000000, 0.0000000000000000000 ) ) ;
#211 = VERTEX_POINT ( 'NONE', #355 ) ;
#212 = CLOSED_SHELL ( 'NONE', ( #349, #267, #479, #205, #191, #448 ) ) ;
#213 = FACE_OUTER_BOUND ( 'NONE', #305, .T. ) ;
#214 = CARTESIAN_POINT ( 'NONE',  ( -0.4999999999999998900, 0.5100000000000000100, 0.2999999999999999300 ) ) ;
#215 = DIRECTION ( 'NONE',  ( 0.0000000000000000000, -1.000000000000000000, 0.0000000000000000000 ) ) ;
#216 = ORIENTED_EDGE ( 'NONE', *, *, #464, .F. ) ;
#217 = CARTESIAN_POINT ( 'NONE',  ( 0.5000000000000000000, -0.5830951894845299900, -0.2499999999999998300 ) ) ;
#218 = PLANE ( 'NONE',  #385 ) ;
#219 = EDGE_CURVE ( 'NONE', #244, #315, #333, .T. ) ;
#220 = ORIENTED_EDGE ( 'NONE', *, *, #258, .T. ) ;
#221 = EDGE_LOOP ( 'NONE', ( #471, #520, #293, #94 ) ) ;
#222 = EDGE_LOOP ( 'NONE', ( #216, #418, #198, #196 ) ) ;
#223 = EDGE_CURVE ( 'NONE', #85, #286, #102, .T. ) ;
#224 = DIRECTION ( 'NONE',  ( -1.000000000000000000, 0.0000000000000000000, 0.0000000000000000000 ) ) ;
#225 = EDGE_LOOP ( 'NONE', ( #159, #78, #173, #381 ) ) ;
#226 = CARTESIAN_POINT ( 'NONE',  ( -0.2000000000000000400, -0.5830951894845299900, 0.2500000000000000600 ) ) ;
#227 = CARTESIAN_POINT ( 'NONE',  ( -0.4999999999999998900, 0.5100000000000000100, -0.3000000000000000400 ) ) ;
#228 = EDGE_CURVE ( 'NONE', #147, #521, #372, .T. ) ;
#229 = DIRECTION ( 'NONE',  ( 1.000000000000000000, 0.0000000000000000000, -1.807003620809174100E-016 ) ) ;
#230 = EDGE_CURVE ( 'NONE', #392, #4, #466, .T. ) ;
#231 = ORIENTED_EDGE ( 'NONE', *, *, #125, .T. ) ;
#232 = VERTEX_POINT ( 'NONE', #243 ) ;
#233 = DIRECTION ( 'NONE',  ( -1.000000000000000000, 0.0000000000000000000, 0.0000000000000000000 ) ) ;
#234 = EDGE_CURVE ( 'NONE', #4, #244, #200, .T. ) ;
#235 = EDGE_LOOP ( 'NONE', ( #356, #75, #52, #291 ) ) ;
#236 = DIRECTION ( 'NONE',  ( -1.000000000000000000, 0.0000000000000000000, 1.807003620809174400E-016 ) ) ;
#237 = ORIENTED_EDGE ( 'NONE', *, *, #513, .F. ) ;
#238 = CARTESIAN_POINT ( 'NONE',  ( -0.5000000000000000000, 0.05000000000000000300, 0.2500000000000001700 ) ) ;
#239 = LINE ( 'NONE', #238, #351 ) ;
#240 = ADVANCED_FACE ( 'NONE', ( #54 ), #10, .F. ) ;
#241 =( NAMED_UNIT ( * ) SI_UNIT ( $, .STERADIAN. ) SOLID_ANGLE_UNIT ( ) );
#242 = VECTOR ( 'NONE', #161, 1000.000000000000000 ) ;
#243 = CARTESIAN_POINT ( 'NONE',  ( 0.5000000000000003300, 0.04999999999999991300, 0.2999999999999999300 ) ) ;
#244 = VERTEX_POINT ( 'NONE', #412 ) ;
#245 =( GEOMETRIC_REPRESENTATION_CONTEXT ( 3 ) GLOBAL_UNCERTAINTY_ASSIGNED_CONTEXT ( ( #192 ) ) GLOBAL_UNIT_ASSIGNED_CONTEXT ( ( #58, #104, #460 ) ) REPRESENTATION_CONTEXT ( 'NONE', 'WORKASPACE' ) );
#246 = VECTOR ( 'NONE', #248, 1000.000000000000000 ) ;
#247 = EDGE_CURVE ( 'NONE', #286, #43, #420, .T. ) ;
#248 = DIRECTION ( 'NONE',  ( -0.0000000000000000000, 1.000000000000000000, -0.0000000000000000000 ) ) ;
#249 = VECTOR ( 'NONE', #346, 1000.000000000000000 ) ;
#250 = ORIENTED_EDGE ( 'NONE', *, *, #485, .T. ) ;
#251 = ORIENTED_EDGE ( 'NONE', *, *, #304, .F. ) ;
#252 = LINE ( 'NONE', #367, #148 ) ;
#253 = COLOUR_RGB ( '',0.2509803921568627400, 0.2509803921568627400, 0.2509803921568627400 ) ;
#254 =( NAMED_UNIT ( * ) PLANE_ANGLE_UNIT ( ) SI_UNIT ( $, .RADIAN. ) );
#255 = DIRECTION ( 'NONE',  ( -0.0000000000000000000, 1.000000000000000000, -0.0000000000000000000 ) ) ;
#256 = SURFACE_STYLE_USAGE ( .BOTH. , #290 ) ;
#257 = CARTESIAN_POINT ( 'NONE',  ( 0.5000000000000001100, 0.5100000000000000100, -0.3000000000000000400 ) ) ;
#258 = EDGE_CURVE ( 'NONE', #110, #100, #252, .T. ) ;
#259 = VECTOR ( 'NONE', #266, 1000.000000000000000 ) ;
#260 = DIRECTION ( 'NONE',  ( 0.0000000000000000000, 0.0000000000000000000, 1.000000000000000000 ) ) ;
#261 = LINE ( 'NONE', #118, #524 ) ;
#262 = CARTESIAN_POINT ( 'NONE',  ( -0.5000000000000000000, 0.05000000000000000300, -0.2499999999999998300 ) ) ;
#263 = ORIENTED_EDGE ( 'NONE', *, *, #165, .F. ) ;
#264 = VECTOR ( 'NONE', #276, 1000.000000000000000 ) ;
#265 = EDGE_CURVE ( 'NONE', #508, #130, #24, .T. ) ;
#266 = DIRECTION ( 'NONE',  ( -0.0000000000000000000, -0.0000000000000000000, 1.000000000000000000 ) ) ;
#267 = ADVANCED_FACE ( 'NONE', ( #189 ), #285, .F. ) ;
#268 = CARTESIAN_POINT ( 'NONE',  ( 0.5000000000000000000, 0.05000000000000000300, 0.2500000000000001700 ) ) ;
#269 = LINE ( 'NONE', #430, #71 ) ;
#270 = CARTESIAN_POINT ( 'NONE',  ( -0.5000000000000000000, 0.05000000000000000300, 0.2500000000000001700 ) ) ;
#271 = ADVANCED_FACE ( 'NONE', ( #446 ), #97, .F. ) ;
#272 = SHAPE_DEFINITION_REPRESENTATION ( #124, #44 ) ;
#273 = FACE_OUTER_BOUND ( 'NONE', #222, .T. ) ;
#274 = ORIENTED_EDGE ( 'NONE', *, *, #197, .F. ) ;
#275 = VECTOR ( 'NONE', #81, 1000.000000000000000 ) ;
#276 = DIRECTION ( 'NONE',  ( -0.0000000000000000000, 1.000000000000000000, -0.0000000000000000000 ) ) ;
#277 = UNCERTAINTY_MEASURE_WITH_UNIT (LENGTH_MEASURE( 1.000000000000000100E-005 ), #145, 'distance_accuracy_value', 'NONE');
#278 = ADVANCED_FACE ( 'NONE', ( #86 ), #416, .F. ) ;
#279 = CARTESIAN_POINT ( 'NONE',  ( 0.5000000000000000000, -0.5830951894845299900, 0.2500000000000001700 ) ) ;
#280 = EDGE_CURVE ( 'NONE', #286, #110, #522, .T. ) ;
#281 = ADVANCED_FACE ( 'NONE', ( #207 ), #132, .F. ) ;
#282 = ORIENTED_EDGE ( 'NONE', *, *, #304, .T. ) ;
#283 = DIRECTION ( 'NONE',  ( -1.000000000000000000, 0.0000000000000000000, -0.0000000000000000000 ) ) ;
#284 = PLANE ( 'NONE',  #378 ) ;
#285 = PLANE ( 'NONE',  #89 ) ;
#286 = VERTEX_POINT ( 'NONE', #91 ) ;
#287 = ORIENTED_EDGE ( 'NONE', *, *, #328, .F. ) ;
#288 = DIRECTION ( 'NONE',  ( 1.000000000000000000, 0.0000000000000000000, 1.807003620809174400E-016 ) ) ;
#289 = AXIS2_PLACEMENT_3D ( 'NONE', #199, #401, #1 ) ;
#290 = SURFACE_SIDE_STYLE ('',( #65 ) ) ;
#291 = ORIENTED_EDGE ( 'NONE', *, *, #153, .T. ) ;
#292 = CARTESIAN_POINT ( 'NONE',  ( -0.5000000000000000000, 0.05000000000000000300, 0.2500000000000001700 ) ) ;
#293 = ORIENTED_EDGE ( 'NONE', *, *, #234, .F. ) ;
#294 = VECTOR ( 'NONE', #84, 1000.000000000000000 ) ;
#295 = STYLED_ITEM ( 'NONE', ( #390 ), #505 ) ;
#296 = EDGE_LOOP ( 'NONE', ( #371, #489, #251, #274 ) ) ;
#297 = ORIENTED_EDGE ( 'NONE', *, *, #354, .F. ) ;
#298 = FACE_OUTER_BOUND ( 'NONE', #519, .T. ) ;
#299 = FACE_OUTER_BOUND ( 'NONE', #119, .T. ) ;
#300 = CARTESIAN_POINT ( 'NONE',  ( 0.5000000000000000000, 0.05000000000000000300, 0.2500000000000001700 ) ) ;
#301 = MANIFOLD_SOLID_BREP ( 'Boss-Extrude2[2]', #212 ) ;
#302 = DIRECTION ( 'NONE',  ( 0.0000000000000000000, 0.0000000000000000000, -1.000000000000000000 ) ) ;
#303 = LINE ( 'NONE', #209, #484 ) ;
#304 = EDGE_CURVE ( 'NONE', #130, #413, #9, .T. ) ;
#305 = EDGE_LOOP ( 'NONE', ( #123, #306, #237, #179 ) ) ;
#306 = ORIENTED_EDGE ( 'NONE', *, *, #444, .F. ) ;
#307 = CARTESIAN_POINT ( 'NONE',  ( 0.5000000000000000000, 0.05000000000000000300, 0.2500000000000001700 ) ) ;
#308 = LINE ( 'NONE', #300, #259 ) ;
#309 = CARTESIAN_POINT ( 'NONE',  ( -0.4999999999999998900, -1.166190378969060000, 0.2999999999999999300 ) ) ;
#310 = MANIFOLD_SOLID_BREP ( 'Boss-Extrude2[1]', #169 ) ;
#311 = DIRECTION ( 'NONE',  ( 0.0000000000000000000, -0.0000000000000000000, 1.000000000000000000 ) ) ;
#312 = STYLED_ITEM ( 'NONE', ( #499 ), #301 ) ;
#313 = CARTESIAN_POINT ( 'NONE',  ( -0.2000000000000000400, -0.5830951894845299900, 0.2500000000000000600 ) ) ;
#314 = LINE ( 'NONE', #389, #342 ) ;
#315 = VERTEX_POINT ( 'NONE', #257 ) ;
#316 = PLANE ( 'NONE',  #29 ) ;
#317 = DIRECTION ( 'NONE',  ( -1.000000000000000000, -0.0000000000000000000, 3.614007241618348300E-016 ) ) ;
#318 = ADVANCED_FACE ( 'NONE', ( #509 ), #218, .F. ) ;
#319 = DIRECTION ( 'NONE',  ( 1.000000000000000000, 0.0000000000000000000, 0.0000000000000000000 ) ) ;
#320 = PRODUCT_DEFINITION ( 'UNKNOWN', '', #436, #383 ) ;
#321 = CARTESIAN_POINT ( 'NONE',  ( -0.5000000000000000000, -0.5830951894845299900, -0.2499999999999998300 ) ) ;
#322 = PRESENTATION_STYLE_ASSIGNMENT (( #256 ) ) ;
#323 = DIRECTION ( 'NONE',  ( 0.0000000000000000000, 0.0000000000000000000, 1.000000000000000000 ) ) ;
#324 =( GEOMETRIC_REPRESENTATION_CONTEXT ( 3 ) GLOBAL_UNCERTAINTY_ASSIGNED_CONTEXT ( ( #503 ) ) GLOBAL_UNIT_ASSIGNED_CONTEXT ( ( #450, #129, #241 ) ) REPRESENTATION_CONTEXT ( 'NONE', 'WORKASPACE' ) );
#325 = ORIENTED_EDGE ( 'NONE', *, *, #474, .T. ) ;
#326 = ORIENTED_EDGE ( 'NONE', *, *, #365, .F. ) ;
#327 = DIRECTION ( 'NONE',  ( 1.000000000000000000, 0.0000000000000000000, 0.0000000000000000000 ) ) ;
#328 = EDGE_CURVE ( 'NONE', #85, #377, #373, .T. ) ;
#329 = CARTESIAN_POINT ( 'NONE',  ( 0.0000000000000000000, 0.5100000000000000100, 0.0000000000000000000 ) ) ;
#330 = CARTESIAN_POINT ( 'NONE',  ( 0.0000000000000000000, 0.05000000000000000300, 0.0000000000000000000 ) ) ;
#331 = EDGE_LOOP ( 'NONE', ( #231, #403, #143, #465 ) ) ;
#332 =( LENGTH_UNIT ( ) NAMED_UNIT ( * ) SI_UNIT ( .MILLI., .METRE. ) );
#333 = LINE ( 'NONE', #487, #275 ) ;
#334 = SURFACE_SIDE_STYLE ('',( #95 ) ) ;
#335 = CARTESIAN_POINT ( 'NONE',  ( -0.4999999999999998900, 0.04999999999999991300, -0.3000000000000000400 ) ) ;
#336 = AXIS2_PLACEMENT_3D ( 'NONE', #31, #79, #391 ) ;
#337 = SURFACE_SIDE_STYLE ('',( #352 ) ) ;
#338 = DIRECTION ( 'NONE',  ( 1.000000000000000000, -0.0000000000000000000, 0.0000000000000000000 ) ) ;
#339 = EDGE_CURVE ( 'NONE', #441, #440, #366, .T. ) ;
#340 = ORIENTED_EDGE ( 'NONE', *, *, #125, .F. ) ;
#341 = DIRECTION ( 'NONE',  ( 1.000000000000000000, -0.0000000000000000000, 1.807003620809174100E-016 ) ) ;
#342 = VECTOR ( 'NONE', #190, 1000.000000000000000 ) ;
#343 = ORIENTED_EDGE ( 'NONE', *, *, #219, .T. ) ;
#344 = PRESENTATION_LAYER_ASSIGNMENT (  '', '', ( #312 ) ) ;
#345 = FACE_OUTER_BOUND ( 'NONE', #235, .T. ) ;
#346 = DIRECTION ( 'NONE',  ( -0.0000000000000000000, 1.000000000000000000, -0.0000000000000000000 ) ) ;
#347 = FACE_OUTER_BOUND ( 'NONE', #142, .T. ) ;
#348 = CARTESIAN_POINT ( 'NONE',  ( 0.2000000000000000400, 0.05000000000000000300, -0.2499999999999998900 ) ) ;
#349 = ADVANCED_FACE ( 'NONE', ( #213 ), #144, .T. ) ;
#350 = DIRECTION ( 'NONE',  ( 1.000000000000000000, 0.0000000000000000000, -3.614007241618348800E-016 ) ) ;
#351 = VECTOR ( 'NONE', #317, 1000.000000000000000 ) ;
#352 = SURFACE_STYLE_FILL_AREA ( #512 ) ;
#353 = DIRECTION ( 'NONE',  ( 3.614007241618348800E-016, 0.0000000000000000000, -1.000000000000000000 ) ) ;
#354 = EDGE_CURVE ( 'NONE', #506, #441, #269, .T. ) ;
#355 = CARTESIAN_POINT ( 'NONE',  ( -0.5000000000000000000, 0.0000000000000000000, -0.2499999999999998300 ) ) ;
#356 = ORIENTED_EDGE ( 'NONE', *, *, #258, .F. ) ;
#357 = ADVANCED_FACE ( 'NONE', ( #527 ), #467, .T. ) ;
#358 = DIRECTION ( 'NONE',  ( 1.000000000000000000, 0.0000000000000000000, -1.807003620809174400E-016 ) ) ;
#359 = LINE ( 'NONE', #500, #473 ) ;
#360 = DIRECTION ( 'NONE',  ( -0.0000000000000000000, -0.0000000000000000000, 1.000000000000000000 ) ) ;
#361 = ADVANCED_FACE ( 'NONE', ( #298 ), #146, .F. ) ;
#362 = ORIENTED_EDGE ( 'NONE', *, *, #141, .T. ) ;
#363 = COLOUR_RGB ( '',0.7921568627450980000, 0.8196078431372548800, 0.9333333333333333500 ) ;
#364 = DIRECTION ( 'NONE',  ( -1.000000000000000000, -0.0000000000000000000, -0.0000000000000000000 ) ) ;
#365 = EDGE_CURVE ( 'NONE', #521, #384, #492, .T. ) ;
#366 = LINE ( 'NONE', #335, #21 ) ;
#367 = CARTESIAN_POINT ( 'NONE',  ( 0.2000000000000000400, -0.5830951894845299900, 0.2500000000000000600 ) ) ;
#368 = VECTOR ( 'NONE', #229, 1000.000000000000000 ) ;
#369 = ORIENTED_EDGE ( 'NONE', *, *, #15, .T. ) ;
#370 = DIRECTION ( 'NONE',  ( 0.0000000000000000000, -0.0000000000000000000, -1.000000000000000000 ) ) ;
#371 = ORIENTED_EDGE ( 'NONE', *, *, #18, .F. ) ;
#372 = LINE ( 'NONE', #395, #160 ) ;
#373 = LINE ( 'NONE', #217, #131 ) ;
#374 = AXIS2_PLACEMENT_3D ( 'NONE', #409, #510, #451 ) ;
#375 = PRODUCT_CONTEXT ( 'NONE', #463, 'mechanical' ) ;
#376 =( LENGTH_UNIT ( ) NAMED_UNIT ( * ) SI_UNIT ( .MILLI., .METRE. ) );
#377 = VERTEX_POINT ( 'NONE', #188 ) ;
#378 = AXIS2_PLACEMENT_3D ( 'NONE', #321, #408, #358 ) ;
#379 = LINE ( 'NONE', #532, #172 ) ;
#380 = EDGE_CURVE ( 'NONE', #377, #206, #308, .T. ) ;
#381 = ORIENTED_EDGE ( 'NONE', *, *, #115, .F. ) ;
#382 = LINE ( 'NONE', #313, #176 ) ;
#383 = PRODUCT_DEFINITION_CONTEXT ( 'detailed design', #16, 'design' ) ;
#384 = VERTEX_POINT ( 'NONE', #64 ) ;
#385 = AXIS2_PLACEMENT_3D ( 'NONE', #14, #103, #514 ) ;
#386 = DIRECTION ( 'NONE',  ( -0.0000000000000000000, -0.0000000000000000000, 1.000000000000000000 ) ) ;
#387 = EDGE_CURVE ( 'NONE', #232, #506, #201, .T. ) ;
#388 = PLANE ( 'NONE',  #336 ) ;
#389 = CARTESIAN_POINT ( 'NONE',  ( 0.5000000000000001100, -1.166190378969060000, -0.3000000000000000400 ) ) ;
#390 = PRESENTATION_STYLE_ASSIGNMENT (( #406 ) ) ;
#391 = DIRECTION ( 'NONE',  ( 0.0000000000000000000, 0.0000000000000000000, -1.000000000000000000 ) ) ;
#392 = VERTEX_POINT ( 'NONE', #227 ) ;
#393 = ORIENTED_EDGE ( 'NONE', *, *, #380, .T. ) ;
#394 = STYLED_ITEM ( 'NONE', ( #322 ), #44 ) ;
#395 = CARTESIAN_POINT ( 'NONE',  ( -0.2000000000000000400, 0.0000000000000000000, 0.2500000000000000600 ) ) ;
#396 = FACE_OUTER_BOUND ( 'NONE', #225, .T. ) ;
#397 = DIRECTION ( 'NONE',  ( 0.0000000000000000000, 1.000000000000000000, 0.0000000000000000000 ) ) ;
#398 = DIRECTION ( 'NONE',  ( 0.0000000000000000000, 0.0000000000000000000, 1.000000000000000000 ) ) ;
#399 = AXIS2_PLACEMENT_3D ( 'NONE', #171, #215, #370 ) ;
#400 = DIRECTION ( 'NONE',  ( 0.0000000000000000000, 1.000000000000000000, 0.0000000000000000000 ) ) ;
#401 = DIRECTION ( 'NONE',  ( -1.000000000000000000, 0.0000000000000000000, -0.0000000000000000000 ) ) ;
#402 = SURFACE_SIDE_STYLE ('',( #149 ) ) ;
#403 = ORIENTED_EDGE ( 'NONE', *, *, #387, .T. ) ;
#404 = CARTESIAN_POINT ( 'NONE',  ( -0.4999999999999998900, -1.166190378969060000, -0.3000000000000000400 ) ) ;
#405 = FACE_OUTER_BOUND ( 'NONE', #80, .T. ) ;
#406 = SURFACE_STYLE_USAGE ( .BOTH. , #402 ) ;
#407 = DIRECTION ( 'NONE',  ( -0.0000000000000000000, 1.000000000000000000, -0.0000000000000000000 ) ) ;
#408 = DIRECTION ( 'NONE',  ( 1.807003620809174400E-016, 0.0000000000000000000, 1.000000000000000000 ) ) ;
#409 = CARTESIAN_POINT ( 'NONE',  ( -0.5000000000000000000, -0.5830951894845299900, 0.2500000000000001700 ) ) ;
#410 = AXIS2_PLACEMENT_3D ( 'NONE', #404, #202, #283 ) ;
#411 = ORIENTED_EDGE ( 'NONE', *, *, #223, .T. ) ;
#412 = CARTESIAN_POINT ( 'NONE',  ( 0.5000000000000001100, 0.5100000000000000100, 0.2999999999999999300 ) ) ;
#413 = VERTEX_POINT ( 'NONE', #262 ) ;
#414 = CLOSED_SHELL ( 'NONE', ( #447, #357, #156, #166, #240, #318 ) ) ;
#415 = FACE_OUTER_BOUND ( 'NONE', #457, .T. ) ;
#416 = PLANE ( 'NONE',  #374 ) ;
#417 = LINE ( 'NONE', #486, #3 ) ;
#418 = ORIENTED_EDGE ( 'NONE', *, *, #228, .T. ) ;
#419 = ORIENTED_EDGE ( 'NONE', *, *, #25, .F. ) ;
#420 = LINE ( 'NONE', #456, #136 ) ;
#421 =( NAMED_UNIT ( * ) SI_UNIT ( $, .STERADIAN. ) SOLID_ANGLE_UNIT ( ) );
#422 = PRESENTATION_LAYER_ASSIGNMENT (  '', '', ( #295 ) ) ;
#423 =( NAMED_UNIT ( * ) SI_UNIT ( $, .STERADIAN. ) SOLID_ANGLE_UNIT ( ) );
#424 = DIRECTION ( 'NONE',  ( 0.0000000000000000000, 1.000000000000000000, 0.0000000000000000000 ) ) ;
#425 =( NAMED_UNIT ( * ) SI_UNIT ( $, .STERADIAN. ) SOLID_ANGLE_UNIT ( ) );
#426 = CARTESIAN_POINT ( 'NONE',  ( -0.2000000000000000400, 0.05000000000000000300, 0.2500000000000000600 ) ) ;
#427 = EDGE_LOOP ( 'NONE', ( #134, #263, #45, #439 ) ) ;
#428 = VECTOR ( 'NONE', #55, 1000.000000000000000 ) ;
#429 = PRODUCT ( 'TESD5V0L1UC RJG', 'TESD5V0L1UC RJG', '', ( #375 ) ) ;
#430 = CARTESIAN_POINT ( 'NONE',  ( -0.4999999999999998900, 0.04999999999999991300, 0.2999999999999999300 ) ) ;
#431 = CARTESIAN_POINT ( 'NONE',  ( -0.4999999999999998900, -1.166190378969060000, 0.2999999999999999300 ) ) ;
#432 = AXIS2_PLACEMENT_3D ( 'NONE', #329, #49, #92 ) ;
#433 = VERTEX_POINT ( 'NONE', #72 ) ;
#434 = VECTOR ( 'NONE', #360, 1000.000000000000000 ) ;
#435 = DIRECTION ( 'NONE',  ( -0.0000000000000000000, 1.000000000000000000, -0.0000000000000000000 ) ) ;
#436 = PRODUCT_DEFINITION_FORMATION_WITH_SPECIFIED_SOURCE ( 'ANY', '', #429, .NOT_KNOWN. ) ;
#437 = CARTESIAN_POINT ( 'NONE',  ( -0.5000000000000000000, 0.05000000000000000300, -0.2499999999999998300 ) ) ;
#438 = PLANE ( 'NONE',  #133 ) ;
#439 = ORIENTED_EDGE ( 'NONE', *, *, #228, .F. ) ;
#440 = VERTEX_POINT ( 'NONE', #27 ) ;
#441 = VERTEX_POINT ( 'NONE', #74 ) ;
#442 = DIRECTION ( 'NONE',  ( 1.000000000000000000, -0.0000000000000000000, 3.614007241618348800E-016 ) ) ;
#443 = PLANE ( 'NONE',  #410 ) ;
#444 = EDGE_CURVE ( 'NONE', #43, #377, #96, .T. ) ;
#445 = ORIENTED_EDGE ( 'NONE', *, *, #265, .T. ) ;
#446 = FACE_OUTER_BOUND ( 'NONE', #296, .T. ) ;
#447 = ADVANCED_FACE ( 'NONE', ( #415 ), #388, .T. ) ;
#448 = ADVANCED_FACE ( 'NONE', ( #396 ), #316, .F. ) ;
#449 = AXIS2_PLACEMENT_3D ( 'NONE', #40, #319, #87 ) ;
#450 =( LENGTH_UNIT ( ) NAMED_UNIT ( * ) SI_UNIT ( .MILLI., .METRE. ) );
#451 = DIRECTION ( 'NONE',  ( -1.000000000000000000, 0.0000000000000000000, 3.614007241618348800E-016 ) ) ;
#452 = CARTESIAN_POINT ( 'NONE',  ( 0.0000000000000000000, 0.0000000000000000000, 0.0000000000000000000 ) ) ;
#453 = DIRECTION ( 'NONE',  ( 0.0000000000000000000, -0.0000000000000000000, 1.000000000000000000 ) ) ;
#454 = ORIENTED_EDGE ( 'NONE', *, *, #230, .F. ) ;
#455 = DIRECTION ( 'NONE',  ( -1.807003620809174400E-016, 0.0000000000000000000, 1.000000000000000000 ) ) ;
#456 = CARTESIAN_POINT ( 'NONE',  ( 0.2000000000000000400, -0.5830951894845299900, -0.2499999999999998900 ) ) ;
#457 = EDGE_LOOP ( 'NONE', ( #340, #362, #135, #111 ) ) ;
#458 = ORIENTED_EDGE ( 'NONE', *, *, #105, .T. ) ;
#459 = LINE ( 'NONE', #279, #264 ) ;
#460 =( NAMED_UNIT ( * ) SI_UNIT ( $, .STERADIAN. ) SOLID_ANGLE_UNIT ( ) );
#461 = STYLED_ITEM ( 'NONE', ( #163 ), #310 ) ;
#462 = VECTOR ( 'NONE', #397, 1000.000000000000000 ) ;
#463 = APPLICATION_CONTEXT ( 'automotive_design' ) ;
#464 = EDGE_CURVE ( 'NONE', #147, #186, #382, .T. ) ;
#465 = ORIENTED_EDGE ( 'NONE', *, *, #339, .T. ) ;
#466 = LINE ( 'NONE', #214, #434 ) ;
#467 = PLANE ( 'NONE',  #51 ) ;
#468 = DIRECTION ( 'NONE',  ( 1.000000000000000000, 0.0000000000000000000, -0.0000000000000000000 ) ) ;
#469 = LINE ( 'NONE', #28, #33 ) ;
#470 = ORIENTED_EDGE ( 'NONE', *, *, #151, .T. ) ;
#471 = ORIENTED_EDGE ( 'NONE', *, *, #387, .F. ) ;
#472 = VECTOR ( 'NONE', #327, 1000.000000000000000 ) ;
#473 = VECTOR ( 'NONE', #236, 1000.000000000000000 ) ;
#474 = EDGE_CURVE ( 'NONE', #315, #392, #303, .T. ) ;
#475 = CARTESIAN_POINT ( 'NONE',  ( -0.2000000000000000400, -0.5830951894845299900, -0.2499999999999998900 ) ) ;
#476 = PRESENTATION_LAYER_ASSIGNMENT (  '', '', ( #394 ) ) ;
#477 = CARTESIAN_POINT ( 'NONE',  ( 0.5000000000000000000, 0.05000000000000000300, -0.2499999999999998300 ) ) ;
#478 = DIRECTION ( 'NONE',  ( -1.000000000000000000, 0.0000000000000000000, -0.0000000000000000000 ) ) ;
#479 = ADVANCED_FACE ( 'NONE', ( #347 ), #194, .F. ) ;
#480 = MECHANICAL_DESIGN_GEOMETRIC_PRESENTATION_REPRESENTATION (  '', ( #295 ), #324 ) ;
#481 = ORIENTED_EDGE ( 'NONE', *, *, #151, .F. ) ;
#482 = CARTESIAN_POINT ( 'NONE',  ( 0.2000000000000000400, 0.0000000000000000000, 0.2500000000000000600 ) ) ;
#483 = LINE ( 'NONE', #495, #36 ) ;
#484 = VECTOR ( 'NONE', #364, 1000.000000000000000 ) ;
#485 = EDGE_CURVE ( 'NONE', #506, #4, #38, .T. ) ;
#486 = CARTESIAN_POINT ( 'NONE',  ( 0.5000000000000000000, 0.0000000000000000000, 0.2500000000000001700 ) ) ;
#487 = CARTESIAN_POINT ( 'NONE',  ( 0.5000000000000001100, 0.5100000000000000100, 0.2999999999999999300 ) ) ;
#488 = VECTOR ( 'NONE', #386, 1000.000000000000000 ) ;
#489 = ORIENTED_EDGE ( 'NONE', *, *, #105, .F. ) ;
#490 = ORIENTED_EDGE ( 'NONE', *, *, #265, .F. ) ;
#491 = FACE_OUTER_BOUND ( 'NONE', #8, .T. ) ;
#492 = LINE ( 'NONE', #475, #183 ) ;
#493 = CARTESIAN_POINT ( 'NONE',  ( 0.5000000000000000000, 0.0000000000000000000, -0.2499999999999998300 ) ) ;
#494 = PRESENTATION_LAYER_ASSIGNMENT (  '', '', ( #461 ) ) ;
#495 = CARTESIAN_POINT ( 'NONE',  ( -0.5000000000000000000, 0.0000000000000000000, 0.2500000000000001700 ) ) ;
#496 = DIRECTION ( 'NONE',  ( 0.0000000000000000000, 1.000000000000000000, 0.0000000000000000000 ) ) ;
#497 = EDGE_CURVE ( 'NONE', #521, #211, #359, .T. ) ;
#498 = ORIENTED_EDGE ( 'NONE', *, *, #328, .T. ) ;
#499 = PRESENTATION_STYLE_ASSIGNMENT (( #516 ) ) ;
#500 = CARTESIAN_POINT ( 'NONE',  ( -0.5000000000000000000, 0.0000000000000000000, -0.2499999999999998300 ) ) ;
#501 = CARTESIAN_POINT ( 'NONE',  ( 0.5000000000000000000, -0.5830951894845299900, -0.2499999999999998300 ) ) ;
#502 = EDGE_CURVE ( 'NONE', #232, #244, #184, .T. ) ;
#503 = UNCERTAINTY_MEASURE_WITH_UNIT (LENGTH_MEASURE( 1.000000000000000100E-005 ), #450, 'distance_accuracy_value', 'NONE');
#504 = CARTESIAN_POINT ( 'NONE',  ( 0.0000000000000000000, 0.0000000000000000000, 0.0000000000000000000 ) ) ;
#505 = MANIFOLD_SOLID_BREP ( 'Boss-Extrude1', #414 ) ;
#506 = VERTEX_POINT ( 'NONE', #83 ) ;
#507 = DIRECTION ( 'NONE',  ( -0.0000000000000000000, 1.000000000000000000, -0.0000000000000000000 ) ) ;
#508 = VERTEX_POINT ( 'NONE', #90 ) ;
#509 = FACE_OUTER_BOUND ( 'NONE', #331, .T. ) ;
#510 = DIRECTION ( 'NONE',  ( -3.614007241618348800E-016, 0.0000000000000000000, -1.000000000000000000 ) ) ;
#511 = CARTESIAN_POINT ( 'NONE',  ( 0.5000000000000001100, -1.166190378969060000, 0.2999999999999999300 ) ) ;
#512 = FILL_AREA_STYLE ('',( #139 ) ) ;
#513 = EDGE_CURVE ( 'NONE', #100, #43, #108, .T. ) ;
#514 = DIRECTION ( 'NONE',  ( 0.0000000000000000000, -0.0000000000000000000, 1.000000000000000000 ) ) ;
#515 = ORIENTED_EDGE ( 'NONE', *, *, #141, .F. ) ;
#516 = SURFACE_STYLE_USAGE ( .BOTH. , #334 ) ;
#517 =( GEOMETRIC_REPRESENTATION_CONTEXT ( 3 ) GLOBAL_UNCERTAINTY_ASSIGNED_CONTEXT ( ( #277 ) ) GLOBAL_UNIT_ASSIGNED_CONTEXT ( ( #145, #101, #423 ) ) REPRESENTATION_CONTEXT ( 'NONE', 'WORKASPACE' ) );
#518 = VECTOR ( 'NONE', #341, 1000.000000000000000 ) ;
#519 = EDGE_LOOP ( 'NONE', ( #481, #59, #445, #282 ) ) ;
#520 = ORIENTED_EDGE ( 'NONE', *, *, #502, .T. ) ;
#521 = VERTEX_POINT ( 'NONE', #122 ) ;
#522 = LINE ( 'NONE', #46, #5 ) ;
#523 = MECHANICAL_DESIGN_GEOMETRIC_PRESENTATION_REPRESENTATION (  '', ( #461 ), #177 ) ;
#524 = VECTOR ( 'NONE', #150, 1000.000000000000000 ) ;
#525 = CARTESIAN_POINT ( 'NONE',  ( -0.5000000000000000000, -0.5830951894845299900, 0.2500000000000001700 ) ) ;
#526 = CARTESIAN_POINT ( 'NONE',  ( -0.5000000000000000000, -0.5830951894845299900, -0.2499999999999998300 ) ) ;
#527 = FACE_OUTER_BOUND ( 'NONE', #221, .T. ) ;
#528 = CARTESIAN_POINT ( 'NONE',  ( -0.2000000000000000400, 0.0000000000000000000, 0.2500000000000000600 ) ) ;
#529 = ADVANCED_FACE ( 'NONE', ( #299 ), #284, .F. ) ;
#530 = DIRECTION ( 'NONE',  ( -0.0000000000000000000, 0.0000000000000000000, 1.000000000000000000 ) ) ;
#531 = EDGE_LOOP ( 'NONE', ( #23, #157, #57, #515 ) ) ;
#532 = CARTESIAN_POINT ( 'NONE',  ( -0.4999999999999998900, -1.166190378969060000, -0.3000000000000000400 ) ) ;
ENDSEC;
END-ISO-10303-21;
